<?xml version="1.0" encoding="utf-8"?>
<!-- Generator: Adobe Illustrator 21.0.2, SVG Export Plug-In . SVG Version: 6.00 Build 0)  -->
<svg version="1.1" id="Laag_1" xmlns="http://www.w3.org/2000/svg" xmlns:xlink="http://www.w3.org/1999/xlink" x="0px" y="0px"
	 viewBox="0 0 566.9 566.9" style="enable-background:new 0 0 566.9 566.9;" xml:space="preserve">
<style type="text/css">
	.st0{fill:#3D5B9A;}
	.st1{fill:#244B91;}
	.st2{fill:#FFFFFF;}
	.st3{fill:#294E93;}
	.st4{fill:#264C92;}
</style>
<g>
	<path class="st0" d="M40.4,559c-15.2-1.7-24.4-9.9-27.4-25c1.4-3.7,0.8-7.5,0.8-11.2c0-157.9,0-315.8,0-473.6
		c0-3.7,0.7-7.6-0.9-11.2c2.6-14,10.8-22.4,24.9-24.9c3.6,1.5,7.5,0.9,11.2,0.9c157.9,0,315.8,0,473.7,0c3.7,0,7.6,0.6,11.2-0.8
		c15.1,3,23.2,12.3,24.9,27.4c-1.5,3.6-0.9,7.5-0.9,11.2c0,156.2,0,312.4,0,468.7c0,3.7-0.7,7.6,0.9,11.2
		c-2.1,16.2-11.2,25.4-27.5,27.4c-29.8-2-59.5-0.6-89.3-0.8c-15.5-0.1-31-1.2-46.5,0.8c-32.8,0-65.7,0-98.5,0
		c-2.8-1.3-5.8-0.9-8.7-0.9c-79.8,0-159.6,0-239.4,0C46.2,558.1,43.2,557.7,40.4,559z"/>
	<path class="st1" d="M534,13c-4,3.6-8.8,2-13.3,2c-156.5,0.1-313.1,0.1-469.6,0c-4.4,0-9.3,1.6-13.2-2c19.3-0.1,38.6-0.4,57.9-0.4
		c141,0,282.1,0,423.1,0C524,12.6,529,12.9,534,13z"/>
	<path class="st1" d="M13,37.9c3.6,3.9,2,8.8,2,13.2c0.1,156.5,0.1,313,0,469.6c0,4.4,1.6,9.3-2,13.3c-0.2-2.1-0.5-4.2-0.5-6.3
		c0-161.6,0-323.2,0-484.8C12.6,41.3,12.9,39.6,13,37.9z"/>
	<path class="st1" d="M559,531.5c-3.6-4-2-8.8-2-13.2c-0.1-154.9-0.1-309.7,0-464.6c0-4.4-1.6-9.3,2-13.2
		c0.1,26.4,0.4,52.9,0.4,79.3c0,132.2,0,264.5,0,396.7C559.4,521.5,559.1,526.5,559,531.5z"/>
	<path class="st1" d="M40.4,559c3.5-3.4,7.9-2.1,12-2.1c77.6-0.1,155.2-0.1,232.8,0c4,0,8.5-1.4,12,2.1C211.6,559,126,559,40.4,559z
		"/>
	<path class="st1" d="M395.7,559c2.3-2.5,5.3-2.1,8.2-2.1c39.8,0,79.6,0,119.4,0c2.9,0,5.9-0.4,8.2,2.1C486.2,559,441,559,395.7,559
		z"/>
	<path class="st2" d="M390.2,544.2c-25.1,0.1-50.3-0.2-75.4,0.4c-8.6,0.2-10.2-2.8-10.2-10.7c0.3-58.3,0.2-116.5,0-174.8
		c0-3.6,2.9-8.3-2.3-11c-22.6,1.2-45.2,1.6-67.8-0.2c-3-27.9-2.9-55.7,0-83.6c22.6-1.8,45.2-1.4,67.8-0.2c5.2-2.7,2.2-7.4,2.3-11
		c0.6-23.9-1.7-48.2,1.6-71.6c7.7-53.1,41.1-82.6,94.9-86c20.4-1.3,41.1,0.4,61.6,0.9c8.1,0.2,12.8,2.6,12.2,12.6
		c-1,17.1-0.9,34.4,0,51.6c0.5,9.9-3.2,11.9-12.2,11.6c-14.2-0.4-28.5-1.1-42.7,0.9c-18,2.6-24.2,8-28.8,26
		c1.5,17.6,0.9,35.2,0.4,52.7c-0.3,9.8,3,12,12.1,11.6c18.4-0.7,36.9-0.3,55.3-0.1c4.1,0,8.4-1.3,12.2,1.3
		c-3.4,27.5-6.8,55-10.1,82.5c-18.1,3.6-36.5,1-54.7,1.5c-16.5,0.5-14.5-1.1-14.5,15.1c-0.1,55.6,0,111.2-0.1,166.8
		C391.7,535.3,393.2,540,390.2,544.2z"/>
	<path class="st3" d="M390.2,544.2c0.1-61.7,0.4-123.4-0.1-185.1c-0.1-9.6,2.5-11.9,11.7-11.6c19.7,0.7,39.4,0,59.2-0.1
		c-6,5.9-13.5,2.4-20.3,2.8c-11.7,0.6-23.5,0.8-35.2,0c-10.2-0.7-12.7,3-12.7,12.8c0.4,55.8,0.3,111.5,0.1,167.3
		C393,534.8,395.2,540.3,390.2,544.2z"/>
	<path class="st4" d="M471.1,264.8c-23.9-0.1-47.8-0.3-71.7,0c-6.9,0.1-9.5-1.6-9.2-8.9c0.7-18.8,0.7-37.7,0.9-56.6
		c4.4,15.1,1.3,30.5,1.8,45.7c0.6,17.1,0.1,17.1,16.7,17.1c16.7,0,33.3-0.1,50,0.1C463.5,262.1,468.1,260.6,471.1,264.8z"/>
	<path class="st1" d="M302.2,264.2c-22.6,0.1-45.2,0.1-67.8,0.2C257,260.5,279.6,260.8,302.2,264.2z"/>
	<path class="st1" d="M234.4,347.9c22.6,0.1,45.2,0.1,67.8,0.2C279.6,351.5,257,351.8,234.4,347.9z"/>
</g>
</svg>
