<?xml version="1.0" encoding="utf-8"?>
<!-- Generator: Adobe Illustrator 21.0.2, SVG Export Plug-In . SVG Version: 6.00 Build 0)  -->
<svg version="1.1" id="Laag_1" xmlns="http://www.w3.org/2000/svg" xmlns:xlink="http://www.w3.org/1999/xlink" x="0px" y="0px"
	 viewBox="0 0 566.9 566.9" style="enable-background:new 0 0 566.9 566.9;" xml:space="preserve">
<style type="text/css">
	.st0{fill:#2DABE2;}
	.st1{fill:#2AAFE5;}
	.st2{fill:#2EABE2;}
	.st3{fill:#32ABE1;}
	.st4{fill:#34AAD2;}
	.st5{fill:#42ABD4;}
	.st6{fill:#39A7CD;}
	.st7{fill:#35A6C3;}
	.st8{fill:#4EC5F1;}
	.st9{fill:#28A1C9;}
	.st10{fill:#28BBED;}
	.st11{fill:#30B9EC;}
	.st12{fill:#44C3F1;}
	.st13{fill:#5ACAF3;}
	.st14{fill:#50C4F0;}
	.st15{fill:#39BDEC;}
	.st16{fill:#38BCEC;}
</style>
<g>
	<path class="st0" d="M362.1,294.5c-2.7,20.2-11.9,36.4-30.4,46c-6.1,3.2-7.5,7.1-7.5,13.4c0.1,38.8-0.1,77.7-0.2,116.5
		c0,4.8,1,10.4-4.6,12.9c-4.7,2-8.5-1.1-12.4-3.4c-44.8-27-89.6-54-134.5-81c-10.4-6.2-21.4-12-21-26.8c-1.9-28.1-0.4-56.2-0.8-84.2
		c0.4-3,1.1-5.8,3.4-7.9c1.2-0.8,2.6-1.4,4.1-1.8c12.8-1.6,25.6-0.7,38.4-0.8c47.5-0.1,95.1-0.1,142.6,0c5.6,0,11.3-0.4,16.9,0.9
		C365.1,281.1,359.5,289.3,362.1,294.5z"/>
	<path class="st1" d="M152.1,285.3c-0.2,29-0.3,57.9-0.5,86.9c-2.5-3.8-1.5-8.1-1.5-12.1c0-53.2,0.2-106.5-0.1-159.7
		c-0.1-15.4,5.3-25.8,19.3-33.9c47.2-27.5,93.7-56.2,140.5-84.4c10.1-6.1,14.1-4,14.1,8.1c0.3,39.6,0.3,79.3,0.4,118.9
		c0,4.8-1.1,10,4.4,13c-0.8,2.2,1.7,6.1-3.2,6.3c-7.7-3.4-14.6-16.1-12.9-27.1c1.4-9.1-1.3-9.4-9.3-8.7c-21.7,1.7-43.5,1.5-65.3-0.2
		c-18.6-1.4-37.4-2.2-56-3.6c-5.6-0.4-11.2-0.2-13.8-3.9c-7.9,15.9-10.7,34-8.7,52.8c0.4,10.6,0.2,21.2,0.1,31.7
		c0,4.2-0.4,8.3-3.4,11.7l-1.1,0l-1.1,0c-2.6-26.2-0.5-52.5-1.1-78.8c-0.1-2.3-1.7-5.3,1.8-6.9c0.5-1.4,0,1.6-0.9,0.4
		C151,225.5,154.7,255.4,152.1,285.3z"/>
	<path class="st2" d="M22.8,377.9c-6.3-0.7-9-4.6-9.3-10.6c-2.1-26.8-0.7-53.6-0.7-80.5c0-2.1,0.9-4.4,2.3-6.2
		c4.5-3.6,9.9-3,15.1-3.1c20.3-0.1,40.7,0,61-0.1c15.7-0.1,15.9-0.3,16.5-16.7c-0.2-10.6-0.3-21.2,0.1-31.7
		c0.9-4.3-1.6-10.6,6.2-11.2c1,48.1,0.2,96.2,0.5,144.2c0.1,9.7-4.9,14.5-14.4,15.1C74.3,377.7,48.5,376.4,22.8,377.9z"/>
	<path class="st3" d="M517,294.4c13.7,13.5,27.6,26.8,41,40.6c7.3,7.5,7.2,17,0.6,23.2c-6.5,6.1-15.8,5.8-23.3-1.4
		c-15.2-14.7-30.2-29.6-44.8-44.8c-5.7-6-9.5-6.5-15.4-0.2c-14,14.8-28.6,29-43.1,43.3c-9,8.9-18.7,9.7-25.8,2.6
		c-6.9-7-6.1-15.4,2.9-24.7c16.8-17.3,33.8-34.5,50.6-51.8c1.2-1.7,2.9-2.4,4.8-2.8c11.6-0.8,23.2-1,34.8,1.2
		C506.1,283.4,509.8,291,517,294.4z"/>
	<path class="st4" d="M464.5,281c-1.6,0.1-3.3,0.1-4.9,0.2c-16.8-16.8-33.6-33.5-50.4-50.4c-9.2-9.2-10.2-18.8-3-25.6
		c6.5-6.2,17.3-4.7,25.9,3.8c13.4,13.3,26.7,26.6,40.1,39.9c10.5,10.5,10.5,10.5,20.6,0.3c13.3-13.4,26.5-26.8,39.9-40
		c3.7-3.7,7.2-7.7,13.1-8.1c7.1-0.4,12.6,1.5,15.9,8.2c3.6,7.4,1.7,14.1-3.7,19.6c-13.2,13.5-26.6,26.7-39.9,40.1
		c-12.2,12.3-12.2,12.3-1,25.5c-7.5-1.9-12.5-7-16.2-13.5c-3-5.1,1.2-7.9,4-10.1c7.8-6.4,14.3-14.1,21.3-21.2
		c9.6-6.7,15.8-16.8,24.8-24.2c4.3-3.6,5.6-9.4,0.8-13.8c-4.7-4.3-9.1-1.2-12.7,2.3c-9.4,9.1-18.6,18.4-27.7,27.7
		c-5.4,5.2-10.6,10.5-15.9,15.8c-12.2,12.1-13.1,12.1-25,0.4c-7.7-7.6-15.3-15.3-23-22.9c-5.5-8.3-13.3-14.3-20.8-20.6
		c-4.1-3.5-8.8-7-13.9-2.2c-5,4.7-1,8.9,1.8,12.9c3.9,5.6,8.8,10.3,14.6,14c11.9,10.9,21.9,23.5,33.1,35.1
		C463.9,275.9,465.9,278,464.5,281z"/>
	<path class="st5" d="M16,280.8c-4.5,14.7-1.8,29.9-2.3,44.8c-0.4,13.9-0.2,27.8-0.2,41.8c-2.8-3.7-1.7-8-1.7-12
		c-0.1-49.4-0.1-98.9-0.1-148.3c0-18.2,4.6-23.2,22.6-22.9c23,0.3,46-1.5,68.9,1.2c9,1,12.5,5.3,12.4,14
		c-0.1,55.1-0.1,110.2,0,165.3c0,11.2-6.1,14.4-16,13.5c-0.7-0.4-1-0.8-0.7-1.3c0.2-0.4,0.5-0.6,0.7-0.6
		c10.8-1.6,13.7-8.7,13.7-18.6c-0.2-46.7-0.1-93.4-0.1-140.1c-3.9-3.8-3-9.1-4.2-13.7c-2.1-7.9-6.8-12.3-15.2-12.3
		c-19.9-0.1-39.8-0.2-59.7,0.1c-8.9,0.1-14.4,4.5-14.6,13.6c-0.3,12-1.3,24,0.5,36c1.3,6-1.4,12.1,0.4,18.1
		C21.1,266.8,20.4,274.2,16,280.8z"/>
	<path class="st6" d="M328.5,226.6c1-1.5-7.2-3.4,0.2-4.6c21.2,9.4,31.5,26.6,33.7,48.9c0.7,7.8-0.2,15.7-0.3,23.6
		c-4-3.7,0.6-10-4-13.5c-4.3-5.2-3.5-11.9-5.1-17.9c-3.1-11.8-7.8-22.4-18.7-29.1C331.9,231.9,327.8,231.1,328.5,226.6z"/>
	<path class="st7" d="M99.7,376.1c0,0.6,0,1.3,0,1.9c-25.7,0-51.3-0.1-77-0.1c8.6-3.9,17.6-1.4,26.5-1.7
		C66,375.8,82.9,376.1,99.7,376.1z"/>
	<path class="st8" d="M335.4,231.3c18.4,11.6,21.5,30.3,22.7,49.7c-67.3,0-134.5,0-201.8,0c0-15.1,0-30.2,0-45.3
		c3.7-3.3,8.2-3.3,12.8-3.3c42.5,0.1,84.9-0.1,127.4-0.2C309.5,232.1,322.4,229.2,335.4,231.3z"/>
	<path class="st9" d="M152.1,285.3c0-30,0-60,0-90c0.7,0,1.4,0,2.1,0c0,28.6,0,57.1,0,85.7C154,282.7,153.9,284.4,152.1,285.3z"/>
	<path class="st10" d="M335.4,231.3c-1.3,2.5-3.3,4.8-6.1,4.2c-18.3-4.1-36.3,1.9-54.7,0.5c-18.4-1.4-36.9-0.3-55.4-0.3
		c-20.9,0-41.9,0-62.8,0c0-9.4,0.1-18.9,0-28.3c0-3.9,0.4-7.5,3.5-10.3c5.1-4.7,8.5-9.8,2.8-16.5c-1.6-1.9-0.7-3.7,1.2-4.6
		c2.4-1.2,3.5,0.5,3.8,2.5c0.9,5.8,5.3,7.7,9.9,7.1c9.3-1.2,18.2,1.9,27,2c29.7,0.6,59.4,4.4,89.2,2.8c4.9-0.3,9.7,0,14.5-1.9
		c3-1.2,6.6-2.8,9.5,0.2c2.9,3-0.3,5.7-1.4,8.1c-4.7,10.4,4.4,18.2,5.3,27.5c0.2,2.5,4.4,2.1,7,2.2
		C330.8,228.2,333.1,229.7,335.4,231.3z"/>
	<path class="st11" d="M18.1,242.5c-4.3-14.7-2.7-29.7-1-44.4c0.6-5.7,5.9-10.1,13.2-10.1c22.2,0.2,44.4,0.1,66.7,0
		c7.6,0,11.5,4.1,14.2,10.5c2.6,6.2,2,12.5,2.1,18.9c-3.7,3.2-1.7,7.6-2.3,11.4c-1.8,1.5-3.9,2.8-6.2,2.4c-21-4.2-42.1,1.8-63.1-0.7
		C31.2,229.3,23.4,233.5,18.1,242.5z"/>
	<path class="st12" d="M18.1,242.5c1-11.8,6.6-17.6,20.5-15.4c11.8,1.9,23,0.1,34.4-0.6c12.8-0.7,25.3,1.2,38,2.4
		c0,10.6,0,21.2,0,31.8c-1.6,2.9-4.1,4.3-7.4,4c-22.5-2.2-45,0.2-67.5-0.9c-6.4-0.3-12.8-0.9-18-5.4C12.6,253,19.4,247.8,18.1,242.5
		z"/>
	<path class="st13" d="M18,258.4c25.3,3.2,50.6,3.3,76,0.8c5.7-0.6,10.7,6.5,16.9,1.5c0.3,20.3,0.3,20.4-20.2,20.3
		c-24.9,0-49.8-0.1-74.8-0.2C16.7,273.3,17.3,265.8,18,258.4z"/>
	<path class="st14" d="M448.7,233.4c6.8,6.4,13.7,12.7,20.3,19.3c13.7,13.5,13.6,13.5,26.9,0.4c4.5-4.5,9.3-8.6,14-12.9
		c9-0.9,15.2,2.6,18.1,11.3c-7.5,11.3-21,17-27.2,29.5c-12.1,0-24.2,0-36.3,0c-12.1-13.6-24.2-27.2-36.3-40.8
		C434.6,236.8,441.2,233.7,448.7,233.4z"/>
	<path class="st15" d="M527.9,251.5c-5.3-5-11.6-8.4-18.1-11.3c9.7-10,19.3-20,29-30c4.6-4.8,10.1-6,15-1.5c5.5,5,5.6,11.8,0.6,17.1
		C546,234.7,536.8,243,527.9,251.5z"/>
	<path class="st16" d="M448.7,233.4c-6,4.7-12.5,8-20.5,6.8c-10.8-3.1-14.9-13.2-21.1-20.8c-3-3.7,1.2-7.7,4-10.6
		c4.3-4.5,9.5-3.1,13.2,0.2C433,216.6,443.3,222.5,448.7,233.4z"/>
</g>
</svg>
