<?xml version="1.0" encoding="utf-8"?>
<!-- Generator: Adobe Illustrator 21.0.2, SVG Export Plug-In . SVG Version: 6.00 Build 0)  -->
<svg version="1.1" id="Laag_1" xmlns="http://www.w3.org/2000/svg" xmlns:xlink="http://www.w3.org/1999/xlink" x="0px" y="0px"
	 viewBox="0 0 566.9 566.9" style="enable-background:new 0 0 566.9 566.9;" xml:space="preserve">
<style type="text/css">
	.st0{fill:#2DAFE4;}
	.st1{fill:#2DABE2;}
	.st2{fill:#2DABE1;}
	.st3{fill:#2DB9EC;}
	.st4{fill:#28ACE3;}
	.st5{fill:#2DB4E7;}
	.st6{fill:#2BA1D1;}
	.st7{fill:#30AAD4;}
	.st8{fill:#47A7C8;}
	.st9{fill:#52C6F1;}
	.st10{fill:#3FC0EF;}
	.st11{fill:#57C9F1;}
	.st12{fill:#5EC9F1;}
</style>
<g>
	<path class="st0" d="M300.3,96.6c0.1,33.4,0.1,66.9,0.2,100.3c1.7,7.6,0.5,15.3,0.8,22.9c0.1,2.4,0.4,5.4-3.1,5.4
		c-3,0-3.7-2.8-4.3-5.2c-0.6-2.7-0.5-5.6-0.6-8.3c-0.7-11.4-3.9-14.8-15-13.1c-12.2,1.8-24.4,0.9-36.5,1.7
		c-14.8,1-29.1-2.2-43.6-3.6c-4.8-0.5-9.4-2.4-14.4-0.5c-3.1,1.1-6.3,1.2-8.6-1.8c-2.5-3.4,0.4-5.8,1.9-8.4c0.9-1.5,1.9-2.8,1.7-5
		c-12.7,8.1-24.6,16.4-32.2,29.4c-3.6,0.4-2.2-3.1-3.5-4.5c-1.2-13.2,4.7-22.8,15.6-29.4c41-24.5,82.2-48.9,123.3-73.3
		c3-1.8,6.3-3,7.7-6.6C293.3,96.6,296.8,96.6,300.3,96.6z"/>
	<path class="st1" d="M143.1,205.9c0.6,1.4,1.2,2.8,1.8,4.1c5.7,7.8,2.4,16.7,3.2,25.1c0.4,4.1-0.1,8.3-0.2,12.4
		c0.5,8,0.1,16.1,0.3,24.1c0.1,5.6,2.8,8.3,8.4,8.4c3.5,0.1,7,0.1,10.5,0.1c47.9,0,95.7,0,143.6,0c7.3,0,14.7-0.2,21.9,1.3
		c1.3,0.5,2.4,1.1,3.4,1.9c1.3,24.3-6.8,43.8-29.1,55.7c-5,2.7-4.8,6.9-5.1,11.6c-2,35.9-0.9,71.9-1.5,107.9
		c-0.2,13.1-3.5,15.3-14.8,8.6c-44.6-26.6-89.1-53.5-133.6-80.3c-5.8-3.5-9.2-8.4-9.2-15.4C142.6,316.2,141.5,261,143.1,205.9z"/>
	<path class="st2" d="M14.8,216.2c-0.1-3.5-0.1-7-0.2-10.5c-0.3-6.9,2.8-10.5,9.9-10.5c22.4,0,44.8-0.4,67.2,0.1
		c12.4,0.3,15.5,4.3,15.5,16.8c0,48.6-0.2,97.3,0.2,145.9c0.1,10.6-3.6,13.5-13.9,14.2c-23.1,1.7-46.1,1.9-69.1-0.4
		c-5.3-0.5-9.6-0.9-9.8-7.9c-0.9-45.1-4.3-90.2,0-135.2c1.3-0.7,2.5-0.4,3.3,0.8c3.8,10,1.5,20.3,1.9,30.5
		c0.9,19.5-4,20.4,20.8,20.2c16-0.1,32,0.1,48.1-0.1c4.4,0,9.2,0.9,12.4-3.6c2.6-12,0.1-24,0.9-36c0.4-8.7,0.4-17.4-0.1-26.1
		c-0.4-7.8-4.6-11.9-12.1-13.3c-5.5-1.1-11.1-0.9-16.6-0.9c-11.8,0-23.7,0.2-35.5-0.1c-9.3-0.2-16.7,1.5-18.5,12.3
		C18.6,214.5,17.6,216.5,14.8,216.2z"/>
	<path class="st3" d="M145,247.8c0-12.6-0.1-25.2-0.1-37.9c6.3-5.3,6.8-19,10-19.1c9.3-0.2,13.3-5.8,18.8-10.6
		c2.5-2.2,4.7-8.1,9-4.2c4.3,3.8-1.2,7.4-2.4,11c-0.8,2.4-6.3,2.7-4.1,6.1c2.7,4.1,5.9,0.8,9-0.9c1.7-0.9,4.2-1.3,6-0.8
		c28.8,7.5,57.8,7.4,87.1,3.9c14.7-1.8,17.7,1.5,17.9,16.6c0.1,3.7-1,7.7,1.1,11.2c1.1,0.1,2.1,0.2,3.2,0.2c0-8.9,0-17.7,0-26.6
		c3.1,9.8,0.6,20,1.8,29.9c1.9,5.2,7.8,5.1,11.1,8.3c2.6,2.4,8.1,5.5,0.3,8.6c-10.3,3.2-20.8,1.1-31.2,1c-31-0.2-62.1-0.2-93.1,0
		c-11.5,0.1-22.9,1.8-34.3,3.4C151.7,248.6,148.3,250.2,145,247.8z"/>
	<path class="st4" d="M409,296.2c-6.5,0-13.1,0.1-19.6,0c-12.5-0.2-13.8-1.7-13.6-14.8c1.1-0.8,2.4-1.2,3.8-1.1
		c56.5-0.3,112.9-0.1,169.4-0.1c3.1,0,6.3,0.1,9.3,1.1c2,0.7,3.3,2.3,4.3,4.2c0.2,7.1-3,10.8-10.4,10.6c-8.2-0.1-16.4,0-24.6,0.1
		c-22.5,2-45.1,0.6-67.6,0.7C443,297,426,298.1,409,296.2z"/>
	<path class="st5" d="M16.8,228.9c-0.7,0-1.5,0-2.2,0c0.1-4.2,0.2-8.4,0.3-12.6c2.3-1.7,1.9-4.3,2-6.7c0.5-7.9,5-12,12.8-12.1
		c18.8-0.1,37.7-0.3,56.5,0.1c12.5,0.3,17.3,4.6,18.5,16.9c0.8,8.3,0.3,16.7,0.4,25.1c-8.5-4.5-7.5-12.9-7.9-20.7
		c-4.2,0.3-5.2,3.8-7.2,5.9c-3.5,3.8-7.3,4.6-12.3,3.4c-15.5-3.9-31.7-3.7-47.1-8.4C22.4,217.1,21.3,225.7,16.8,228.9z"/>
	<path class="st6" d="M562.6,285.5c-0.7-0.7-1.5-1.5-2.2-2.2c-14.1-11.6-30.8-7.5-46.4-6.6c-35.6,2-71.1,2.8-106.6-0.4
		c-10.4-0.9-20.1,1-29.5,5.1c-0.7,0-1.4,0-2.1,0c-0.2-7.8,4.7-10.5,11.4-10.5c54.5-0.1,109-0.1,163.6,0.1
		C559.9,271,563.7,276.5,562.6,285.5z"/>
	<path class="st7" d="M317,241.5c-2.7-6.7-10.3-6.6-14.9-10.6c-2-1.7-4.8-2.9,0.1-4.2c23.7,11.5,35.8,29.9,33.8,56.7
		c-0.8,0-1.6,0-2.3-0.1c-1.9-1.1-3.2-2.9-3.5-4.9c-1.4-12.5-5.8-23.8-13.2-34C316.4,243.7,316.7,242.5,317,241.5z"/>
	<path class="st8" d="M409,296.2c39.5,0,79,0,118.5,0c-2.8,2-6,1.5-9.1,1.5c-33.4,0-66.9,0-100.3,0C415,297.7,411.8,298.2,409,296.2
		z"/>
	<path class="st9" d="M317,241.5c11.8,11.5,14.7,26.5,16.7,41.8c-29.2,0-58.4,0.1-87.5,0.1c-30,0-60-0.4-89.9,0.2
		c-9.5,0.2-12.3-2.8-11.4-11.9c0.7-8,0.2-16,0.2-24c14.3-5.2,29.3-5.9,44.1-6.2c31.4-0.6,62.9-0.7,94.3,0.1
		C294.7,242,305.8,241.4,317,241.5z"/>
	<path class="st10" d="M16.8,228.9c2.7-12.8,9.1-16.4,24.5-10.3c8.9,3.6,17.5,3.9,26.5,4c0.7,0,1.4,0,2.1,0c9,0.8,17.3-1.6,24.4-7.1
		c1.3-1,2.4-2.9,4.4-1.7c1.7,1,2.6,3,1.9,4.5c-3.5,8.1,1.7,14.4,4.3,21.2c0,13.3,0,26.6-0.1,39.8c-5-0.6-4.8-4.9-4.6-7.9
		c0.8-9.9-4.8-11.8-12.8-11.3c-20.1,1.3-40.3,1.3-60.5,1.5c-3.4,0-6.9,1.4-10.1-1.1C16.8,249.9,16.8,239.4,16.8,228.9z"/>
	<path class="st11" d="M16.9,260.4c5.4-1.7,10.8-2.6,16.4-2.1c21,1.6,41.9-2.1,63-0.8c6.5,0.4,6.4,2.1,6.7,6.7
		c0.3,5.1-1.9,10.5,1.9,15.1c-0.8,6-5.6,4.1-9,4.2c-23,0.1-45.9-0.3-68.9,0.3c-8.6,0.2-11.2-2.8-10.3-10.8
		C17.2,268.8,16.8,264.6,16.9,260.4z"/>
	<path class="st12" d="M377.9,281.4c9-13.5,22.6-8.2,34.4-7.6c32.3,1.6,64.5,1.7,96.8,0c13.2-0.7,26.4-0.9,39.6-0.4
		c5.5,0.2,10.8,3.1,11.6,9.9c-58.3,0.1-116.5,0.1-174.8,0.2C382.9,283.5,380,284,377.9,281.4z"/>
</g>
</svg>
