<?xml version="1.0" encoding="utf-8"?>
<!-- Generator: Adobe Illustrator 21.0.2, SVG Export Plug-In . SVG Version: 6.00 Build 0)  -->
<svg version="1.1" id="Laag_1" xmlns="http://www.w3.org/2000/svg" xmlns:xlink="http://www.w3.org/1999/xlink" x="0px" y="0px"
	 viewBox="0 0 566.9 566.9" style="enable-background:new 0 0 566.9 566.9;" xml:space="preserve">
<style type="text/css">
	.st0{fill:#7788C4;}
	.st1{fill:#FFFFFF;}
	.st2{fill:#7889C4;}
	.st3{fill:#7789C4;}
</style>
<g>
	<path class="st0" d="M490.1,519.8c-36.6-30.2-69.9-62-105.8-94.9c4,14.8,7.3,27.1,10.9,40.5c-5,0-8.8,0-12.6,0
		c-82.1,0-164.3-0.8-246.4,0.4c-31.1,0.5-51.4-24.9-51.2-51.4c0.9-101.8,0.3-203.6,0.4-305.4c0-32.4,18.7-52.5,51.2-52.7
		c98.3-0.4,196.7-0.3,295,0.1c11.3,0,23.2-0.2,33.8,5.9c15.6,9,25.1,22.2,25.1,40.1c0.3,137.3,0.2,274.6,0.1,411.8
		C490.5,515.7,490.3,517.1,490.1,519.8z"/>
	<path class="st1" d="M373.3,193.5C359.4,181,342,175.7,324.7,168c24.7-5.6,62.5,13.1,72.2,34.8c16,35.9,25.2,73.3,26.9,112.6
		c0.3,6.7-1.6,11.6-6.2,16.5c-15.3,16.3-34.4,24.2-56,26.7c-5.8,0.7-20-10.4-20.5-15.6c-0.4-4.1,3.4-3.7,5.5-4.5
		c12.5-4.8,23.4-11.5,31.7-23.2c-57.6,32-115.4,31.8-176.1-0.2c10.2,15.3,23.7,19.6,35.7,25.9c-11.1,19-12.3,19.4-32.1,15.6
		c-15.2-2.9-28.2-9.8-40-19.5c-7.5-6.2-11.5-13.4-11.1-23.9c1.9-41.4,12.5-80.4,30.1-117.7c1.1-2.4,2.4-5.1,4.4-6.7
		c18.2-13.7,38.2-22.5,61.5-22c-17.3,7.8-35.3,14.2-50.4,26.9C257.9,169.6,315.6,167.8,373.3,193.5z"/>
	<path class="st2" d="M222.1,276.8c0-15.1,10.7-25.9,25.3-25.6c12.2,0.3,23.3,12.9,22.9,26c-0.4,14.2-11.6,26-24.5,25.8
		C232.6,302.7,222.1,291.1,222.1,276.8z"/>
	<path class="st3" d="M354.2,277.4c0,14.1-11.2,25.9-24.2,25.6c-12.8-0.3-23.8-12.1-23.4-25.1c0.4-16.3,9.8-26.6,24.2-26.3
		C345,251.9,354.3,262.1,354.2,277.4z"/>
</g>
</svg>
