<?xml version="1.0" encoding="utf-8"?>
<!-- Generator: Adobe Illustrator 21.0.2, SVG Export Plug-In . SVG Version: 6.00 Build 0)  -->
<svg version="1.1" id="Laag_1" xmlns="http://www.w3.org/2000/svg" xmlns:xlink="http://www.w3.org/1999/xlink" x="0px" y="0px"
	 viewBox="0 0 566.9 566.9" style="enable-background:new 0 0 566.9 566.9;" xml:space="preserve">
<style type="text/css">
	.st0{fill:#E7E5E5;}
	.st1{fill:#FFFFFF;}
	.st2{fill:#DEDCDC;}
	.st3{fill:#D2D0D0;}
	.st4{fill:#5299D3;}
	.st5{fill:#D1CFCF;}
	.st6{fill:#C5C3C3;}
	.st7{fill:#D0CECF;}
	.st8{fill:#FEFEFE;}
	.st9{fill:#BAB8B8;}
	.st10{fill:#458ECC;}
	.st11{fill:#D0CECE;}
	.st12{fill:#3E89C9;}
	.st13{fill:#3C87C8;}
	.st14{fill:#72AFDF;}
	.st15{fill:#316697;}
	.st16{fill:#C6C4C5;}
	.st17{fill:#356DA0;}
	.st18{fill:#346B9D;}
	.st19{fill:#BCBAB9;}
	.st20{fill:#B9B7B7;}
	.st21{fill:#A9A6A6;}
	.st22{fill:#B8B6B6;}
	.st23{fill:#AFACAC;}
	.st24{fill:#A19E9E;}
	.st25{fill:#3E77B0;}
	.st26{fill:#2F7BC0;}
	.st27{fill:#3481C3;}
	.st28{fill:#B2AFB0;}
	.st29{fill:#2F7CC0;}
	.st30{fill:#3976B0;}
	.st31{fill:#3970A7;}
	.st32{fill:#3976AF;}
	.st33{fill:#2D71AE;}
	.st34{fill:#3581C3;}
	.st35{fill:#2C649A;}
	.st36{fill:#5497D1;}
	.st37{fill:#F4F4F4;}
	.st38{fill:#ACA9A9;}
	.st39{fill:#A19E9D;}
	.st40{fill:#2876BC;}
	.st41{fill:#8E8B8B;}
	.st42{fill:#1C5284;}
	.st43{fill:#989595;}
	.st44{fill:#7E7B7C;}
	.st45{fill:#8D8B8D;}
	.st46{fill:#D2D2D2;}
	.st47{fill:#296196;}
	.st48{fill:#24619A;}
	.st49{fill:#969393;}
	.st50{fill:#E4E4E4;}
	.st51{fill:#807D7E;}
	.st52{fill:#E5E5E4;}
	.st53{fill:#726F70;}
	.st54{fill:#5C5E6A;}
	.st55{fill:#D7D7D6;}
	.st56{fill:#517AA4;}
	.st57{fill:#436D97;}
	.st58{fill:#335578;}
	.st59{fill:#809FBF;}
	.st60{fill:#7F9EBE;}
	.st61{fill:#6C8FB3;}
	.st62{fill:#36506B;}
	.st63{fill:#999696;}
	.st64{fill:#696666;}
	.st65{fill:#807C7C;}
	.st66{fill:#7B797A;}
	.st67{fill:#7F7C7C;}
	.st68{fill:#F8F7F6;}
	.st69{fill:#36608A;}
	.st70{fill:#2C557E;}
	.st71{fill:#061D3B;}
</style>
<g>
	<path class="st0" d="M1.9,215.4c2.6-1.2,3.3-3.3,3.9-6C23.1,132.9,74.2,87.6,144.5,60.7c34.1-13,69.9-18.6,106.4-21.4
		c22-1.7,44-2.3,65.9-1.2c59.6,3,116.8,15.2,167.2,49.7C524.6,115.7,552,153,564.4,201c0.8,3.2,0.3,7.2,4.4,8.7
		c0,18.3,0,36.5,0,54.8c-2.8,2.5-0.8,7-3.7,9.5c-5,11.4-7.3,23.7-12.5,35.2c-8.9,19.7-20.8,37.1-35.2,53
		c-24.3,26.9-53.2,48.6-82.2,70.2c-56.6,42.1-114.9,81.8-172.8,122.1c-11.3,7.9-24.4,9.9-37.8,8.5c-10.9-1.2-19.7-11.5-20.6-22.6
		c-1.1-14.1,1.5-27.5,7.1-40.4c4.6-10.7,8.9-21.5,13.3-32.2c4.3-10.4,2.8-15-8.2-17.2c-28.1-5.8-55-14.9-80.9-27.2
		c-33.5-15.9-63.2-36.8-87.2-65.6c-21-25.1-35.3-53.1-42.6-84.9c-0.6-2.5-1.5-4.8-3.6-6.4C1.9,249.4,1.9,232.4,1.9,215.4z"/>
	<path class="st1" d="M565.1,274c0-3.7-0.7-7.6,3.7-9.5c0,3.8,0,7.6,0,11.3C567.6,275.3,566.3,274.7,565.1,274z"/>
	<path class="st2" d="M28.4,166.3c-0.3-6.2,4-10.5,7-15.1c20.3-31.2,47.5-54.6,80.5-71.8c37.2-19.4,77.1-29.1,118.4-34
		c24.3-2.9,48.7-4.9,73.2-3.7c53.3,2.6,105.3,11.8,152.6,38.2c42,23.4,75.2,55.8,92.5,101.5c18.2,48,12.9,94.6-12.2,139.3
		c-19.8,35.2-49.1,61.6-80.5,85.8c-56.6,43.7-115.6,84-174.1,124.9c-3,2.1-5.7,5.1-9.8,5.3c-1.1-1.1-1.4-2.4-1.3-3.8
		c1-3.5,4-5,6.6-6.9c23.9-14.7,46.4-31.4,69.2-47.5c34.4-24.3,69.3-48.1,102.8-73.7c28.5-21.7,56.1-44.7,75.3-75.8
		c19.2-26.6,27.2-57.1,29.9-89.2c0.9-10.5-1-21.3-4.3-31.5c-1-7.6-2.6-15-5.6-22c-17.6-45.9-49-79.2-92.4-101.6
		c-6.8-3.5-12.9-9.5-21.6-7.6c-14.6-3.6-28.3-10.1-42.9-13.6c-21-5.1-42.1-9.7-63.8-9.9c-5.1,0-9.9-1.3-14.8-2.6
		c-13.9-1.9-27.8-1.9-41.6,0.1c-12,4.5-24.8,2.3-37.3,4c-32.2,4.3-63.7,10.8-93.5,23.9c-3.7,1.6-7.4,3.5-11.6,3.5
		c-2.1-2.3-4.1-1.8-6.8-0.5c-36.1,17.6-65,43.1-86,77.5C34.3,162.6,33.5,167,28.4,166.3z"/>
	<path class="st3" d="M275.9,532.9c0,1.3,0,2.5,0,3.8c-7,4.2-14.2,8.1-21,12.5c-8,5.3-16.8,5.1-25.5,4.4
		c-12.7-1.1-20.7-17.4-16.8-33.6c4.1-17.2,12-33,18.9-49.1c6.8-15.7,3.7-23.1-12.7-26.8c-43-9.6-83.4-25-119.6-50.6
		c-43.2-30.6-74.2-70-86.5-122.5c-7.6-32.5-1.8-63.4,11-93.5c1.6-3.7,3.1-7.5,4.7-11.2c7.9-10.8,15.4-21.8,23.6-32.3
		c19-24.5,43.8-41.6,71.4-54.9c3.8-1.8,4.4-0.9,3.3,2.7c-0.8,4.7-5,6-8.4,7.8c-7.4,4-14.3,8.6-21,13.7
		c-11.9,8.6-23.2,17.8-32.1,29.8c-3.3,4.5-6.7,9-11.8,11.9c-12.9,10.2-18.5,25.2-24.3,39.6c-23.4,57.9-10.4,110,26.5,157.9
		c12.1,15.8,26.7,29.1,42.6,41c3.3,2.4,6.7,4.6,9.3,7.9c13.8,12.9,31,20,47.9,27.1c13.5,5.7,27.1,11.5,41.6,14.5
		c8.4,2.8,17.1,4.1,25.6,6.3c17.1,4.5,21,11.9,15.4,28.4c-3.6,10.7-8.9,20.8-13,31.3c-3.7,9.3-7.7,18.5-7.2,29
		c0.7,14.9,11.1,22.9,25.4,19c8-2.1,14.9-6.6,21.8-11C268.2,534.1,271.2,530.2,275.9,532.9z"/>
	<path class="st4" d="M96,101.8c9-8.6,20.7-12.9,30.7-20c30.7-13.8,62.7-23.3,96-27.7c15.8-2.1,31.7-3.3,47.5-4.9
		c14.5-1.5,29-1.5,43.5,0c27.8,2.8,55.6,5,82.6,13c13.6,4,26.8,9.1,40,13.9c11.3,1.4,20,8.5,29.3,14.1c13.4,8.1,25.7,17.8,36.1,29.8
		c1.2,1.5,2,3.3,2.3,5.2c0.4,4,3,6.8,5.3,9.8c9.5,12.3,17.4,25.5,22.1,40.4c1.3,3.9,2,7.9,1.9,12.1c-0.3,8.4-2.7,10.7-10.9,10.2
		c-11-0.8-22-0.4-33.1-0.3c-7,0.1-11.8-2.5-15.8-8.3c-10.5-15-22.5-28.7-37.6-39.3c-11.9-7.3-23.7-14.8-36.8-20.1
		c-5.2-2.1-10.4-4.1-16.1-4.5c-22.4-9-45.9-12.2-69.7-12.6c-20-0.4-40-1.3-60,1.5c-8.1,1.1-15.4,5.3-23.6,5.7
		c-6.9-0.5-12.9,3.1-19.6,3.8c-13.9,1.8-24.9,10.2-36.5,16.9c-11.3,6.4-21.1,14.8-30.8,23.4c-5.5,4.9-11.4,6.5-18.9,6.3
		c-17.2-0.3-34.4-1.9-51.6-1.8c-5.3,0-10.7,0.3-15.2,4.1c-2.8,2.4-6.3,5.4-10.1,3.2c-3.7-2.2-2.5-6.7-2.5-10.5
		c0.7-4.9,2.6-9.2,5.9-12.9C63.9,133.5,80.4,118,96,101.8z"/>
	<path class="st5" d="M529.2,330.7c-7.7,16.5-20.5,29.4-33.4,41.3c-20,18.4-41.1,35.7-63.6,51.2c-35.8,24.7-71.1,50.2-106.6,75.4
		c-11.5,8.1-23.1,16.1-34.7,24.2c-2.9,2-5.6,4-9.2,4.4c-0.6-0.8-0.7-1.6-0.5-2.6c10.2-11.8,24.3-18.5,36.7-27.4
		c32.3-23.2,65.1-45.8,97.1-69.4c36.3-25.9,72-52.4,100.9-86.8c4.9-2.6,6.1-9.4,12-10.9C528.4,330.4,528.8,330.6,529.2,330.7z"/>
	<path class="st6" d="M281.6,525.4c0,0.7,0,1.3,0.1,2c-1.9,1.9-3.8,3.7-5.8,5.6c-6.1,1.2-10.4,5.7-15.2,9c-7.2,5-15.2,7.4-23.5,9.2
		c-7.9,1.7-20.5-8.4-21.5-17.4c-0.7-6.8-1.2-13.8,1.5-20.5c5.9-14.5,12.1-28.8,17.5-43.5c7.1-19.5,2.2-27-18.7-29.3
		c-6.9-0.8-13.2-3.1-19.5-5.7c-0.6-1-0.5-1.9,0.4-2.7c1.8-1.2,3.8-1.5,5.9-1.5c8.4,1,16.5,3,24.8,4.7c5.4,1,10.1,3.3,13.3,7.9
		c5.6,7.6,5.5,15.6,1.9,24c-5.7,13.2-10.7,26.7-16.5,39.9c-2.3,5.2-3.8,10.7-4.3,16.3c-0.6,7.1,0.9,14.3,7.3,18.2
		c7.4,4.5,15,2.8,22.1-1.8c6.7-4,13.1-8.4,19.9-12.2C274.8,526.6,277.5,522.7,281.6,525.4z"/>
	<path class="st7" d="M500.8,120.9c-19-18.5-40.7-33-64.4-44.8c2.1-3.6,4.7-1.8,7.3-0.6c45.5,20.9,80.7,52.5,102.3,98.2
		c1.7,3.7,2.6,7.7,3.9,11.5c1.1,1.2,1,2.5,0.5,3.8c-6.3-0.1-5.7-5.9-7.2-9.3c-9.3-20.8-21.5-39.6-37.7-55.7
		C504,122.6,502.6,121.6,500.8,120.9z"/>
	<path class="st5" d="M555.6,207.8c5.6,10.9,6.3,23,5.2,34.6c-2.1,22.7-6.7,45.1-16.9,65.8c-4,8-7.8,16.4-14.7,22.5c0,0,0,0,0,0
		c-2.9-4.6,0.8-7.6,2.6-11c12.5-23.2,22.4-47.1,21.8-74.1c0-1.5,0.2-3,0.5-4.5c2.2-6.9-1.7-13.4-1-20.2c0.4-4-0.5-8.1,1.5-11.8
		C554.9,208.6,555.2,208.2,555.6,207.8z"/>
	<path class="st8" d="M313.7,49.1c-14.5,0-29,0-43.5,0C284.8,46.1,299.2,46.1,313.7,49.1z"/>
	<path class="st5" d="M549.9,189c0-1.3,0-2.5,0-3.8c4.3,6.9,6.2,14.5,5.7,22.7c0,0,0,0,0,0C549,203,546.6,196.9,549.9,189z"/>
	<path class="st9" d="M202.3,432.7c-1.9,0-3.8,0-5.7,0.1c-7.7,0.6-14.3-3.1-21.1-5.5c-24.5-8.6-47.9-19.7-69.6-34.2
		c-12.8-11.5-27-21.2-38.8-33.9c-33.4-35.8-54.5-76.8-51.6-126.9c1.8-31.5,13.1-60.4,32.2-86c1-1.4,2.3-5.3,5.5-2.1
		c1.5,2.4,0.4,4.5-0.9,6.6c-10.4,15.7-16.3,33.3-20.6,51.4c-0.7,1.9-1.7,3.6-3,5.1c-5.2,5.6-4.5,12.8-5.1,19.5
		c-2.7,31.6,4.1,61.1,19.7,88.7c10.3,22.9,27.9,40.1,46.4,56.1c30.7,26.5,67,42.4,105.4,54.2C198.2,426.8,204.3,425.8,202.3,432.7z"
		/>
	<path class="st10" d="M51.2,149.4c0.6-1.7,1.2-3.4,1.8-5.1c12.6-15.9,25.3-31.7,42.9-42.5c1.1,0.7,2.3,2.1,1.2,3
		c-16.9,14.2-31.1,30.8-44.3,48.3C51.4,152.3,52.1,150.5,51.2,149.4z"/>
	<path class="st11" d="M105.8,393c11.6,2.8,19.9,11.6,30.5,16.4c19.6,8.9,39.5,17.1,60.2,23.3c0,0.6,0,1.3,0,1.9
		C163.8,426.2,132.7,414.3,105.8,393z"/>
	<path class="st12" d="M436.4,147.4c12.3,6.6,20.7,17.5,29.9,27.6c1.3,1.4,2.4,2.9,3.2,4.6c6.9,14.2,18.8,16.9,33.2,15.3
		c7.3-0.8,15-1,22.4,0.6c5.9,1.3,5.7-3.2,5.7-7c0-15.1-7.5-27.5-14.9-39.7c-3.2-5.3-6.5-10.6-10.9-15.2c-2.1-2.2-5.4-4.7-2.8-8.8
		c12.6,5,16.4,17.9,23.9,27.4c2.8,3.6,4.3,8.2,6.6,12.3c5,11.1,9.8,22.3,10.7,34.7c1.2,19.1-0.2,38-4.3,56.7
		c-1.3,6.2-2.9,12.2-5.9,17.7c-6.1,8.7-11.5,17.9-18.8,25.9c-6.2,6.8-12.9,10.6-22.3,9.4c-16.6-2.3-31.1,0.9-44.5,12.6
		c-23.9,20.9-47.4,42.3-72.8,61.4c-21.2,14.7-42,29.9-63.5,44.1c-5.6,3.7-11.5,6.6-18.5,5.8c-3.7-0.4-7.4-2.1-7.5-5.9
		c-0.1-4.3,4.4-4,7.3-3.8c8.5,0.7,14.9-3.4,21.5-8.1c20.5-14.6,41.7-28.2,61.3-43.9c11.8-9.4,23.5-18.9,34.8-28.9
		c22.6-19.8,45.5-39.3,56.9-68.4c1.4-3.5,2.9-6.9,3.2-10.7c7.4-23.9,7.8-47.5-2.2-70.8c-3.8-8.7-8.8-16.6-14.9-23.8
		c-3.9-4.4-8.2-8.4-12.2-12.7C438.8,153.5,435.5,151.6,436.4,147.4z"/>
	<path class="st10" d="M47.2,164.4c0,3.1,0,6.2,0,9.2c3.3,1.7,6-0.1,7-1.7c4.8-7.5,13.4-7.3,19.3-6.3c12.7,2.1,25.3,0.1,38,2.4
		c15.4,2.7,29.3-3.5,41.8-15.3c15.8-14.9,34.6-26.5,56.5-31.6c-0.5,5.2-5.2,6-8.6,7.4c-18.8,7.7-33.5,20.6-47.2,35
		c-12.1,12.8-18.8,28.5-23.8,45.1c-0.7,1.8-1.6,3.6-2.5,5.3c-3.6,9.4-5.6,19.3-7.4,29.1c-1.5,8.2-6.9,12.1-14.6,11.9
		c-18.8-0.5-37.5,1.6-56.3-0.7c-8.8-1.1-14-4.9-16.3-13.1c-7.5-27-1.1-52,11.4-76C45.3,164.1,46.3,164.3,47.2,164.4z"/>
	<path class="st13" d="M47.2,164.4c-12.1,22-17.2,45.2-13.2,70.2c2,12.6,5.9,15.1,18,17c17.6,2.7,35.1-0.8,52.7,1.1
		c6.3,0.6,12.5-1.7,13.6-10.7c1.2-10.4,3.2-20.9,8.3-30.3c2,1.9,2.6,4.4,2.1,6.8c-2.5,12.6-0.8,25.4-1.4,38
		c0.7,18,7.5,33.8,17.6,48.3c2.6,3.8,5.9,7.3,7.9,11.5c0.2,4,6.9,6.3,3.1,11.4c-1.3,0.3-2.7,0.5-3.6-0.3
		c-18.9-15-41.5-14.2-63.3-12.7c-19.8,1.4-32.1-6.6-41.4-22.6c-3-5.1-5.7-10.4-9.8-14.8c-3.5-5.5-5.3-11.6-6.3-17.9
		c-3.2-13.8-4.4-27.7-3.9-41.9c0.2-5.4,0.6-10.6,2.7-15.5c1.8-19.6,10.4-36.6,21-52.7c1.4,0.8,1.6,2.2,1.7,3.7
		C49.8,156.2,48,160.1,47.2,164.4z"/>
	<path class="st14" d="M101.9,105.4c72.4-62.6,281.4-75.3,370.8,0.1c-56-38.5-119.6-49.2-185.3-48.3
		C222.1,58,158.2,67.6,101.9,105.4z"/>
	<path class="st15" d="M228.6,117.1c23.9-7.5,48.5-8.1,73.3-7.8c28.6,0.3,56.6,3.4,83.6,13.4c0.4,2.2-1.1,3-2.8,3.6
		c-4.2,0.9-8.1-0.5-12-1.5c-41.7-10.4-83.8-11.6-126.2-5c-4.3,0.7-8.6,2-13.1,0.9C229.8,120.1,228.3,119.3,228.6,117.1z"/>
	<path class="st16" d="M531,164.4c-8.4-14-16.7-28.1-28.6-39.6c-0.5-1.3-1-2.6-1.6-3.9c9.3-0.7,12,7.7,16.5,12.8
		c14.5,16.2,23.9,35.6,32.6,55.3c-0.3,7,3.4,12.7,5.7,18.9c0.4,8.7-0.9,17.5,1.7,26.2c0.7,2.5,1,5.7-1.7,7.8
		c-5.8-1.3-4.3-6.2-4.3-9.8c0-8.8-0.4-17.6-2.7-26.1C544.2,191.5,540.3,176.8,531,164.4z"/>
	<path class="st17" d="M228.6,117.1c0.8,0.7,1.5,1.5,2.3,2.2c-0.3,3.3-3.2,3.6-5.4,4.3c-25.4,7.4-47.9,19.8-66.4,38.9
		c-1.1,1.1-2.4,2-4,2.4c-1.6-0.1-2.7-0.7-2.2-2.6c11.9-14.4,25.9-26,43.1-33.7c4.8-2.2,10-3.8,14-7.6
		C216.4,121,221.9,116.2,228.6,117.1z"/>
	<path class="st18" d="M383.5,124.9c0.7-0.7,1.4-1.4,2.1-2.1c19,4,35,14.3,50.9,24.7c5.8,6.2,11.5,12.5,17.3,18.7
		c0.4,1.9-0.7,2.4-2.3,2.5c-5.4-2.3-8.6-7.2-12.8-10.8c-14.3-12-30-21.3-47.6-27.4C388.1,129.5,383.9,129.5,383.5,124.9z"/>
	<path class="st19" d="M517.8,342c-19.9,24.8-43.9,45.1-69.3,63.9c-10.7,7.9-20.1,17.8-32.7,23.1c-0.6-0.7-0.9-1.5-0.9-2.4
		c5.4-8.4,14.7-12.3,22-18.6c3.3-2.8,6.9-5.4,9.9-8.6c12.7-11.6,26.6-21.7,39.2-33.4c16.1-14.9,29.2-32.4,42.2-50
		c1.7-0.9,3.4-1.6,5.2-0.4C531.6,326.5,523,333.2,517.8,342z"/>
	<path class="st20" d="M415.7,427c0,0.7,0,1.3,0,2c-13.7,12.9-29.7,22.8-45,33.7c-29.6,21.1-59.5,41.8-89.2,62.7
		c-3.2,1.3-6.3,2.5-9.5,3.8c-1.1-4.5,2.5-5.9,5.2-7.8c14.5-9.6,28.3-20.2,42.9-29.7c29-21,58.4-41.3,87.2-62.5
		C409.8,427.4,412.2,424.5,415.7,427z"/>
	<path class="st16" d="M517.8,342c3.1-9.9,12.6-16.2,15.1-26.5c-2.2-8.9,4.8-14.7,7.5-21.9c3.9-4.8,5.3-10.5,5.2-16.6
		c0.1-3,0.7-5.9,2.3-8.5c2.5-4.8,3.1-9.9,3.4-15.2c0.2-3-0.8-7.2,4.3-7.7c1.5,27.9-9.5,52.1-22.2,75.8c-1.6,3-3.9,5.6-4.3,9.2
		C523.7,332.8,523.2,339.9,517.8,342z"/>
	<path class="st21" d="M202.3,432.7c-5.3-7.3-14.4-6.4-21.6-8.9c-29.1-10.4-57-22.7-81.6-41.6c-23.2-17.9-44.5-37.6-57.5-64.6
		c3.4-1.2,5.2,1.5,7.4,3.2c13.4,18.7,28.3,36.1,46.3,50.5c38,30.2,81.8,47.4,128.8,57.3c13.2,2.8,26,6.3,30.7,21.4
		c0,3.7-1,6.9-4.9,8.3c-3.6,0-4.7-2.3-5.2-5.3c-0.6-3.4-1.8-6.6-4.7-8.8C229.1,434.6,214.9,436.3,202.3,432.7z"/>
	<path class="st22" d="M240,444.1c3.7,0.2,5.6,2.2,5.6,5.8c0,3.3,0.7,6.1,4,7.5c2.3,3.5,0.4,6.8-0.9,9.8
		c-7.6,17.3-14.2,35-21.6,52.3c-2.9,4.5-1.5,8.8,0.7,13.1c1.5,5.7,5.7,7.1,11.1,7.4c4.8,0.3,9.6-2.4,14.3,0.4
		c-7.3,6.2-18.2,8.1-25,3.4c-7.7-5.3-9.9-13.6-8.7-22.4c1.7-12.5,8.3-23.5,12.6-35.2c1.8-5,4.1-9.8,6.3-14.7
		C242.6,462.7,245.5,453.7,240,444.1z"/>
	<path class="st23" d="M253.3,540.5c-5.9,2-12.1,2.5-18.2,1.7c-4.9-0.6-10-2-8.3-9.1c1-1.2,2.3-1.4,3.8-1.2c9,6.3,17.6,4.6,26.3-0.9
		c16.8-10.5,32.8-22.1,49-33.4c3.6-2.5,7-5.4,11.6-6c1.5,0,2.8,0.4,3.8,1.5c-14.4,10.1-28.8,20.2-43.3,30.1
		c-2.3,1.6-4.6,3.2-5.9,5.8C265.8,532.9,259.5,536.7,253.3,540.5z"/>
	<path class="st19" d="M555.6,245.7c-4.1,7.7,0.1,17.3-5.7,24.5c-3-3.1-2.7-6.9-2.2-10.6c2.2-15,2.3-29.9,0-44.9
		c-0.6-3.7-0.8-7.6,2.3-10.6c3.8,7.7,3.7,16,3.9,24.4c0.1,4.5-1.8,9.4,1.8,13.4C555.6,243.1,555.6,244.4,555.6,245.7z"/>
	<path class="st24" d="M47.2,321.3c-1.9-1.3-3.8-2.5-5.6-3.8c-16.9-28.5-23.5-59.4-20.4-92.1c0.6-6.5-2.5-15.6,7-19.4
		c1.7,12.7-0.9,25.5,0.4,38.2c-2.6,15.3,1.2,29.6,6.6,43.6c1.9,4.9,4.7,9.3,6.3,14.4c0.7,3.6,2.3,6.9,4.2,10
		C47.4,314.9,49.8,317.7,47.2,321.3z"/>
	<path class="st25" d="M26.6,245.3c0-13.2-0.6-26.3,1.6-39.4c0.7-1.3,1.4-2.6,2.1-3.9c-0.1,19.7-0.9,39.4,3.7,58.7
		c-3,0.7-3.9-1.8-5.4-3.5C25,253.8,28.5,249.1,26.6,245.3z"/>
	<path class="st26" d="M412,343.9c-31,28-65.6,51.3-99.4,75.5c-8.1,5.8-16.7,5.8-27.6,5.9c8.5,8.9,16,5.6,22.3,1.4
		c20.6-13.7,40.9-28,61.2-42.2c1.8-1.3,3.3-2.9,5.7-2.9c14.2-12,30.1-17,48.8-14.1c10.5,1.6,20.5-2.6,29.4-8.1
		c8.8-5.5,17.7-10.8,25.5-17.6c1.9-1.7,4-3.1,6.8-2.6c3.3,7.5-4.9,8.8-7.2,13.3c-13.1,13.5-28.8,23.8-43.3,35.6
		c-2.2,1.8-4.7,3.1-7.4,3.8c-19.5,10.8-37.4,24.1-57.5,33.9c-7.6,3.7-14.8,5.5-23.4,4c-9.7-1.7-19.2,1.7-28.7,3.5
		c-4.9,1-9.7,2.7-14.6,3.4c-11.6,1.6-22.9-0.5-29.8-10c-10.9-14.9-26.6-14.5-42-16.1c-3.7-0.4-7.5,0-11.3,0
		c-24.7-3.8-47.7-12.8-70.4-22.7c-8.3-3.6-16.5-7.7-24.3-12.4c-3.4-2.1-8.5-3.4-7.7-9.3c2.5-1.6,4.9-0.7,7.1,0.5
		c16.5,9.6,34.8,14.4,52.5,20.7c14.2,5.1,29.3,3,43.9,3.7c18.2,0.9,36.4-1.1,54.6-0.1c8.6,0.5,13.7-2.2,17.8-9
		c2.1-3.5,4.4-6.9,6.6-10.3c1.1-4.4-5.7-2.8-5.2-6.7c1-1.8,2.8-2.4,4.7-2.7c4-0.2,8.1-0.9,11.2,2.7c-2.2,12.4-10.1,22.5-14.3,34.1
		c-2.2,6.1-6.1,11.8-3.5,18.7c4.5,4.6,8.4,0.7,11.7-1.5c29.1-19.8,58.2-39.6,85.5-61.9c6.6-5.4,11.7-13.3,20.9-15.2
		C412.8,340.4,413.5,341.9,412,343.9z"/>
	<path class="st27" d="M485.8,340.2c-10.3,6.8-20.6,13.6-30.8,20.4c-9.3,6.2-19.5,11-30.5,9.5c-17.2-2.3-32.6,0.5-46.7,10.7
		c-0.9,0.7-2.4,0.6-3.6,0.9c4.7-7.8,13.1-11.4,19.9-16.8c19.2-15.4,37.2-32.3,56-48.2c13.5-11.4,27.8-11.3,43.1-10.1
		c8.3,0.6,13.8-2.1,19.3-8.2c6.9-7.6,11.8-16.7,18.5-24.4c2.9,4.5-1.1,7.8-2.1,11.7c-7.5,19.8-20.3,35.9-35.2,50.6
		C491.6,338.3,489.6,341.2,485.8,340.2z"/>
	<path class="st28" d="M549.9,204.1c2.6,22,2.6,44.1,0,66.1c-2.7,2-1.6,5-1.9,7.6c-1.8,5.7-3.2,11.5-5.7,17
		c-3.2,6.9-7.4,13.3-9.5,20.8c-1.3,0.6-2.5,1.3-3.8,1.9c-2.8-4,0.3-7.2,1.8-10.4c1.7-3.7,3.3-7.5,4-11.5c8.9-22.9,12.6-46.5,10.7-71
		c-0.3-3.1-0.2-6.3-1.8-9.1c-0.7-5.6-3-10.9-2-16.7c-1.8-12-7-22.9-10.7-34.3C543.8,174.5,545.9,189.8,549.9,204.1z"/>
	<path class="st29" d="M412,343.9c0-1.5-0.4-2.9-1.9-3.7c-0.7-4,3-5.1,5-7.2c13.9-14.7,30-27.5,40.8-45c5.6-7.6,7-17.6,14-24.3
		c1-0.1,1.8,0.2,2.5,0.8c-3.6,15.1-11.3,28.2-20.6,40.2C440.4,319.6,425.7,331.3,412,343.9z"/>
	<path class="st30" d="M472.4,264.6c-0.8,0-1.6-0.1-2.4-0.1c-2.9-6,0.5-11.5,1.1-17.3c0.3-3.4,0.5-6.8,0.5-10.3
		c0.9-21.9-3.1-42.4-16.8-60.3c-1.8-2.3-4.4-4.7-2.8-8.3c0.6-0.7,1.1-1.4,1.7-2.1c15.2,15.3,22.1,34.3,24.3,55.2
		C479.6,236.1,476.8,250.5,472.4,264.6z"/>
	<path class="st31" d="M541.7,198.7c0.9,5.6,1.8,11.1,2.7,16.7c3.9,12.9,1.3,25.8-0.5,38.6c-0.6,4.3-1.9,8.5-3.1,12.7
		c-2.6,5.9-3.1,12.8-8,17.6c-1.7,1.1-3.5,2-5.6,1c1.2-3.8,2.5-7.6,3.7-11.3c7.7-21.4,12.2-43.3,9.6-66.3
		C540.3,204.7,539.6,201.5,541.7,198.7z"/>
	<path class="st32" d="M152.8,162.3c0.6,0.7,1.2,1.4,1.7,2.1c1.1,1.5,0.6,3.1-0.4,4.3c-9,11.7-15.1,25-20.1,38.8
		c-0.4,1.2-1.4,2-2.6,2.6c-1.7,0.2-2.5-1-3.1-2.3C133.1,190.8,139.7,174.8,152.8,162.3z"/>
	<path class="st33" d="M128.5,207.9c0.7,0.8,1.4,1.6,2.2,2.4c3.5,6.9-0.3,13.7-0.3,20.5c-1.7,7.4-1.1,14.8,0,22.2
		c0.6,4.3,1.5,8.6-0.8,12.8c-7,1.4-1.9-5.5-4.7-6.9c-0.1-15.8-0.6-31.5,1.9-47.2C127.3,210.4,127.9,209.1,128.5,207.9z"/>
	<path class="st34" d="M39.6,275.9c6.5,9.1,13,18.3,19.5,27.4c4.1,5.8,9.4,8.4,16.8,8.6c16.5,0.5,33.2,1.4,49.6,1.7
		c14,0.3,20.5,10.4,31.4,13.2c3.2-1.1,5.6,0.8,7.8,2.4c27.6,19.7,59.1,28.8,91.9,34.6c3.5,0.6,8-0.3,8.8,5.1
		c-2.2,5.2-6.6,5.2-11.1,4.7c-35.4-3.7-70.9-3.3-106.4-2.4c-14.8,0.4-26.9-5.1-38.9-12.2c-8.6-5.1-16.5-11.5-25.4-16.3
		c-10.4-5.5-16.5-15.4-23.5-24.1c-7.9-9.7-14.2-20.8-19.6-32.2C39,283.1,36.6,279.7,39.6,275.9z"/>
	<path class="st35" d="M39.6,275.9c4.1,16.8,14.2,30.5,24.4,43.8c5.6,7.4,11,15.2,19.1,20.4c11,9.3,23.6,16.4,33.9,26.5
		c13.1,11.6,29.3,17.7,45.1,24.2c18.4,7.6,37.1,14.6,57.1,17.4c9.4,1.6,18.9,2.6,28.3,3.7c5.3,0.6,10.5,1.3,14.7,5
		c6,5.3,5.8,11.8-0.5,18.2c-2.6-14.1-13.5-14.1-24.7-15.9c-49.7-8-95.9-25.2-137-55c-0.5-0.4-1.1-0.6-1.7-0.8
		c-19.5-14.8-35.2-33-48.9-53.1c-6.7-11.2-12.7-22.7-17.3-34.9c-1.1-6.1-6.2-11.7-2-18.3c1.3,1.3,2.6,2.6,3.9,3.8
		C35.5,266,36.5,271.4,39.6,275.9z"/>
	<path class="st36" d="M264.6,368.5c-14.1-3.3-28.3-6.6-42.4-9.9c-24.1-5.7-45.2-17.7-65.3-31.7c-1.4-3.5-5.9-5-5.7-9.4
		c0.9-0.6,1.8-0.7,2.9-0.4c15.7,11.5,31.9,22.2,50.3,29.2c22.5,8.6,45.8,13,69.5,16c7.1,0.9,14.4,0.6,20.9,4.2
		c3.5,0.3,7.5-0.5,9.4,3.8C290.7,375.9,277.6,373.2,264.6,368.5z"/>
	<path class="st34" d="M153,317.6c-0.6,0-1.2-0.1-1.9-0.1c-10.5-12.9-18.9-26.9-23.5-43.1c-1.5-5.1-3.6-10-2.9-15.5
		c3,1.6,0.6,6.3,4.3,7.6c5.4,2.5,3.4,8.8,6.3,12.6c4.3,12,11.6,22.2,19.9,31.7c0.4,0.8,0.6,1.7,0.6,2.6
		C155.5,315.1,154.7,316.6,153,317.6z"/>
	<path class="st37" d="M128.3,230c-0.8-6.8,2.2-13.1,2.4-19.7c5.7-16.4,13-32,23.9-45.8c20.3-23.7,47.1-36.6,76.4-45.1
		c34.4-7,69-7.9,103.9-4.1c16.5,1.8,32.5,6,48.7,9.6c26,9.6,50.1,22.1,68.6,43.4c15.7,19.9,24.3,42.2,22.1,67.9
		c-32.7-5.9-65.7-1.6-98.6-2.8c-9.1-0.3-18.3,0.5-27.4-0.2c-12.5-0.9-20.2,4.9-25.4,15.6c-1.9,4-3.1,8.3-5.6,11.9
		c-1.5,2.2-3,6.6-6.8,2c-1.7-19.7,14.1-43.3,34-51c11.5-3.6,23.4-2.5,35.2-2.4c2.4,0,4.9,1.2,7.2-0.4c8.5-11.5,13-25.2,21-36.9
		c1.2-2.1,3.4-3.9,1.2-6.6c-19.7-4.8-38.5-2.9-56,7.7c-7,4-13.3,8.9-19.2,14.5c-2.2,2-5.3,6.8-8.5,0.6c-0.5-6.3,3.1-12,2.7-18.3
		c-0.5-1.8-1.7-2.6-3.4-2.6c-21.5,0.2-43-1.6-64.4,1c-4.9,8.5-5.5,18.4-8.6,27.5c-2.3,8.8-4.8,17.5-7.3,26.2
		c-1.1,3.8-1.8,8.1-6,10.2c-4.9,1.7-9.9,1.2-14.9,1.3c-30.1,0.7-60.2-1.4-90.3,1.2C130,235,126.6,235.2,128.3,230z"/>
	<path class="st38" d="M321.2,493.2c-1.3,0-2.5,0-3.8,0c-1-3.6,1.9-5,4.1-6.6c27.1-18.5,53.5-38.1,80.3-57.1
		c11.4-7.6,21.9-16.4,32.8-24.6c2.9-2.2,5.6-5.1,9.5-5.7c1.5-0.1,2.8,0.3,3.8,1.4c-8.9,11.1-22.1,16.8-32.2,26.4
		c-11.5,5.7-21,14.5-31.5,21.7C363,463.3,342.2,478.4,321.2,493.2z"/>
	<path class="st39" d="M447.9,400.6c-1.3,0-2.5,0-3.8,0c-1-4.6,3.1-5.7,5.5-7.7c8.8-7,17.3-14.4,25.6-21.9
		c22.2-20.6,43-42.3,56.2-70.1c1-2.1,1.9-4.9,5.4-4.1c0.2,7.9-6.6,13.3-7.6,20.8C508.3,351.3,478.9,376.8,447.9,400.6z"/>
	<path class="st19" d="M542.4,294.8c0.7-6.1,2.3-11.8,5.7-17C548.1,284.1,546.7,289.9,542.4,294.8z"/>
	<path class="st40" d="M260.9,434.8c6.7-10.8,1.9-19.9-11.1-20.9c-10.4-0.8-20.8-1.9-30.6-5.7c10.4-0.9,20.6,0.9,30.8,2.1
		c8.5,1,15.3,4.2,21,11.8c11.2,14.7,26.6,14.7,43.2,9.8c12.6-3.7,25.7-7.4,39.2-3.2c3.7,1.1,6.6-1.2,9.7-2.7
		c20.8-9.7,39.7-22.4,59-34.6c1.5-1,3.4-1.4,5.1-2c0.7,4.4-2.7,6-5.4,8C387,422.5,352.4,448,316.7,472
		c-24.8,16.6-48.9,34.2-73.7,50.7c-2.1,1.4-4.1,2.9-6.4,4c-7.5,3.4-10,1.9-11.6-7.1c8.2-20.7,16.5-41.4,24.7-62.1
		c2.1-2.1,3.3-4.7,3.6-7.6c1.2-2.9,1-6.2,2.4-9.1c0.6-1.5,1.3-2.9,2.2-4.3C258.6,435.5,259.6,434.8,260.9,434.8z"/>
	<path class="st41" d="M257.4,440.7c-0.5,3.5-1.7,6.6-4.2,9.1c-5.2-12.1-15.8-16.6-27.5-18.8c-49.5-9.5-95.1-28-134.4-59.9
		c-17.3-14-32.4-30.6-44.1-49.9c-0.4-7.1-8.4-11.3-7.5-18.9c5-0.7,5.8,3.6,7.6,6.6c4.1,6.5,7.2,13.7,12.9,19.1
		c42.7,55.7,102,82.5,168.5,96.6C240.2,427,250.3,430.9,257.4,440.7z"/>
	<path class="st42" d="M224.9,519.6c2.8,9.1,8.2,7.3,14,3.3c37.8-26.2,75.7-52.3,113.4-78.7c23.1-16.1,45.8-32.7,68.8-49.1
		c2.3-1.7,4.7-3.2,6.1-5.7c15.2-9,28.2-20.8,41.8-31.8c2.5-2,4.8-4,7.2-6.1c1.1-1.1,2.4-1.2,3.8-0.4c0.7,7-5.2,9.5-9.3,12.9
		c-36,30-74.5,56.7-112.6,84c-36,25.8-72.7,50.7-109.1,76c-2.1,1.3-4.3,2.6-6.3,4.1c-0.7,0.5-1.4,0.9-2.1,1.3
		c-3.1,1.9-6.2,4.1-10.2,3.5c-1.3,0.1-2.5,0.2-3.8,0.3C221.1,529.3,222,524.6,224.9,519.6z"/>
	<path class="st43" d="M230.5,532.8c3.1-1.8,6.2-3.5,9.3-5.3c7.1,5.5,13.2,1.2,18.9-2.4c16.9-10.8,33-22.7,49.3-34.3
		c4.8-3.5,9.8-6.7,14.6-10.2c21.8-14.7,43.1-30.1,64.4-45.6c5.1-3.7,9.5-9.5,17-8.5c1.8,2.3-0.2,3.2-1.6,4.4
		c-25.5,20.5-52.8,38.6-79.5,57.5c-2,1.4-4.6,2.2-5.5,4.8c-15.2,10.4-30.1,21-45.6,31c-8.3,5.3-15.8,12.4-26,14
		C239.9,539.1,233.8,539.8,230.5,532.8z"/>
	<path class="st44" d="M58.6,328.8c-6.8-4.4-8.7-12.3-13-18.5c-1.9-2.7-2.3-6.4-5.9-7.9c-1.8-4.5-5-8.3-5.7-13.2
		c-0.4-4.5-6.2-9,0.1-13.5c5.6,11.3,11.3,22.7,16.9,34c0.9,4.4,4.1,7.7,6,11.6C58.4,323.7,60.9,325.8,58.6,328.8z"/>
	<path class="st45" d="M34.1,275.7c-3.3,4.5,1,9-0.1,13.5c-6.9-13.8-11.1-28.1-7.5-43.8c3.1,3.3,0.9,8.2,3.5,11.6
		C29.7,263.6,33.8,269.2,34.1,275.7z"/>
	<path class="st46" d="M154.5,313.8c0.1-0.5,0.2-1.1,0.2-1.6c-0.3-4.8,3.6-6.1,6.7-6.2c17.8-0.7,35.7-2.8,53.4,1.4
		c4.1,1.6,3.7,5.3,4,8.7c0.3,0.8,0.7,1.6,1.1,2.3c1,1,2.1,1.7,3.6,1.9c22.6,0,45.1,0.9,67.7-0.6c5.7-3.5,6.3-9.9,8.5-15.3
		c7.7-19,11.9-22,32.2-22c36,0,72.1-0.1,108.1,0.1c6.4,0,13.5-0.8,17.3,6.5c-12,20.5-30.7,34.8-47.3,51
		C378,368.5,343,393,307.6,416.9c-3.1,2.1-6.3,4-9.7,5.5c-3.1,1.3-6.3,1.6-7.1-3c-2.4-6,1.1-10.8,3.1-15.9
		c4.9-12.6,12.3-24.1,16.1-37.1c-3.1-3.7-7.1-1.9-10.8-2c-36.7-1.1-72.4-7.2-106-22.6c-12.2-5.6-23.8-12.4-34-21.4
		C157.2,318.6,154.7,317.1,154.5,313.8z"/>
	<path class="st29" d="M264.6,368.5c13.3-0.2,26.3,3.3,39.7,1.9c-2.6,3.9-6,7.5-7.6,11.7c-5.8,15.6-19.4,11.8-30.5,11.8
		c-11,0-22,0.8-33,0.7c-29.4-0.5-58.8-1.4-86.4-14.6c-9.8-4.6-19.5-9.7-29.8-13.3c-13-6.6-24.1-15.7-33.9-26.5
		c9.5,3.5,17.1,10.2,25.3,15.7c15.2,10.1,30.9,13.3,49.6,12.1c17-1.1,34.7,0.2,52,0.6c16.1,0.4,32.2,0.6,48.2,3.3
		C260.6,372.3,263,370.6,264.6,368.5z"/>
	<path class="st29" d="M154.5,313.8c34.8,31.4,77.5,42.6,122.6,47.7c7.3,0.8,15-0.2,22.1,3c-1.7,0.2-3.4,0.3-4.4,2
		c-49.1-3.4-96.5-12.2-136.6-43.7c-1.9-1.5-3.5-3.5-5.2-5.3C153.5,316.3,154,315.1,154.5,313.8z"/>
	<path class="st47" d="M479.9,351.4c-1.2,0.1-2.4,0.1-3.6,0.2c3.2-3.8,6.3-7.6,9.5-11.3c18-15.1,31.5-33.6,41.4-54.9
		c1.4-0.6,2.8-1.3,4.2-1.9c2.9,4.7-0.1,8.4-2.2,12.1c-4.7,8.4-9.7,16.7-15.5,24.4C503.4,331.4,492.8,342.6,479.9,351.4z"/>
	<path class="st48" d="M310.1,366.5c3.5,4.4-0.8,7.4-2.1,10.7c-5.7,14.1-14.2,27-17.1,42.2c-3.2-3.7-2.2-7.7-0.6-11.5
		C296.1,393.8,301.4,379.3,310.1,366.5z"/>
	<path class="st49" d="M536.7,296.7c-8.9,14.3-16.4,29.4-27.5,42.4c-10.2,12-21.3,22.8-33,33.2c-0.7,0.7-1.4,0.8-2.2,0.1
		c-0.8-3,1.3-5,2.6-7.3c5.7-7.3,12.3-13.8,19.6-19.6c17.3-16.6,28.5-37,37.3-58.9c2.4-6,5.2-11.9,5.1-18.6
		c3.4-17.4,6.5-34.8,5.9-52.6c7.9,5.7,4.3,14.7,4.3,21.3C548.8,257.3,545.4,277.7,536.7,296.7z"/>
	<path class="st50" d="M219.2,321.3c-0.6-0.7-1.2-1.3-1.8-2c3.3-3.3,7.6-2.5,11.5-2.5c17.2-0.1,34.4,0,51.5-0.1
		c3.4,0,6.9,0.5,10.1-1.1c6.1-10,7.4-21.6,11.1-32.4c2-5.9,3.7-11.8,5.7-17.7c0.7-2.1,0.8-5.2,4.5-4.6c1.3,4.7,2.2,0.9,2.7-0.3
		c3.4-7,5.7-14.5,10.4-20.9c4.4-6,9.5-9.3,17.3-9.3c39.5,0.2,79.1,0.3,118.6-0.1c5.8,0,9.2,3,13.3,5.8c1.2,9.8-2.3,18.9-4.2,28.3
		c-4.1,8.3-7.2,17.1-12.7,24.7c-5-3.1-10.3-3.9-16.1-3.8c-37.9,0.2-75.9,0.5-113.8-0.2c-11.6-0.2-18.3,4.1-22.5,14.1
		c-2.2,5.2-4.3,10.4-6.3,15.6c-1.2,3.2-2.1,6.6-5.6,8.3c-14.9-2.1-29.9-0.3-44.8-1C238.5,321.8,228.8,323.2,219.2,321.3z"/>
	<path class="st51" d="M538.5,268c0.7,2,2.3,3.9,1.6,6.2c-9,27.6-21.5,53.2-43.1,73.4c-1.1-1-1.5-2.3-1.4-3.8
		c3.5-9.6,13-15.3,16.4-25c6.7-11.7,16-21.9,19.4-35.4C535.5,279.1,534.9,272.6,538.5,268z"/>
	<path class="st52" d="M128.3,230c0.6,1,1.3,3,1.7,2.9c35.4-5.6,71.1-0.8,106.6-2.4c0.9,0,1.9,0,2.8,0c2.3,2,1,4.5,0.9,6.8
		c-3.1,11.3-6.7,22.5-9.3,34c-0.9,3.2-2,6.3-4.9,8.3c-3.2,1.8-6.7,1.1-10.1,1.1c-25,0.1-49.9-0.5-74.9,0.3c-2.5,0.1-5,0.2-7.2-1.3
		c-4.5-3.4-1.9-9.4-4.9-13.3C128.4,254.3,124.5,242.2,128.3,230z"/>
	<path class="st53" d="M58.6,328.8c-1.4-6.8-8.3-11.5-7.5-19.2c13.8,18.8,29.3,36,47,51.3c38.4,31.8,83.3,49,131.5,58.8
		c7.7,1.6,15.4,3.4,22.2,7.5c3.6,2.2,8,4.1,7.3,9.6c0,1.5-0.2,3-1.6,3.9c-5.5-0.6-7.9-5.8-12.2-8.4c-8.1-4.8-17.3-5-26.1-7.1
		c-43.6-10.6-84.7-26.7-120.4-54.7C83.4,358.5,69.4,345.2,58.6,328.8z"/>
	<path class="st54" d="M259,436.9c-7.7-11.4-20.4-12.9-32.2-15.2c-42.3-8.4-81.6-23.9-117-48.6c-4.5-3.2-7.9-8-11.8-12.1
		c8,2.5,13.5,8.8,20.5,12.9c39.9,23.6,82.7,38.7,128.9,43.9c13.7,1.5,15.3,3.6,13.5,17C260.3,435.5,259.7,436.2,259,436.9z"/>
	<path class="st55" d="M133.9,279.8c6-2.2,12.2-2,18.5-2c24.6,0,49.3,0,73.9,0c3.6,8.2-2.4,15-3.4,22.5c-1.7,3.4-1.1,8.1-5.8,9.7
		c-17.7-3.6-35.6-1.2-53.4-1.8c-3.6-0.1-6.8,1.1-9,4.1C144.9,303.2,137.9,292.5,133.9,279.8z"/>
	<path class="st56" d="M331.1,170.4c-0.6,6.4-2.4,12.6-4.4,18.6c1,7.4,5,3.3,7.4,1.5c7.8-6.1,15.7-12.2,24.3-17.4
		c8.5-5.2,17.9-7.9,27.7-7.4c9.3,0.5,18.4-2,27.6-1.2c0.1,3.1-1.5,5.3-3.6,7.4c-7.2,7.2-10.4,16.8-15.1,25.5
		c-6.9,12.6-8.7,13.9-22.7,11.9c-8.8-1.3-17.3,1.2-26,1.3c-28.2,12-58.3,5.5-87.4,8.7c-9.2,1-12.6-3.4-10.8-12.6
		c0.8-3.9,2.7-7.7,1.7-11.9c2.5-9.4,5.1-18.8,7.6-28.2c15.8,4,31.9,2.4,47.9,2.6c7.2,0.1,14.4,0.5,21.3-2.3
		C329.7,165.6,332.4,165.6,331.1,170.4z"/>
	<path class="st57" d="M249.8,194.8c3.5,4.2,0.3,8.3-0.2,12.5c-0.7,6.1,0.5,11.5,8.2,9.8c14.6-3.2,29.4-1.4,44.1-1.4
		c12.1,0,23.7-0.9,34.9-5.7c3.4-1.5,7.1-2.7,11-2.1c0.6,0.8,0.6,1.6,0.1,2.4c-1.8,1.5-4.1,1.9-6.1,2.9c-10,3.3-16.9,10.2-21.9,19.1
		c-2.8,4.9-4.5,10.3-8.5,14.5c-4.1,4.8-9.3,7.1-15.7,7.2c-16,0.3-31.9-0.7-47.9,0.9c-7.1,0.7-9.9-3-9.7-10.5
		c0.1-2.8,1.8-5.5,0.3-8.3c0.3-1.9,0.7-3.9,1-5.8C242.8,218.6,246.3,206.7,249.8,194.8z"/>
	<path class="st58" d="M311.8,243.8c5.3-11.5,10.9-22.7,22.4-29.5c2.5-1.5,4.8-3,7.8-2.7c0.8,0.7,2,0.9,2.2,2.1
		c-21,8.8-28.3,26.9-32.4,47.2c-6.9,18.4-12.1,37.2-17.2,56.2c-0.8,1-1.7,1.2-2.8,0.6c-24.3-0.5-48.6-0.3-72.9-0.1
		c-0.5,0.1-1.1,0.2-1.6,0.3c-4.1-2.5,1.1-5.4-0.3-8c1.3-3.3,2.5-6.5,3.8-9.8c3.2,7.9,9.4,9.5,17.3,9.2c13.4-0.5,26.9-0.2,40.3-0.1
		c6.9,0.1,11.3-2.5,13.3-9.3c1.9-6.6,4.8-12.9,6.1-19.7C301.8,267.8,305.2,255.2,311.8,243.8z"/>
	<path class="st59" d="M331.1,170.4c-0.6-1-1.3-1.9-1.9-2.9c-7.5,7.6-17,3.9-25.7,4.4c-9.6,0.5-19.3,0-29,0.2
		c-6.4,0.1-12.7,0.4-17.1-5.5c1.1-2.8,3.6-2.1,5.6-2.1c21.1,0,42.2,0,63.3,0C330.4,164.4,334.8,164.1,331.1,170.4z"/>
	<path class="st60" d="M413.7,164.5c-10.5,5.1-21.7,3.2-32.7,3.8c-8.5,0.5-16.1,4.1-23.8,7.4c-4.2,2.1-5.2-0.6-5.8-3.9
		C370.9,158.9,391.8,157.5,413.7,164.5z"/>
	<path class="st61" d="M351.4,171.9c2.1,1.1,2.8,4.1,5.8,3.9c-7.8,6-15.5,12.2-23.4,18.1c-2.1,1.5-4.8,3.9-7.5,1.6
		c-2.2-1.8-1.7-4.4,0.3-6.5c4,2.6,4.6-1.9,6.1-3.4C338.4,180.2,344.2,175.2,351.4,171.9z"/>
	<path class="st58" d="M347.6,209.7c0-0.6,0.1-1.2,0.1-1.8c10.5,0,20.9-2.7,31.5-0.3c8.3,1.9,11.2-5.2,14.4-10.7
		c4.4-7.5,8.3-15.3,12.6-22.9c0.8-1.4,1.2-4,3.9-2.2c-6.9,12.7-13.7,25.3-20.6,38C375.6,211.3,361.6,211.3,347.6,209.7z"/>
	<path class="st62" d="M347.6,209.7c14,0,27.9,0.1,41.9,0.1c-0.1,2.9-1.5,3.5-4.3,3.1c-13.7-2-27.4-1.4-41,0.8
		c-0.7-0.7-1.5-1.4-2.2-2.1C343.9,211,345.8,210.3,347.6,209.7z"/>
	<path class="st63" d="M474.3,372.3c0.6,0,1.3,0,1.9,0c-9.3,11-21.8,18.4-32.2,28.3c-14.1,9.8-26.4,22-41.6,30.3
		c0.6-1.3,1.2-2.6,1.9-3.9c-0.7-5.2,3.8-6.6,6.8-9c18.2-14.3,37.4-27.4,54.7-42.8C468.6,373.9,470.7,371,474.3,372.3z"/>
	<path class="st64" d="M512.1,318.9c-0.7,10.9-10.1,16.6-15,25c-6.3,8.7-15.4,14.8-21.7,23.5c-0.9,1-1.9,1.9-3,2.6
		c-38.2,32.5-79.7,60.7-120.2,90.2c-10.6,7.7-21.6,14.8-32.1,22.7c-18.4,11.6-35.4,25.3-54,36.8c-5.9,3.2-11.3,9.1-18.9,3.6
		c27.4-19.3,55-38.5,82.3-57.9c47.6-33.8,95.6-66.9,140.8-103.9c3.6-2.9,7.6-5.7,9.5-10.2C490.6,340.5,501.3,329.7,512.1,318.9z"/>
	<path class="st65" d="M266.5,517.8c17.3-12.4,34.3-25.3,52.8-35.9c1.3-1,2.6-1.2,3.9,0.1c-21.5,17-44,32.9-67.3,47.3
		c-4.2,2.6-11.9,9-16.1-1.7c0.5-0.3,1.1-0.4,1.7-0.4C250.4,525.6,259.6,524.9,266.5,517.8z"/>
	<path class="st66" d="M266.5,517.8c-6.5,8-14.5,11.9-24.9,9.3c1.4-2.1,3.2-3.4,5.7-3.8C254.8,525.5,260.1,519.7,266.5,517.8z"/>
	<path class="st67" d="M323.2,481.9c-1.3,0-2.6,0-3.9-0.1c14.2-12.3,30.3-21.9,45.3-33c34.6-25.6,70.6-49.4,102.9-78
		c1.3-1.2,3.3-1.6,4.9-2.4c0.7,4.5-3.4,5.4-5.6,7.7C455,389.9,439,398.5,425.5,410c-6.9,5.9-15.3,9.8-21.1,17
		c-14.2,6.2-25,17.4-37.8,25.7C352,462.2,338.8,473.8,323.2,481.9z"/>
	<path class="st68" d="M292.9,317.1c0.6,0.2,1.2,0.2,1.8,0c-2.2,3.4-5.6,2.2-8.6,2.2c-22.9,0.1-45.8,0-68.7,0c0-0.5,0-0.9,0.1-1.4
		c0,0-0.2-0.6-0.2-0.6C242.5,316,267.7,316.3,292.9,317.1z"/>
	<path class="st55" d="M219.2,321.3c21.3,0,42.6-0.1,64,0c3.3,0,7-1.2,9.8,1.8c-21.6,0-43.3,0.1-64.9,0
		C225,323.1,221.7,324.2,219.2,321.3z"/>
	<path class="st67" d="M474.3,366.6c6.9-8.2,14.4-15.9,22.7-22.7c0,1.3,0,2.5,0,3.8c-7,5.6-13.3,11.9-18.9,18.9
		C476.8,367.6,475.5,367.8,474.3,366.6z"/>
	<path class="st51" d="M474.3,366.6c1.3,0,2.6,0,3.8,0c-1.3,1.9-2.5,3.8-3.8,5.7c-2.6,1.1-4.3,4-7.5,3.9c1.9-2.6,3.8-5.1,5.6-7.7
		C473,367.8,473.6,367.2,474.3,366.6z"/>
	<path class="st69" d="M311.8,243.8c-1.9,12.6-8.1,23.7-11.4,35.9c-4.2,9.1-11.6,12.4-21.3,12.3c-12.2-0.2-24.4,0.1-36.6-0.1
		c-14.2-0.1-16.5-3-13.5-17c0.3-1.6,0.7-3-0.1-4.5c3.2-11.3,6.3-22.7,9.5-34c4.4,4.6-2.1,13.5,4.8,15.8c5.1,1.7,11.6-0.6,17.4-0.7
		c9.4-0.2,18.9-0.5,28.3,0.1C297.8,252.1,305.7,250.7,311.8,243.8z"/>
	<path class="st70" d="M228.9,270.3c0.5,1.1,1.5,2.2,1.5,3.3c-0.6,15.6-0.6,15.6,14.8,15.6c9.1,0,18.2-0.5,27.3,0.1
		c10.9,0.8,20.5-0.9,27.9-9.6c-1,9.4-5.3,17.9-8.1,26.9c-1.2,4-4.8,5.3-9,5.3c-18.2-0.1-36.4-0.2-54.6,0c-9.2,0.1-7.4-6.4-7.8-11.8
		c1.8-7.4,3.6-14.9,5.3-22.3C227.2,275.3,228,272.8,228.9,270.3z"/>
	<path class="st71" d="M292.9,317.1c-25.2,0.1-50.4,0.1-75.6,0.2c1.4-0.6,2.7-1.7,4.1-1.7c23.4-0.3,46.7-0.5,70.1-0.5
		C292,315,292.5,316.4,292.9,317.1z"/>
</g>
</svg>
