<?xml version="1.0" encoding="utf-8"?>
<!-- Generator: Adobe Illustrator 21.0.2, SVG Export Plug-In . SVG Version: 6.00 Build 0)  -->
<svg version="1.1" id="Laag_1" xmlns="http://www.w3.org/2000/svg" xmlns:xlink="http://www.w3.org/1999/xlink" x="0px" y="0px"
	 viewBox="0 0 566.9 566.9" style="enable-background:new 0 0 566.9 566.9;" xml:space="preserve">
<style type="text/css">
	.st0{fill:#5FA9DD;}
</style>
<g>
	<path class="st0" d="M174.5,418.4c-47.5-6.4-79.7-26.9-99.7-65.1c-5.3-10.1-6.7-17.2,9.3-13.8c9.3,1.9,18.6-1.3,29.7-4.8
		C69.2,318.2,39.4,290.3,30,244c-1.3-6.4-6-13.8-1.2-19c5.5-5.9,11.8,1.6,17.9,2.8c6.5,1.2,12.7,3.8,19.1,5.5c2,0.5,4.3,0.1,9.9,0.1
		c-24.5-23.5-41.6-48-46.5-80.1c-3.1-19.9,0.8-37.9,6.3-56.3c4.2-13.9,10.1-15.7,20.6-4.1c39,42.9,86.7,72.7,141.3,91.6
		c23,8,46.9,12.3,71.1,14.7c9,0.9,14.4,0.2,13.2-12.9c-4.4-49.2,14.6-87.8,57.6-112.9c41.6-24.2,84.3-22.8,122.6,5.3
		c19.1,14,34.6,14.8,54,5.7c11.3-5.3,23.1-9.6,36.5-15c-5.1,25.3-22.4,41.3-42.1,58.8c21.3-0.1,37.2-8.8,56-12.2
		c-9.1,19.5-23.8,32-38.2,44c-10.7,8.9-14.5,18-14.6,31.8c-1.1,135-86.1,258.8-212.6,305.6c-94.7,35-187.9,27.3-277.4-20.2
		c-4.2-2.3-9.9-3.6-11.1-9.4C70.3,469.7,124,457.5,174.5,418.4z"/>
</g>
</svg>
