<?xml version="1.0" encoding="utf-8"?>
<!-- Generator: Adobe Illustrator 21.0.2, SVG Export Plug-In . SVG Version: 6.00 Build 0)  -->
<svg version="1.1" id="Laag_1" xmlns="http://www.w3.org/2000/svg" xmlns:xlink="http://www.w3.org/1999/xlink" x="0px" y="0px"
	 viewBox="0 0 566.9 566.9" style="enable-background:new 0 0 566.9 566.9;" xml:space="preserve">
<style type="text/css">
	.st0{fill:#2BB0E5;}
	.st1{fill:#2DABE2;}
	.st2{fill:#2DAAE1;}
	.st3{fill:#2EB8EB;}
	.st4{fill:#36B3E3;}
	.st5{fill:#32A8D4;}
	.st6{fill:#3FA7CF;}
	.st7{fill:#28A9D9;}
	.st8{fill:#34A8CF;}
	.st9{fill:#23A2D1;}
	.st10{fill:#36A4C7;}
	.st11{fill:#38A4C1;}
	.st12{fill:#2EA4BE;}
	.st13{fill:#27A3C8;}
	.st14{fill:#30ACC9;}
	.st15{fill:#2FBCEE;}
	.st16{fill:#52C6F1;}
	.st17{fill:#53C8F2;}
	.st18{fill:#3EC2F1;}
	.st19{fill:#5DCBF2;}
	.st20{fill:#36BEEE;}
</style>
<g>
	<path class="st0" d="M136.8,201.7c-2.4-11.8,4.7-17.9,13.6-23.3c40.9-24.5,81.8-49,122.6-73.6c3.8-2.3,8.2-3.9,10.5-8.2
		c3.5,0,7,0,10.5,0c0.6,43.4,1.1,86.8,1.7,130.2c-1.6,1.3-3.3,1.2-5,0.1c-4.6-4.3-4.2-10.2-5.1-15.6c-1-6.6-4.1-9.9-10.9-10.4
		c-6-0.4-11.9-1.1-17.7,0.8c-12.7,4.2-25.6,3.4-38.5,1.8c-10.1-1.3-20.3-1.8-30.4-0.6c-10.6,1.3-20.7,2-31.1-1.5
		c-6.4-2.2-10.7,0.2-12,7.5c-0.7,3.9-1.1,8.6-6.3,9.8C135.7,213.4,139.1,207.2,136.8,201.7z"/>
	<path class="st1" d="M329.7,285.6c1.4,23.4-7.3,41.5-28.2,53c-5.2,2.9-5.9,6.9-6,12.2c-0.4,36.7-1,73.4-1.6,110
		c-0.2,10.4-3.7,12.8-12.6,7.5c-44.3-26.5-88.4-53.3-132.8-79.7c-9.1-5.4-12.6-12.6-12.4-23.3c0.5-27.2,0.1-54.5,0-81.8
		c1.1-0.9,2.2-1.6,3.5-2.2c3.7-1.4,7.6-1.2,11.4-1.2c53.9,0,107.8,0,161.7,0c4.2,0,8.4-0.2,12.5,1.2
		C327.4,282.2,328.6,283.8,329.7,285.6z"/>
	<path class="st1" d="M101,283.5c-0.2,26.6-0.3,53.2-0.5,79.9c-4,7.3-10.8,9.3-18.5,9.3c-16.7,0.1-33.5-0.3-50.2,0.2
		c-4.4,1-8.6-0.8-12.8-1.3c-4.5-1.4-8.7-3.2-10.2-8.3c-1.4-52.8-0.8-105.6-0.3-158.5c0-2.1-0.3-4.2,1.6-5.8c6.4,0.8,4.5,6,4.4,9.4
		c-0.4,8.5-1.1,17-0.9,25.6c0.5,8.8-0.1,17.6,0.2,26.4c0.2,19.8,0.2,19.5,20.3,19.9c21.3,0.4,42.6-1.5,63.8,1.1
		C98.9,282,100,282.7,101,283.5z"/>
	<path class="st2" d="M564.5,291.8c-5.5,7.5-13.9,3.7-20.9,5.6c-19-0.7-37.9-0.1-56.9-0.3c-1.4,0-2.7,0.2-3.6,1.4
		c-0.7,23-1.7,46.1-2,69.1c-0.1,9.1-2.7,14.7-12.9,15c-9.6,0.3-12.7-4.4-13.1-13.4c-0.4-7.6-1.9-15.2-1.2-22.9
		c0.9-15.4,2-30.7-0.4-46.1c-0.7-0.6-1.3-1.3-2-1.9c-20.2-2.7-40.4-0.5-60.6-1.1c-5.8-0.6-11.9,0.2-17.3-2.6c-1.1-3.6-3.8-7-1.1-11
		c4.4-3.9,9.8-3.3,14.9-3.4c53-0.1,106-0.1,159,0c4.5,0,9.1-0.1,13.4,1.7C564.4,283.7,563.8,288.1,564.5,291.8z"/>
	<path class="st3" d="M10.6,233.1c-1.9-11.3,3.6-22.8-0.6-34c2.4-2.7,5.3-4.3,9-3.5c19.9,2,39.8,0.1,59.6,0.8
		c3.5,0.1,6.9-0.2,10.4,0.8c7.2,2.1,11.2,5.6,10.8,14.1c-0.7,16.8,0,33.6-0.3,50.3c-3.3,2.6-3.9-0.5-5.1-2.4
		c-2.6-22.9-2.6-23.7-25.2-26c-18.9-1.9-38-4.8-56.9,0.8C11.8,234.1,11.1,233.5,10.6,233.1z"/>
	<path class="st4" d="M454.1,214c0.4-6.2,1.1-12.4,1.2-18.6c0.2-7.6,5-10.6,11.4-10.6c7,0,13.4,2.3,14,10.7
		c0.5,7.6,0.1,15.2,0.1,22.8c-3.1,13.2,1.4,26.3,0,39.5c-0.5,4.8,1,9.8-1.3,14.4c-5.7-2.2-5.7-2.2-5.9-14
		c0.5-11.1,0.2-22.2,0.3-33.4c0-1.7,0-3.5-0.2-5.2c-0.4-3.6-1.4-7.2-4.8-8.8c-4.8-2.3-4.8,3.9-7.8,5.1
		C458.1,218,456.2,215.7,454.1,214z"/>
	<path class="st5" d="M454.1,214c2.6-1.5,3.8-0.7,3.7,2.2c4.5,5,3.1,11.2,3.2,17c0.2,9.4,0.3,18.9-0.2,28.3
		c-1.6,11.9-5,15.3-18.8,16.2c-17.5,1.1-35,0.2-52.5,0.5c-6.7,0.1-13.5,0.3-17.6,7c1.1,3,2.4,6,1.7,9.3c-6.2-4.7-5.1-11.1-3.2-17.1
		c2.1-6.5,7.8-6.7,13.8-6.8c19.8-0.3,39.7-1.3,59.5-1.3c8.1,0,9.9-3,9.8-10.4C453.2,244,453.8,229,454.1,214z"/>
	<path class="st6" d="M478.8,272.9c0-14.9-0.1-29.9,0-44.8c0-3.3-1.2-7,2.1-9.7c0.1,5.4,0.1,10.8,0.2,16.2c2.5,11.3-1.2,22.9,2,34.1
		c23,0.7,45.9,1.4,68.9,2.1c13.3,0.4,18,8.3,12.5,21c-5.4-0.8-0.7-4.5-1.8-6.4c-5.6-8.5-14.5-8.8-23.1-9.1
		c-15.6-0.5-31.3,0-46.9-0.2C487.8,276,482.7,276.8,478.8,272.9z"/>
	<path class="st7" d="M98.6,262.5c0-15.6,0.1-31.3,0.1-46.9c0-12.8-4.8-18-17.9-18.1c-16.3-0.1-32.6,0.6-48.9,0.5
		c-4.3,0-9,0.7-12.9-2.4c23-0.1,45.9-0.2,68.9-0.3c8.7,0,13.3,3.2,13.1,13.1c-0.5,25-0.1,50.1,0,75.2c-0.8,0-1.6-0.1-2.4-0.1
		C94.4,276.4,94.2,269.5,98.6,262.5z"/>
	<path class="st8" d="M329.7,285.6c-0.8-0.8-1.5-1.5-2.3-2.3c-3.8-3.7-4.2-8.6-4.8-13.4c-1.1-9.2-4.4-17.5-10.9-24.3
		c-4.8-5-10.9-8.2-16.7-11.8c-2.5-1.5-5.9-2.4-5-6.5c0-0.2,0.5-0.4,0.7-0.4c0.3-0.1,0.7,0,1,0c1.3,0,2.5,0,3.8,0
		C320.7,238.4,332.1,258,329.7,285.6z"/>
	<path class="st9" d="M138.6,283.5c-0.8,0-1.6,0.1-2.4,0.1c0.2-27.3,0.3-54.6,0.5-81.8c3.6,5.2,0.9,11.1,1.8,16.7
		c5.3,6.7,2.6,14.7,3.2,22.1c0.3,3.8-0.4,7.6-0.1,11.4C140.9,262.4,144.5,273.4,138.6,283.5z"/>
	<path class="st10" d="M31.8,372.9c14.9-2.8,29.9-0.9,44.9-1.1c9.2-0.1,17.2-2,23.8-8.4c0,8-6,10-11.8,10.1
		C69.7,373.8,50.7,374.7,31.8,372.9z"/>
	<path class="st11" d="M390.9,297.2c20.2-1.3,40.5-3.1,60.6,1.1C431.3,298.1,411.1,299.1,390.9,297.2z"/>
	<path class="st12" d="M483.1,298.5c1.1-0.8,2.2-2.2,3.2-2.2c19.1,0.3,38.2-1.8,57.3,1.1C523.4,297.8,503.3,298.1,483.1,298.5z"/>
	<path class="st13" d="M453.5,300.2c1,0.9,3.1,1.9,3,2.5c-2.5,14.4,1.6,29.2-2.6,43.5C453.7,330.9,453.6,315.6,453.5,300.2z"/>
	<path class="st4" d="M483.1,268.7c-4.9-11.1-1.3-22.8-2-34.1C484.3,245.8,481.7,257.4,483.1,268.7z"/>
	<path class="st14" d="M8.7,363.3c3.4,2.8,6.8,5.5,10.2,8.3C12.9,372.1,7.6,371.7,8.7,363.3z"/>
	<path class="st15" d="M138.7,252c0-11.2-0.1-22.4-0.1-33.6c2.9-2.9,4.2-6.9,4-10.5c-0.7-11.7,7.4-12.7,14.3-9.9
		c10.8,4.3,20.9,3.1,31.7,1.7c14.6-1.9,29.2,0.8,43.8,2c10.7,0.9,20.6-2.2,30.7-4.3c1.3-0.3,2.8,0,4.2,0
		c19.7,0.1,20.1,0.3,22.4,19.3c0.4,3.5,0.4,7,2.2,10.1c-0.5,6.6,6.5,3.9,9.1,7.2c3.1,3.9,9.1,4.9,11.9,9.6c-3,4.5-7.7,3.9-12.2,4.2
		c-40.1,2.3-80.3,0.6-120.4,1.1C166.3,249,152.3,248,138.7,252z"/>
	<path class="st16" d="M138.7,252c5.2-5.4,11.6-6.5,18.9-6.4c41.5,0.3,83.1,0.3,124.6,0c10.2-0.1,20.4-1.3,30.6-2
		c12.7,10.3,11.9,25.7,14.6,39.7c-62.9,0.1-125.9,0.1-188.8,0.2C138.7,273,138.7,262.5,138.7,252z"/>
	<path class="st17" d="M98.6,262.5c0,7,0,13.9,0,20.9c-25.5,0-51.1-0.4-76.6,0.3c-9.5,0.3-12.8-2.7-11.5-11.8
		c0.5-3.8,0.1-7.7,0.2-11.5c2.4-5.5,7-7.8,12.5-7.8c21.8-0.1,43.5-3,65.3-0.6c4.6,0.5,6.8,2.4,8.2,6.3C96.6,260,97,261.5,98.6,262.5
		z"/>
	<path class="st18" d="M96.6,258.3c-5-7.4-13-3.1-18.9-3.5c-18.2-1.2-36.5,0-54.8,0.6c-4.5,0.1-8.8,1.9-12.3,5
		c0-9.1,0-18.2-0.1-27.3c8.6-7.2,18.6-4.7,28.5-4.6c14.3,0.2,28.5,2.4,42.7,2.1c11-0.2,14.2,4.9,14.8,14
		C96.8,249.2,96.6,253.7,96.6,258.3z"/>
	<path class="st19" d="M478.8,272.9c21.2,0.1,42.4-0.4,63.6,0.5c8.1,0.3,19.3-1.7,20.3,12c-3.5-1.9-7.3-1.9-11.2-1.9
		c-56.1,0-112.3,0-168.4,0c-3.9,0-7.7,0-11.2,1.8c0.9-8.3,5.9-10.5,13.7-10.4c18.1,0.4,36.2,0.7,54.2-0.2c7.6-0.4,19,2,18-12.2
		c4.7-6.6,10.6-9.8,18.7-6.3C477.6,261.7,474.5,267.8,478.8,272.9z"/>
	<path class="st20" d="M476.6,256.2c-6.9,0.2-12.8,3.2-18.7,6.3c0-15.4-0.1-30.8-0.1-46.2c1.1-0.9,2.3-1.6,3.1-2.6
		c2.2-3,1.3-10.3,6.5-8.5c5,1.8,9.3,6.9,9.3,13.7C476.6,231.3,476.6,243.8,476.6,256.2z"/>
</g>
</svg>
