<?xml version="1.0" encoding="utf-8"?>
<!-- Generator: Adobe Illustrator 21.0.2, SVG Export Plug-In . SVG Version: 6.00 Build 0)  -->
<svg version="1.1" id="Laag_1" xmlns="http://www.w3.org/2000/svg" xmlns:xlink="http://www.w3.org/1999/xlink" x="0px" y="0px"
	 viewBox="0 0 566.9 566.9" style="enable-background:new 0 0 566.9 566.9;" xml:space="preserve">
<style type="text/css">
	.st0{fill:#A8ADC1;}
	.st1{fill:#304B9E;}
	.st2{fill:#D1D1D1;}
	.st3{fill:#3B57A6;}
	.st4{fill:#3251A2;}
	.st5{fill:#3B58A6;}
	.st6{fill:#D9D8D8;}
	.st7{fill:#E2E1E1;}
	.st8{fill:#E1DFE0;}
	.st9{fill:#384EA0;}
	.st10{fill:#92C2E9;}
	.st11{fill:#BED9F1;}
	.st12{fill:#365FAC;}
	.st13{fill:#446AB1;}
	.st14{fill:#416EB4;}
	.st15{fill:#486AAE;}
	.st16{fill:#368ECD;}
	.st17{fill:#3B7FC2;}
	.st18{fill:#3971B8;}
	.st19{fill:#3C97D3;}
	.st20{fill:#4C9FD8;}
	.st21{fill:#6CAFE0;}
	.st22{fill:#93C2E8;}
	.st23{fill:#447FC2;}
	.st24{fill:#73B5E3;}
	.st25{fill:#3764AF;}
	.st26{fill:#358DCC;}
	.st27{fill:#368CCB;}
	.st28{fill:#3B7ABE;}
	.st29{fill:#58A1D8;}
	.st30{fill:#4A92CF;}
	.st31{fill:#3383C5;}
	.st32{fill:#42A1DA;}
	.st33{fill:#42BFEE;}
	.st34{fill:#42B3E6;}
	.st35{fill:#42ADE2;}
	.st36{fill:#44A9DF;}
	.st37{fill:#44B4E7;}
	.st38{fill:#F6F5F5;}
	.st39{fill:#49B7E8;}
	.st40{fill:#3A7FC1;}
	.st41{fill:#469BD5;}
	.st42{fill:#3773B9;}
	.st43{fill:#3655A5;}
	.st44{fill:#5AA4DA;}
	.st45{fill:#4996D1;}
	.st46{fill:#3484C5;}
	.st47{fill:#3C9ED8;}
	.st48{fill:#3A94D1;}
	.st49{fill:#3B96D2;}
	.st50{fill:#3459A8;}
	.st51{fill:#387CBF;}
	.st52{fill:#376DB5;}
	.st53{fill:#4EA4DB;}
	.st54{fill:#4FA0D8;}
	.st55{fill:#3D91CF;}
	.st56{fill:#41A7DE;}
	.st57{fill:#77ACDD;}
	.st58{fill:#354DA0;}
	.st59{fill:#9AC0E5;}
	.st60{fill:#5DA5D1;}
	.st61{fill:#467DBF;}
	.st62{fill:#4E7CBC;}
	.st63{fill:#4568B1;}
	.st64{fill:#538CC6;}
	.st65{fill:#375EAB;}
	.st66{fill:#70B2E2;}
	.st67{fill:#DEDDDD;}
	.st68{fill:#4168B0;}
	.st69{fill:#FFFFFF;}
	.st70{fill:#92C2E8;}
	.st71{fill:#3053A4;}
	.st72{fill:#B1D2EE;}
	.st73{fill:#2C4598;}
	.st74{fill:#43B1E5;}
	.st75{fill:#D1D0D0;}
	.st76{fill:#42BBEC;}
</style>
<g>
	<path class="st0" d="M266.6,3.7c0.1-0.5,0.2-1.1,0.2-1.7c10.8,0,21.6,0,32.3,0c0,0.5,0.1,1.1,0.2,1.6C288.5,9,277.5,8.9,266.6,3.7z
		"/>
	<path class="st1" d="M266.6,3.7c10.9,0,21.9,0,32.8,0c85,7.4,152.2,46.3,202.7,114.5c1.6,2.1,2.5,4.7,3.7,7c-2,1.4-3.7,0.3-5.4-0.8
		c-12.3-13.1-21.5-29-36.2-39.9c-11.5-8.6-22-18.4-34-26.3c-3.3-2.2-6.5-3-10.3-2.6c-10.4-3.5-17.6-12.7-28.2-15.7
		c-35.9-18.9-74.2-27.5-114.5-26.9c-25.6,0.4-50.7,5.6-75.3,12.7c-11.8-1-21.5,5.2-31.9,9.2c-4.4,1.7-9.3,5-12.1-2.1
		C191.9,15,228.4,6.1,266.6,3.7z"/>
	<path class="st2" d="M408.3,517.5c-23.2,15.5-49.6,22.7-76.4,28c-40.9,8.2-81.9,7.3-122.2-4.1c-21.4-6-42.9-12.6-62.3-23.7
		c-28.5-16.4-53.7-37.3-74.8-62.9c-0.4-2.1,0.9-2.8,2.6-3.2c1.1,0,2.1,0.3,3.1,0.8c14.3,13.2,28.1,26.9,44,38.4
		c33.3,24,70.2,39.1,110.6,46.2c47.4,8.3,93.7,4.5,138.9-11.9c6.3-1.5,12.1-4.3,17.9-7.1c7.2-0.9,12.2-8.3,20.1-7.1
		C412,513.8,409.9,515.6,408.3,517.5z"/>
	<path class="st3" d="M501.3,123.3c1.5,0.6,3,1.3,4.5,1.9c11.1,12.9,17.6,28.4,24.1,43.7c22.8,53.2,25.1,108.2,14.1,164.4
		c-0.3,1.3-0.2,2.7-0.3,4c-2.4,22.3-12,42.1-21.8,61.8c-2.4,4.8-5.3,9.3-4.2,15c10.6,11.2,21.2,22.4,31.8,33.7
		c3.2,3.4,6.9,6.7,7.1,11.8c0.7,28.5,2.1,57-0.9,85.5c-3.1,4.1-7.6,3.8-11.9,3.8c-20.4,0.2-40.8,0.2-61.3,0c-4.3,0-8.9,0.3-11.9-3.8
		c-0.2-6.4,4.5-4.4,7.8-4.3c17.8,0.3,35.6,0,53.4,0.2c4.4,0,8.6-1,12.9-1.8c4.4-0.9,6.4-3.4,6.3-7.7c-0.3-14.4,1.2-28.9-0.9-43.2
		c-1.8-7.6-0.2-15.3-1.5-22.9c-4.8-10.8-14.4-17.9-21.6-26.9c-4.3-5.4-9.7-9.9-14.7-14.8c-2-2.2-3.9-4.4-4.6-7.4
		c-0.7-3.5,0.5-6.7,1.9-9.8c1-2.1,1.7-4.4,2.6-6.6c1.2-2.7,2.7-5.1,4.2-7.6c8.2-17,14.3-34.8,19.7-52.9c10.2-44.4,9.3-88.7-0.7-133
		c-0.5-16-9.3-29.2-15.1-43.4c-4.7-11.4-9.5-23-18.4-32.3C500.1,128.8,499.2,126,501.3,123.3z"/>
	<path class="st4" d="M157.8,32.8c3.5,4,7,1.9,10.8,0.2c7.6-3.4,15.5-6.2,23.1-9.7c3.3-1.5,5.8-0.5,8.5,0.9c0,5-4.6,4.4-7.3,6.1
		c-13.5,5.1-26,12.2-38.4,19.5c-2.2,1.1-4.4,2-6.6,2.9c-30,13.9-55.5,33.4-75.4,60c-6.6,8.8-13.8,17.3-19.6,26.7
		c-1.9,3-3.6,7.6-9,5.9c-0.4-1.5-0.3-2.9,0.4-4.3c19-35.9,46.1-64.6,79-87.9C134.2,45.4,145.5,38.2,157.8,32.8z"/>
	<path class="st5" d="M77,452.7c-0.4-0.2-0.9-0.3-1.4-0.3c-3.3-0.3-5.3-2.4-7.3-4.9C45,418,27.9,385.1,16.7,349.1
		c-1.6-5.1-0.8-10.6-2.6-15.7c-4.9-26.8-7.2-53.7-4.3-80.9c3.4-31.5,9.5-62.3,23.8-90.9c1.8-0.7,3.2-4,5.6-1
		c-0.7,12.3-7.7,22.5-11.2,33.9c-10.7,34.7-16,69.8-12.2,106c3.4,28.9,10.6,56.7,23,83c6.5,10.7,9.9,23.2,18.8,32.5
		c4.3,8.6,10.9,15.7,16.4,23.5c2.4,2.9,5.7,5.4,6.2,9.5C80.1,451,79.9,453.1,77,452.7z"/>
	<path class="st6" d="M470.9,543.8c1.1,0.7,2.2,1.9,3.4,1.9c27.1,0.1,54.2,1.3,81.3-0.6c0.8,7.1-5.3,7.8-9.3,8
		c-22.1,1.1-44.2,1.3-66.4,0c-12.9-0.8-19.9-10.5-26.6-19.2c-6.6-8.7-16.9-13.2-22.6-22.6c-2-3.3-5.2-1.2-7.9,0.6
		c-4.4,2.9-8.5,6.8-14.5,5.7c0.7-2,1.4-4,2-6c0.4-0.3,0.8-0.5,1.2-0.8c7.7-2.3,14.3-9.7,23.5-5C449.7,515.8,460,530.1,470.9,543.8z"
		/>
	<path class="st7" d="M14.2,333.4c9.4,33,21.7,64.6,41.7,92.8c6.4,8.9,13.1,17.6,19.7,26.4c-1,0.8-2,1.6-2.9,2.4
		c-15.7-11.1-22.9-28.4-32.3-44.1c-4.6-7.7-8.9-15.8-12.2-24.1C21.2,369.6,13.1,352.7,14.2,333.4z"/>
	<path class="st8" d="M517.6,414.1c-4.3-2.8-2.6-6.6-0.8-9.6c12.3-21.1,20.1-43.9,26.9-67.2c2.3,10.7-1.1,20.7-5.1,30.2
		C532.2,383.3,524.7,398.6,517.6,414.1z"/>
	<path class="st9" d="M38.4,159.7c-1.6,0.6-3.1,1.2-4.7,1.8c3.1-7,5.8-14.3,10.5-20.5c0.1,1.5,0.2,3.1,0.3,4.6
		C46,151.9,43,156.1,38.4,159.7z"/>
	<path class="st10" d="M153.5,48.3c11.9-8.5,24.7-15.3,38.6-19.9c2,0.5,4.2,0.4,6-0.3c26.6-10,54.6-9.9,82.3-12.4
		c5.4-0.5,10.8-1,16.1,0c31.4,5.4,63.4,7.8,92.6,22.2c1.5,0.7,3.2,1.1,4.9,0.8c10.3,2.8,17.8,10.3,26.4,16c1.7,0.8,3.1,1.8,1.9,4
		c-8.3,1.3-15.7-2.7-22.7-5.7C371.2,41,341.1,37.4,311,35.6c-28.7-1.7-57.6-3.1-86.3,1.6c-20.5,3.4-41.3,5.3-61.2,11.9
		C160.5,50.1,156.3,54.2,153.5,48.3z"/>
	<path class="st11" d="M394.1,38.7c-2.8,3.3-5.4,0.7-8.1-0.3c-32.2-11.7-65.6-19.3-99.5-19.5c-27.1-0.2-54.7,1-81.1,10
		c-4.4,1.5-8.9,3.2-13.2-0.4c2.7-1.4,5.4-2.8,8-4.2c58-19.3,115.6-19.2,172.6,3.8C380.1,31,387,35.1,394.1,38.7z"/>
	<path class="st12" d="M422.4,56.9c-0.6-0.8-1.3-1.5-1.9-2.3c9.6-6.4,14.5,3.8,19.3,7.4c23.3,17.5,46,35.9,61.6,61.4
		c0.1,5,4.8,7,6.9,10.5c12.4,20.9,22.4,43,29.4,66.4c0.4,1.2,0,2.7,0,4c-5.2,0.5-5.7-3.7-7-7c-5.5-13.7-11.6-27-18.7-40
		c-11.1-20.2-24.6-38.3-41.2-54.1c-2.2-2.3-4.4-4.7-6.7-6.9c-3.2-3-5.6-6.6-8.8-9.6c-3.5-2.7-6.6-5.8-9.7-8.9
		c-3.9-3.9-7.5-8.1-12.1-11.2C429.4,63.7,425.6,60.5,422.4,56.9z"/>
	<path class="st13" d="M77,452.7c1.6-0.8,1.8-2.3,1.8-3.9c5.8-0.7,7.4,4.9,11.1,7.3c7.7,8.8,16.5,16.4,25.6,23.6
		c2.9,2.3,5.7,4.7,8.9,6.6c9.6,6.3,18.2,14.2,29.3,18.2c40.7,22.4,84.5,32.4,130.6,32.1c27.9-0.2,55.4-4.9,82.2-13.3
		c2.3-0.2,4.5,0,6.6,1.1c1.1,0.7,1.4,1.7,0.8,2.9c-110.3,36-207.3,14.4-290.6-66.9C81,458.1,79.1,455.3,77,452.7z"/>
	<path class="st14" d="M374,525.6c-2.1,0-4.2-0.1-6.4-0.1c0.4-6.8,6.8-6.4,10.8-8.8c3.4-2.1,7-3.8,10.9-5c9.5-2,16.4-8.8,24.5-13.4
		c3.5-1.5,6.7-3.4,10.3-4.6c5.8-1.2,9.4,2.4,13,6c9.9,9.9,20,19.8,29.8,29.9c0.6,0.7,1.2,1.4,1.7,2.2c3.4,7.4,10.6,5.2,16.4,6.4
		c1,0.2,1.9,0.4,2.9,0.7c10.5,0.3,21,1.3,31.4-0.8c2.2-0.5,4.3-0.8,6.5-0.9c4.4,0,8.9,0,13.3-0.1c2.2,0,4.4,0.1,6.5-0.6
		c4.1-2.3,3.3-6.2,3.3-9.8c-0.1-9.7-0.1-19.4,0.2-29.1c0.1-3.6-0.4-7.5,2.8-10.3c3.9,16.5,1.4,33.3,1.6,50c0,3.6-3.5,4.3-6.7,4.8
		c-23.8,3.5-47.6,2.2-71.4,0.9c-1.8-0.1-3.2-0.6-4.5,1c-13.7-10.6-23.2-25.3-36.2-36.5c-5.1-4.1-10.1-4.6-15.2,0.2
		c-2.5,2.3-6,2.8-9.1,3.9c0,0,0,0,0,0c-6.9,1.8-12.2,7.4-19.5,8.3C384.8,520.4,380,524.7,374,525.6z"/>
	<path class="st15" d="M374,525.6c5.3-3,10.1-7.2,16.9-5.8c-5,3.9-11,5.7-16.9,7.6C374,526.7,374,526.1,374,525.6z"/>
	<path class="st16" d="M545.7,539.7c-2,0-4,0-6,0c-0.6-1.6,0.1-2.9,1-4.2c2.7-3.1,1.1-6.4,0.1-9.5c-5.4-17.2-15.2-31-32.7-37.2
		c-18.8-6.7-33.4-19.7-48.9-31.4c-5.8-4.3-11.6-6.7-18.6-6c-12,1.2-24,1.5-35.2,7.4c-5,2.6-11.7,5.7-14.6-3.4
		c2.3-7,9.2-8.9,14.4-12.5c17.5-9.8,30.2-24,39.1-41.8c2.7-5.5,1.1-9.3-3.7-12.9c-5.7-4.3-12.7-5.9-18.5-10c1-8.1,6.9-13,11.7-18.7
		c17.4-12.8,23.9-31.7,25.9-51.5c3.2-31.5-4.5-61.3-20.7-88.7c-3.9-6.6-6.5-14-11-20.3c-4.5-3.9-6.1-9.9-10.4-13.8
		c-1-2.4-0.7-4.5,1.7-6c6.1-1.1,9.3-6.1,13.5-9.9c6.7-6,11.8-13.7,20.2-17.8c12.8-10,12.1-9.4,22.2,4.2c20,26.9,34.4,56.4,45.1,88.2
		c11.4,33.9,12.5,68.3,7.2,103.2c-1,6.3-1.2,12.7-3,18.8c-1.4,9.7-5.5,18.7-7.1,28.3c-1.2,2.2-2.4,4.3-3.6,6.5
		c-1.4-0.3-2.5-1-3.3-2.1c-3.6-4.8-6.8-11.3-14.2-8.4c-7.7,3.1-13.4,9-14.5,17.8c-1.5,12,2.5,22.7,9.7,31.9
		c12.5,16.2,26.8,30.8,40.2,46.1c3.9,4.4,8.1,6.8,14.1,4.4c1.8-0.7,4-0.7,5,1.8c-0.1,3,0.9,6.3-0.5,8.9c-4.7,8.3-2.6,16.7-1.2,25.2
		C549.9,531.2,551.3,536.3,545.7,539.7z"/>
	<path class="st17" d="M517.3,394.1c-4.5-5.8,0.9-10.5,1.8-15.7c0.7-4.2,1.6-8.4,2.4-12.6c6.5-12.5,7.9-26.2,9.1-39.9
		c4.3-49.6-3-97.1-26-141.7c-16.5-32.1-39.5-59-66.8-82.4c-7.1-6.1-13.8-12.7-21.9-17.7c-3.2-1.9-8.1-4.7-4.3-10.3
		c5-1.8,8.8,1.5,13,3.1c7.7,3.8,15.9,6.5,22.7,12c5.4,3.4,10.5,7.9,17.7,5.9c2.7,1.4,4.7,3.4,6.1,6.1c0.2,12.5,8.8,20.4,15.8,29.2
		c32.8,41.3,52.5,87.9,56,140.8c1.6,23.7-0.4,47.2-5.1,70.5C532.7,359.8,527.2,377.8,517.3,394.1z"/>
	<path class="st18" d="M537.7,341.6c-2.6-13.8,3.5-26.8,3.6-40.6c0.1-35.4-4-70.2-17.3-102.9c-11.6-28.6-27.4-55.4-49.2-77.8
		c-5.9-6.1-5.4-12.3-3.8-19.3c23.9,20,39.1,46.3,52.7,73.8c4.8,9.7,6.9,20.8,13.9,29.4c11.5,45.2,11,90.5,1.3,135.9
		C538.8,340.7,538.1,341.1,537.7,341.6z"/>
	<path class="st19" d="M549.8,491.2c-9.9,7.2-16.5,1.2-22.7-5.9c-12.3-14.2-24.8-28.1-36.7-42.6c-8.4-10.2-12.6-22.1-11.3-35.6
		c0.8-7.7,11.4-20.1,18.5-20.6c9.1-0.6,12.3,6.6,15.7,13.3c0.2,0.3,0.3,0.6,0.5,0.9c-0.4,2.1-0.3,4.3-2.2,5.9
		c-14.4-2.5-19.1,2.3-16.6,16.8c2.6,15.3,12.2,26.5,21.5,38c9,11.2,20,19,34.1,22.3C550.6,486.2,551.5,488.8,549.8,491.2z"/>
	<path class="st20" d="M549.7,483.1c-14.8,3.1-22.7-7.3-31.3-16.2c-12.7-13.2-23.7-27.4-26.8-46.1c-1.1-6.6,0.1-13.4,5.9-17
		c4.5-2.8,10.4-3.4,14,2.8c-0.7,3.3-1.4,6.6-2.2,9.9c-5.7,5.7-3.7,11.6-0.3,17.3c8.6,14.3,21.2,24.5,34.9,33.5
		c2.4,1.6,5.9,1.7,6.7,5.3C550.3,476,551.9,479.8,549.7,483.1z"/>
	<path class="st21" d="M549.7,471c-1,0-2.2,0.3-3-0.1c-18.4-9.2-33.2-22.5-42.2-41c-1.6-3.2-7.2-12.8,4.8-13.4c1.4,2,2.8,4,4.3,5.9
		c1.6,11.3,10.7,17.2,17.7,24.5c6.1,6.5,14.5,10.7,19.3,18.6C550.7,467.4,551.3,469.4,549.7,471z"/>
	<path class="st22" d="M549.6,464.8c-12.5-8.9-23.8-19.1-33.7-30.8c-3-3.6-7.1-6.7-2.2-11.7c12.8,12.9,26.7,24.7,36.4,40.5
		C550.7,463.7,550.6,464.4,549.6,464.8z"/>
	<path class="st23" d="M549.6,464.8c0.1-0.7,0.3-1.3,0.4-2c4,7.8,0.8,16.2,1.9,24.2c0,14.4-0.1,28.8-0.1,43.1c0,4.5,0.1,9-6.1,9.4
		c4.8-6.9,0.5-13.8-0.6-20.3c-1.1-6.6-2.6-12.3,2.9-17.6c3-2.9,1.5-7,1.7-10.6c0-2.7,0-5.4-0.1-8.1c0-4,0-8.1,0-12.1
		C549.7,468.9,549.6,466.9,549.6,464.8z"/>
	<path class="st24" d="M422.4,56.9c5.7,0.3,7.9,5.5,12,8.1c-0.9,4.2-3.9,2.6-6.2,1.9c-12.8-3.8-25.9-5.7-39.2-6.8
		c-5-0.4-9.9-0.8-14.8,0.7c-8.7,0.8-16.9-1.7-25-4.1c-12.9-4.4-26.4-4.7-39.7-6.3c-6-2-12.3-1.1-18.5-1.2c-4,0-8,0-12.1,0
		c-7.4,0.5-15-1.1-22.3,1.3c-13.3,0.5-26.3,3.4-39.4,4.6C197,53.5,177,53.6,157,57.4c-4.4,0.8-9.2,3-13.5-0.9
		c-1-3.8,2.3-4.3,4.4-5.8c1.9-0.8,3.8-1.6,5.6-2.4c6.9,1.4,12.6-3,18.8-4.5c24.4-6,49.1-9,74-11.7c20.1-2.1,40.1-0.4,60.1,0.5
		c32.4,1.5,64.7,4.6,95,18.2C407.9,53.8,415.3,54.9,422.4,56.9z"/>
	<path class="st25" d="M147.9,50.7c-1.4,1.4-2.7,2.8-4.1,4.2c-3.9,7.2-11.5,10.2-17.3,15.3c-7.9,7-15,14.7-22.4,22.1
		c-5.1,4.4-8.4,10.4-13,15.3c-27.7,27.6-47.4,60.2-59.5,97.2c-9.3,28.5-15.8,57.7-14.9,88c0.1,3,0,6.1-2.6,8.4
		c-3.9-15.8-2.4-31.8-1.1-47.6c1.9-23.3,8.1-45.8,15-68.1c2.8-9,9.1-16.3,10.4-25.8c2-4.7,4.1-9.4,6.1-14
		c9.9-13.2,19.4-26.9,30-39.7C94.6,81.9,118.2,62.2,147.9,50.7z"/>
	<path class="st26" d="M256.5,48.4c7.2-3.8,15-1.2,22.4-1.8c4,2.5,8.1,3.1,12.1,0c6.1,0.5,12.5-1.8,18.3,1.8c0.5,1.5-4,1.1-1.5,2.4
		c3.1,1.7,7,2.2,10.6,2.6c27.6,2.9,51.7,14.9,74.9,29c4.7,2.8,9,6,8.2,12.5c-0.5,1.5-1.6,2.6-3.2,2.9c-5.7-0.3-8.1-5.6-12.2-8.4
		c-40.3-26.9-84.7-35.5-132-28.5c-59.7,8.9-108.3,37.4-142.5,87.8c-11,16.1-18,34.6-20.6,54.4c-0.6,4.3-2.1,9.4,2.5,12
		c4.4,2.5,9-0.4,11.9-3.2c8.5-8,19.4-13.6,25.2-24.4c2-2.9,3.6-6.2,6.7-8.3c1.1-0.2,2,0.1,2.8,0.9c2.8,6.5-2.3,10.6-4.8,15.4
		c-2.6,5-5.7,9.8-9.2,14.3c-6.7,10.1-9.8,21.8-14.9,32.7c-8.5,18.3-9.2,38.6-9.2,58.2c0,22.5,10,42.2,24.2,59.5
		c1.5,2.2,2.8,4.6,1.5,7.4c-4.3,2.3-9.2,1-13.7,2.9c-11.3,4.7-15.1,13-10.6,24.3c0.6,1.6,1.6,3,2.2,4.5c1.2,3.2,2.3,6.8-1.2,9.1
		c-3.1,2.1-6-0.1-8-2.3c-10.5-11.6-22.1-22.6-27.7-37.9c-0.7-1.9-1.4-3.8-2.7-5.4c-2.5-3.2-5.2-7.4-9.5-6.5c-4.7,1-3,6.3-3,9.5
		c-0.1,22.3,6.8,42.9,16.8,62.5c1.9,3.7,5.6,7.2,2.1,11.9c-6.4-7.3-13.6-14-16.4-23.7c-9.6-20.5-17.7-41.4-20.7-64.1
		c-4.6-35-1.8-68.4,17.9-98.9c4.3-6.6,6-14.2,6.4-22.1c0.1-2.4,0.2-4.8,1.3-6.9c15.2-28.4,21-61.3,42.4-86.7
		c13.7-16.3,27.8-31.9,45.4-44.2c24.5-17.1,50.7-30.3,79.9-37.5c10.9-2.7,21.7-4.5,33.6-5.4c0.4,0.1-0.5-2-0.7-0.7
		c0,0.3-0.4,0.2-1,0.2C259.1,50.4,257.7,49.8,256.5,48.4z"/>
	<path class="st19" d="M72.8,440.5c-0.7-8.3-6.2-14.7-9.5-21.8c-8.9-19.5-12.8-39.5-12.4-60.7c0.1-5.7,3.1-7.2,7.9-5
		c5.3,2.4,10.3,6,11.8,11.7c4.3,16.4,17.2,26.5,26.9,38.9c1.5,1.9,3.7,5.4,6.3,3.4c2.8-2.1,0.7-5.3-0.9-8.1
		c-9-16.2-0.7-31.6,17.7-32.8c2.2-0.1,4.4,1.2,6.6,1.8c4.4,0.4,7.2,2.1,6.5,7.2c-16.7,21.5-11,41,10.3,58.6
		c29.3,24.3,63.4,39,101.1,44.6c30.9,4.6,61.6,2.7,91.9-5c14.9-3,28.7-8.9,42.1-15.8c3.9-2,7.8-5.8,12.9-2.7c2.6,7,7.8,4.5,11.3,2.2
		c9.7-6.6,21.1-5.6,31.7-8.2c16.1-3.9,27.1,6.3,37.3,15.3c10.6,9.3,22,16.3,34.8,21.2c20.7,7.9,31.6,23.7,37.5,44.1
		c1.1,3.9,0.6,6.5-3.1,8.3c-4.4-4.7-7-10.7-10-16.2c-4.5-8.5-10.9-14.3-20.2-16.9c-22.4-6.4-43.6-15.8-64.7-25.5
		c-15.8-7.3-32.1-6.8-48.4-3.3c-24.3,5.3-48,13.1-72.6,16.8c-74.4,11.3-142.9-4.9-206.2-44.7c-5.4-3.4-10.8-6.9-16.9-8.9
		c-10.4-3.5-14.7,0-13.1,10.5c0.4,2.6,1.4,5.3-0.9,7.6c-4.5-1.3-6-6.3-10-8.3C76.8,446,74.8,443.3,72.8,440.5z"/>
	<path class="st27" d="M256.5,48.4c4.2,0.6,8.6-1,13.4,1.4c-4.1,3.7-9,4.4-13.2,4.5c-20.5,0.5-39.5,7.5-58.1,14.8
		c-35.5,14-65.4,36.7-89.6,65.9c-16.5,19.9-27.6,43.3-34.5,68.4c-0.5,1.9-1.4,3.8-2.3,5.6c-4.9,9.8-10,19.1-10.8,30.8
		c-0.9,13.9-12,24.1-16.7,36.7c-8,21.6-9.8,44.1-7.5,67c2.3,22.9,8.4,44.6,18.3,65.3c1.1,2.2,0.6,5.2,0.8,7.9
		c-9.7-8-12.8-20-18-30.7c-3.7-12.4-10.5-23.9-10.1-37.4c-0.2-13.8-0.8-27.5-0.7-41.3c0.3-37,9.4-71.5,26.7-104.5
		c9.7-18.5,19.4-36.9,31.2-54.1c25.8-37.7,60.5-64.6,101.8-83.4c8.3-3.8,16.1-8.4,24.8-11.2c1.5-0.4,3-0.7,4.1-1.8
		C229.7,51.3,242.8,47.2,256.5,48.4z"/>
	<path class="st28" d="M30.3,347.7c1,8.9,1.6,17.9,6.5,25.7c2.5,4.1,1.3,8.4,1.6,12.7c-8.4-8.2-9.7-19.7-13.1-29.9
		c-5.8-17.7-11.3-35.9-11.2-55c-2.4-26.7,2.4-52.8,8.8-78.2c9.3-36.5,25.6-70.2,50.3-99.4c5.6-6.6,9.9-14.2,17.7-18.6
		c8.5-1.7,14.7-7.4,21.3-12.2c1.3-0.9,2.6-1.5,4.2-1.7c6.7,0.8,7.8,3.9,2.8,8.3c-25.8,22.3-46.1,48.8-62.3,78.6
		c-17.6,32.4-27.4,66.9-30.5,103.7c-1.5,17.3,0.8,34.2,0.4,51.3C26.8,338.3,29.2,342.8,30.3,347.7z"/>
	<path class="st2" d="M410.4,511.4c3.6-2.4,7.2-4.7,10.6-7.2c5.8-4.2,10.4-3.6,13.7,3c-5.8-1.2-11.3-1.2-16.3,3
		C416.3,512.1,413.4,513.4,410.4,511.4z"/>
	<path class="st29" d="M373.9,58.7c13.6-4.2,26.8,0.3,40.1,1.9c6.8,0.9,13.5,2.9,20.3,4.4c5.3,2.7,9,7.1,12.7,11.5
		c-1.7,5.9-6.5,2.7-9.8,3c-4.2,0.3-8.6,1.4-12.7-0.7c-4-1.4-8-2.8-12-4.2c-11.9-2.4-23-7.4-34.4-11.2
		C376,62.8,373.5,61.9,373.9,58.7z"/>
	<path class="st30" d="M424.5,78.8c7.3-3.2,15-1.3,22.5-2.3c3.2,2.8,6.5,5.7,9.7,8.6c-0.1,7.4-1.1,8-10,5.9
		C439.3,86.9,431.9,82.9,424.5,78.8z"/>
	<path class="st31" d="M446.7,91c4.4-0.1,9.5,0.8,10-5.9c2.7,3.3,5.5,6.6,8.2,9.9C456.5,104.6,452.8,92.4,446.7,91z"/>
	<path class="st32" d="M88.8,457.1c-0.5-1.9-1.1-3.9-1.5-5.8c-1-4.7-5-9.6,0.2-14c5.3-4.5,11.2-3.1,17.1-0.9
		c9.6,3.6,17.4,10.1,26,15.2c33.9,20.1,70.4,33.4,109.1,39.1c34.6,5.1,69.4,3.8,103.9-4.3c19.2-4.5,38.1-10.4,57.4-14.3
		c19.8-4,39.3-1,57.5,8.8c16.6,8.9,34.3,15.6,52.5,20.5c19.1,5.1,25.3,20.2,30.7,36.4c-0.7,0.7-1.3,1.3-2,2c-4.7,0-9.4,0.1-14.1,0.1
		c-0.7-2.8,1.6-3.5,3.3-4.6c4.5-4.1,0.1-6.6-1.9-9c-6.7-7.6-15.7-11.5-25.1-14.5c-10.6-3.4-21.5-6-32.5-7.2
		c-9.1-1-17.3-3.4-24.1-9.1c-11.3-9.4-24.3-10.1-38.1-9c-22.2,1.9-43.8,6.8-65.6,10.6c-50.4,8.8-100.5,7.3-149.8-6.5
		c-19.7-5.5-38.5-14-57.7-21.2c-7-2.6-13.9-5.2-21.3-6.2c-2.2-0.3-5-1.9-6.4,0.9c-1.2,2.5,1.3,4.2,2.8,6c1.5,1.8,3.2,3.5,4.7,5.3
		c1.2,1.9,2.5,3.8,1.2,6.1C104.8,475,95.7,467.2,88.8,457.1z"/>
	<path class="st33" d="M390.2,513.5c-7.1,4.7-15.9,6.3-22.6,11.9c-54.7,18.1-110,18.3-165,2.7c-17.8-5-35.7-11.4-51-22.7
		c-3.7-2.4-10.5-3.5-8.2-9.3c2.1-5.4,8.2-2.8,12.7-1.9c20,4.3,39.4,10.9,59.8,14.1c48.5,7.5,96.9,6.4,145.3-0.9
		c6.3-1,12.6-2.4,19-2.3C385,505.3,391.8,504.8,390.2,513.5z"/>
	<path class="st34" d="M390.2,513.5c-1.8-6.5-7-6.6-12.1-5.8c-25.1,4.2-50.3,6.4-75.7,8.1c-42.9,2.9-84.7-2.8-126-13
		c-7.7-1.9-15.5-4-23.2-6c-2.8-0.7-6.5-3.3-8.2,0c-1.8,3.3,2.4,4.8,4.6,6.6c0.8,0.6,1.4,1.4,2,2.2c-11.1-3.4-19.9-10.3-28.4-17.9
		c-1.7-2.5-6.5-3.9-4-8.1c2-3.4,5.8-2.9,9.1-2.5c13.8,1.7,26.8,6.4,39.8,10.6c33.1,10.5,66.6,17,101.6,17.3
		c33,0.3,65.6-2.3,98.1-7.7c13.2-2.2,26.6-2.8,40-3.8c4-0.3,8.7-0.1,6.9,6.4C407.4,506,400.1,512.1,390.2,513.5z"/>
	<path class="st35" d="M414.6,499.8c-0.4-3.2-2.2-4.8-5.5-4.3c-19.5,2.4-39,4.4-58.4,7.3c-37.6,5.7-75.2,5.9-113,2.9
		c-33.7-2.7-65-14.3-97.2-23.1c-3.9-1.1-7.8-1.8-11.7-2.7c-2.9-0.6-6.3-2.2-8.3,0.7c-1.8,2.7,2.6,4.3,2.6,7c-3.6-0.9-6.1-3.2-8-6.2
		c-0.6-1.4-1.3-2.9-1.9-4.3c-3.3-8.5,2.8-8.3,7.9-7.8c11.1,1,21.9,3.6,32.3,7.5c17,6.3,33.8,13,51.6,16.8c18.7,4,37.4,7.1,56.6,7.8
		c33.7,1.2,66.9-1.3,99.9-8.2c19-4,38.6-4.3,57.9-6.8c1.3-0.2,2.7-0.2,4-0.1c4,0.2,9.3-0.4,9.6,4.8c0.4,5.8-6.3,1.4-8.5,4.3
		C421.4,497.2,418.7,500.1,414.6,499.8z"/>
	<path class="st36" d="M424.5,495.3c1.5-2.9,5.1-1.3,7.4-3.8c-4.3-6.5-10.7-2.4-15.2-1.9c-27.4,2.8-55.1,5-82.1,10.3
		c-29.2,5.7-58.4,4.3-87.4,2.8c-32.5-1.6-63.9-10.8-94.2-23.1c-11-4.5-22.7-5.6-34-8.3c-4.7-1.1-5.9,1.7-5.8,5.7
		c-3.9-2.2-7.1-5.3-9.3-9.1c-1.3-2.2-5.4-4.4-2.6-7.7c2.2-2.5,5.6-1.5,8.6-1c16.3,2.9,31.5,9.4,46.7,15.4c28.7,11.4,57.8,20,89,22.9
		c39.8,3.7,78.8,0.9,117.7-7.8c18.6-4.1,37.6-6.8,56.7-6.7c8.8,0.1,17.3,1.6,24.1,8.2c12.4,12,29.3,10,44.3,13.8
		c16.2,4,32.1,8.3,43.2,21.8c2.4,3,9.7,9.3-2,10.7c-11.9-11.9-27.5-14.6-43-16.3c-7.9-0.8-15.8,2-19.8,10.4
		c-10.4-10.3-20.9-20.5-31.2-30.9C432.4,497.8,429.3,494.9,424.5,495.3z"/>
	<path class="st37" d="M466.8,531.8c0.6-9.5,4.9-14.1,18.4-13.5c13.2,0.6,26.4,4.4,38.4,10.7c3.1,1.6,6.1,4.4,6.1,8.7
		c-1.7,0.1-3.2,0.4-4,2.1c-1.9,0-3.9,0-5.8,0c-11.6,1.4-23.1,1.5-34.7-0.1l0,0C478.7,537.8,470.5,539.9,466.8,531.8L466.8,531.8z"/>
	<path class="st36" d="M485.1,539.8c11.6,0,23.1,0,34.7,0.1C508.2,542.4,496.6,542.8,485.1,539.8z"/>
	<path class="st36" d="M466.8,531.7c4.7,5.9,12.4,5,18.3,8.1C477.9,539.7,469.6,541.9,466.8,531.7z"/>
	<path class="st38" d="M398.6,97.3c0.6-0.6,1.3-1.2,1.9-1.9c1.1-1.6,2.2-3.2,3.8-4.3c5.7-3.4,9.7,0.5,13.5,3.5
		c14.1,11,27,23.2,37.7,37.6c8.7,11.7,8.8,12.2-2.9,21.4c-8.3,8-16.4,16.1-24.8,24c-2.1,2-3.7,6.4-7.8,2.6c-1.7-1.2-3.6-2.2-5-3.9
		c-2.2-2.7-3.9-5.7-6.4-8.1c-7.1-9.3-14.8-18-24.4-24.8c-1-0.8-2-1.7-2.9-2.7c-1.7-1.8-3.7-3.2-5.9-4.5c-1.7-1.2-3.4-2.5-5-3.9
		c-1-1-1.5-2.1-1.6-3.5c1.6-6.5,8.1-9.3,11.1-14.7c1-1.5,2-2.9,3.2-4.2c2.4-2.5,4.9-4.9,7.4-7.4c0.9-0.9,1.9-1.7,2.9-2.4
		C395,99,396.8,98.2,398.6,97.3z"/>
	<path class="st31" d="M452.7,153.6c9.2-7,7-13.3,0.2-21.1c-11.7-13.5-24-26.3-38.3-37.1c-3.1-2.4-6.1-5.8-10.6-2.3
		c-10.1-17.9-29.7-21.2-45.8-29.7c-4-2.1-9.4-2.5-8.5-9c8,2.1,15.9,4.2,24.2,4.3c9.1,5.1,19.5,6.8,29,10.7c3.4,1.4,6.4,3.5,9.6,5.3
		c-2.3,4.7,2.4,6.1,4.5,7.4c28.4,18.6,51.3,43,71,70c18.6,25.4,32.2,53.8,39.1,85.2c8.2,37.3,10.1,74.4,2.5,111.9
		c-1.2,6-2.5,12.5-8,16.7c5.8-26.6,7.5-53.2,4.5-80.6c-4-36.3-17.4-68.4-35.1-99.9c-8-14.3-19.4-25.9-25.4-41.2
		C460.1,147.3,459.3,154.3,452.7,153.6z"/>
	<path class="st39" d="M416.6,175.5c1.2,1.6,2.3,3.2,3.5,4.8c-2.1,1.4-1.7,3.6-1.7,5.6c-0.1,0.5-0.1,0.9-0.2,1.4
		c-7.7,11.5-19.7,18.9-28.9,29.1c-5.8,6.3-12,12.6-17.9,18.9c-18.9,20.5-41.7,36.9-59.2,58.7c-3.2,2.2-5.9,4.9-8.2,8.1
		c-14.2,11-30.9,10.8-48-0.4c-4.5-3.8-8.7-7.9-8.7-14.4c1.8-4.9,5.5-4,9.2-3c23.5,6.6,43.1,0.8,60.2-17
		c28.9-29.9,58.5-59.1,88.6-87.9C408.5,176.3,411.6,173.6,416.6,175.5z"/>
	<path class="st40" d="M428.4,196.2c8.8,9.8,13.8,22,19.4,33.4c11.7,24.1,17.9,50.1,14.8,76.9c-2.5,21.4-8.2,42.2-28,55.3
		c-2.7-3.9,0.1-7.2,1.6-10.3c8.7-18.2,13.5-37.9,12.9-57.6c-0.4-14.6-0.6-30-5.7-44.4c-4.8-13.2-6.9-27.2-12.7-40.1
		C429.1,205.1,425.6,201.2,428.4,196.2z"/>
	<path class="st41" d="M392.1,454.8c-14.5,4.7-27,14.3-42,17.8c-4.2,1-8.1,3-12.6,2.4c0.1-5.3,4.7-6,8.2-7.4
		c16.7-6.4,32.4-14.3,46.1-26.1c5.7-4.9,10.1-10.7,15-16.1c10.6-11.8,14.6-24.6,6.8-39.6c0.3-3.1,2.1-4.7,4.9-5.4
		c12.3,3.6,18.8,16.2,15.1,29.3c-4.4,15.3-15.3,25.6-27.4,34.9C401.6,448.1,396.9,451.4,392.1,454.8z"/>
	<path class="st42" d="M418.6,382.1c-1.9,0.8-3.3,2.1-4,4.1c0.4,4.6-3.4,5.7-6.2,7.7c-2.1,0.8-4.1,1.6-5.4-1.2
		c-1.3-5.9,3-9.4,5.9-13.3c22.4-29.3,33.4-62.3,33.3-99.3c0-10.5-2.9-21.4,2.5-31.5c6,3.1,3.8,8.7,4,13.4
		c0.3,10.1,4.2,20.1,3.7,29.8c-1,18.9-3.4,37.8-11.5,55.4c-2.2,4.8-4.2,9.7-6.3,14.6c-4.1,5.4-8.1,10.8-12.2,16.2
		C422.2,380.4,419.7,380.6,418.6,382.1z"/>
	<path class="st19" d="M418.6,382.1c0.7-1.9,1.9-3.3,3.8-4.1c9.4,0,15.9,6.1,23.2,10.7c4.2,2.7,4.1,7.1,2.3,10.7
		c-9.4,19.2-22.1,35.4-41.6,45.3c6.1-7.1,12.4-13.9,18.1-21.3C436.9,407.2,434.3,389.6,418.6,382.1z"/>
	<path class="st43" d="M428.4,196.2c1.4,4,2.8,8,4.2,12c1.3,2,1.1,3.6-1.3,4.6c-6.4-4.3-7.1-13-13.2-17.6c-1.3-3.1-0.8-6.1,0.3-9.1
		c0,0-0.1-0.1-0.1-0.1C425.6,185.5,424,193.7,428.4,196.2z"/>
	<path class="st44" d="M216.3,52.5c-0.7,0.7-1.3,1.4-2,2.1c-19.9,6.4-39.4,13.9-59.7,18.8c-7.3,0.3-14.7,0.5-22,0.9
		c-3.3,0.2-9,1.8-7.2-5.5c6.1-4.6,12.3-9.3,18.4-13.9c2.6,2.8,5.4,1.2,8.4,0.6C173.4,51.1,194.7,50.4,216.3,52.5z"/>
	<path class="st27" d="M349.7,54.4c1.5,3.2,3.8,5.2,7.3,6.3c14.1,4.4,26.7,11.9,39.6,19.1c5.5,3.1,8.7,6.8,7.5,13.3
		c-0.6,1.8-2.1,2-3.6,2.3c-4.3-13.2-17.1-16.2-27.3-21.6C361,67.5,348,62.6,334.9,58.6c-10.8-3.2-22.2-4.2-33.4-6.1
		c-1.3-0.2-2.7-0.1-3.2-2.7c3.3-2.5,7.4-0.8,11.1-1.4C323.1,48.6,336.7,49.3,349.7,54.4z"/>
	<path class="st27" d="M291.1,46.7c-2.2,5.5-7,5.5-12.1,0C283,46.6,287.1,46.6,291.1,46.7z"/>
	<path class="st45" d="M125.4,68.8c0.3,2.8,1.8,4.4,4.7,3.4c8.4-2.8,17.1-0.9,25.7-1.4c0.6,3.5-2.2,4.7-4.5,5.7
		c-12,5.5-23.2,12.7-36,16.4c-0.7,0.7-1.3,1.3-2,2c-4.1,0.6-10.1,6-10-3.9C109.6,82.7,117.2,75.4,125.4,68.8z"/>
	<path class="st46" d="M103.1,91c1.3,6.5,6.5,3.2,10,3.9c-5.9,4.2-11.8,8.4-17.8,12.6c-3.1,2.2-4.1,0.3-4.5-2.5
		C94.6,100,97.2,94.1,103.1,91z"/>
	<path class="st47" d="M392.6,103.3c-2.8,2.8-5.6,5.5-8.4,8.3c-11.2-6.2-20.2-15.6-31.6-21.3c-40.3-20-81.9-20.9-124.3-7.4
		c-29.6,9.4-54,26.5-74.9,49.1c-6.8,7.4-7.2,17.2-11.9,25.3c-0.7,1.1-0.6,2.8,0.6,3.6c2,1.4,3.8,0.1,5.5-0.9
		c5.1-2.9,7.7-9.7,14.8-9.5c4.1,3.7,0.1,5.9-1.7,8.1c-4.1,4.9-9.2,8.8-12.9,14c-2.3,2.9-4.3,6.4-8.4,7.3c-0.7,0-1.3,0-2,0
		c-5.1,4.3-10.8,6-16.7,2.5c-6.4-3.7-4.5-9.9-3.4-15.5c5.1-25.6,21.2-43.8,40.5-59.7c29.8-24.5,63.9-40.1,102.3-44.4
		c47.7-5.3,91.5,5.5,129.3,36.5C390.8,100.5,391.9,101.8,392.6,103.3z"/>
	<path class="st48" d="M398.6,97.3c-0.3,2.5-1.5,4-4.1,4.2c-8.1-4.2-15.1-9.9-22.8-14.7c-24.7-15.6-51.8-22.8-80.8-24.2
		c-37.5-1.7-72.6,6.9-105.1,25.4c-29.2,16.5-53.4,38.4-69.5,68.4c-4.7,8.8-6.8,18.3-6.5,28.2c0.3,9.5,3.6,11.4,12,7.1
		c3.6-1.8,6.4-6.7,11.5-3.7c-8.1,13.1-19.5,22.7-33,29.5c-8.6,4.4-14.4-0.1-12.9-9.7c5-31.4,17.3-59.5,39.3-83.1
		c32.2-34.4,71.8-56.5,117.5-65.3c46.3-8.9,91.5-2.2,133.2,21.3C385.2,85.2,392.7,90.3,398.6,97.3z"/>
	<path class="st49" d="M133.4,188c-5.8,0.6-8.6,6.1-13.7,8c-8.1,3-12.3,0.7-12.5-7.8c-0.4-14.8,3.8-27.5,11.6-40.6
		c22.3-37.6,56-60.5,95.2-75.1c33.1-12.4,67.8-16,103.6-8.6c24.8,5.1,47.1,14.4,67.7,28.5c3.7,2.5,7.1,5.1,9.2,9.1
		c-0.6,0.6-1.2,1.2-1.8,1.8c-8.6-3.1-15.2-9.7-22.7-14.5c-24-15.4-50.4-22.6-78.6-24.1c-38.3-2.1-73.8,7.5-106.6,27
		c-25.4,15.1-47.4,34-61,61.2c-3.5,7-4,14.8-5,22.4c-0.7,5.3,3.4,6.8,7.9,6.6c3.6-0.2,7.2-1.2,10.8-1.9
		C137.7,183.4,134.6,185.2,133.4,188z"/>
	<path class="st50" d="M139.5,179.9c2.1-2.7,4.2-5.3,6.3-8c2.4-1.9,3.8-0.7,4.8,1.7c0.4,4.8-2.6,8.2-4.9,11.7
		c-11.6,17.6-18.7,36.9-22.3,57.5c-9,53,5,98.9,41.8,138c7.8,8.3,16.7,15.5,25.1,23.2c1.7,4.2,4.8,6.7,9,8.6
		c9.3,4.2,18,9.5,26.8,14.7c1.5,2.5,4.4,4.6,2,8c-16.6,0.1-30.8-6.8-44.6-15.1c-3.1-2.8-6.9-4.8-9.2-8.4c-1.4-3.9-4.2-6.9-7.2-9.6
		c-30.5-26.8-45.3-61.7-52.6-100.7c-2.9-15.7-1-31.5-1.9-47.3c0.7-16.4,6.6-31.3,12.9-46.1C129.6,198.5,138,191,139.5,179.9z"/>
	<path class="st51" d="M125.3,208.2c-2.9,11.9-6,23.7-8.7,35.7c-0.8,3.5-1,7.2-1.4,10.8c-3.8,20.4-2.7,40.8,0.9,61
		c2,11.2,4.4,22.4,9.4,32.9c2,4.1,3.7,8.9-0.1,13.3c-18.2-20.6-28.1-43.7-25.1-71.9c1.6-14.5,1.5-29.1,6.9-43.1
		C112.3,233.6,116.9,220,125.3,208.2z"/>
	<path class="st52" d="M125.3,361.9c-2.4-16.5-10.6-31.5-12.9-48.1c-2.4-17.4-0.7-34.8-0.9-52.2c0-2.6,1.5-5.1,3.7-6.9
		c-1.2,28.6,1.3,56.6,11.9,83.6c8.1,20.7,18.6,39.4,34.6,55.1c5.5,5.4,13.6,9.2,14.3,18.5c-7.7,1.4-11.4-5.4-17.1-8.2
		c-5.3-5.9-11.9-10.5-17.4-16.3c-2.1-4.9-10.7-5.6-8.5-13.2c-0.4-3.5-4.3-3.7-5.8-6.2C126.6,365.9,125.9,363.9,125.3,361.9z"/>
	<path class="st53" d="M133.1,374.2c0.5,6.3,8.9,6.3,10,12.2c-2.8,17.4,7.5,28.9,19,38.8c25.8,22.3,56.8,31.7,90.4,35.4
		c28.7,3.2,56.2-1.5,83.5-8.7c19.8-5.2,37.6-14.6,53.2-27.7c10-8.4,17.8-18.3,19.2-32c2.1-2,4.2-4,6.2-6c7.3,7.8,8.2,17.1,3.7,25.9
		c-11.3,22.1-29.1,37.7-51.2,49c-9.7,5-20.7,7.4-29.6,14c-27.8,9.4-56.4,9.6-85.1,6.9c-29.8-2.8-57.5-12.5-83.1-27.6
		c-17.8-10.5-36-20.8-44.9-41.5C118.4,398.9,121.1,384.1,133.1,374.2z"/>
	<path class="st46" d="M115.2,92.9c12.2-9.7,27.9-13.2,40.5-22.1c19.5-5.4,38.1-14.2,58.6-16.2c-16.9,8.7-34,17-50.7,26.2
		c-13.2,7.2-25.3,16.1-36.8,25.9c-26.5,22.4-45.8,50.5-62,80.6c-14.3,26.5-27,54.1-31.8,84c-3.9,23.8-4.5,48-1,72.1
		c0.3,1.9-0.2,3.3-1.6,4.4c-4-2.1-5.6-5.8-5.9-9.9c-4.9-57.8,2.9-112.9,32-164.3c14.2-25,32-46.8,51.2-67.8c3-3.2,6.1-6.2,10.2-8
		c1.4-0.6,3.5-1.7,2-3.5C119,93.1,116.8,93.3,115.2,92.9z"/>
	<path class="st54" d="M416.6,175.5c-8.1,1.1-12.4,8-17.4,12.9c-28.1,27.3-55.7,55-83.2,83c-17.6,17.9-38,22.3-61.4,14.6
		c-2.5-0.8-4.5-1.1-6.2,1.4c-7.2-5.2-8.1-9.7-4.1-20.2c1.9-0.8,3.6,3.3,6.4-0.9c6.7-10.1,16.7-17.4,25.6-25.4
		c32.4-29.2,62.9-60.2,94.5-90.2c3.9-3.7,4.6-10.8,11.5-11.3c0.7,0.7,1.4,1.3,2.2,2c7.8,10.5,7.9,10.5-1.8,20.2
		c-32.4,32.4-64.8,64.8-97.2,97.2c-4.2,4.2-8.6,8.4-12.1,16.3c13.4-2.8,23.8-7.5,32.4-15.4c12.4-11.4,23.9-23.8,36.1-35.3
		c18.3-17.4,34.6-36.7,54.2-52.8c4.6-3.8,8.9-5.6,14.6-4.1C413.4,169.5,415.1,172.4,416.6,175.5z"/>
	<path class="st55" d="M410.6,167.3c-19.6,6.2-30.7,22.7-44.4,36.1c-20.6,20.2-40.7,40.7-61.8,60.3c-7.3,6.7-17.1,10.5-26.9,12.9
		c-2.4,0.6-5.8,1.4-7.4-1.3c-1.6-2.6,1.8-3.9,2.9-5.8c3.7-6.6,9.5-11.3,14.7-16.5c31.4-31.4,62.7-62.8,94.2-94.1
		c4.9-4.9,10.4-9.2,1.7-15.4c-0.2-0.1,0.6-1.5,0.9-2.4C395,148.1,403.4,157.2,410.6,167.3z"/>
	<path class="st56" d="M163.6,151.6c-6.6,1.1-9,7.8-14.1,10.9c-3.3,2-7.2,5.5-10.8,1.8c-2.8-2.9-0.5-6.5,1-10.1
		c22.6-51.9,67.9-71.2,118.7-81c34.2-6.6,67.5-0.3,98,16.5c10.2,5.6,21.2,11.4,27.9,22c-0.8,1.1-1.7,2.3-2.5,3.4
		c-2,1.6-3.8,3.5-6.7,2.8c-2.6-0.9-4.8-2.4-6.8-4.2c-39.7-35.9-85.2-37.9-133.8-23.7c-27,7.9-49.2,22.5-66.7,44.6
		c-1.5,1.8-2.8,3.8-4,5.8c-0.6,1.1-1.4,2.2-1.1,3.9c3.9-0.1,6.3-5.4,10.8-3.2C174.2,148.2,170.3,151.3,163.6,151.6z"/>
	<path class="st57" d="M382.3,139.3c-11.2,15.9-26.2,28.2-39.9,41.8c-11.1,10.9-22.4,21.7-33.5,32.6c-16.6,16.3-33.4,32.4-51.2,47.4
		c-2.7,2.3-4.3,6-6.9,8.5c-5.4,5.2-3.6-1-4.4-2.9c-1.2-1.2-1.6-2.6-1.7-4.2c0.2-3.4,2.1-5.7,4.9-7.4c8.4-4,14-11.5,20.5-17.7
		c34.5-33.3,68.4-67.4,102.6-101.1c1-1,2.1-1.6,3.6-1.1C378.8,135.7,380.9,137,382.3,139.3z"/>
	<path class="st58" d="M249.6,256.5c-1.1,2.1-2.3,4.1-3.4,6.2c-4.6,3.9,0.1,11-5.1,14.7c-4.7-4.4-3.1-9.9-2.3-15
		c1.3-8.6,6-15.8,12.2-21.6c35.3-33,68.4-68.1,102.9-101.9c2.9-2.4,5-5.5,6.8-8.8c1.7-2.2,4-2.8,6.6-2.5c1,0.2,1.8,0.7,2.6,1.5
		c0.6,0.8,1.3,1.6,1.9,2.4c1.4,3.7-1.3,5.7-3.4,7.7c-38.9,38.9-77.7,78-117,116.5C250.9,256.1,250.3,256.4,249.6,256.5z"/>
	<path class="st59" d="M249.6,256.5c1.5-4.3,4.8-7.2,7.9-10.3c37.6-37.4,75.2-74.8,112.7-112.3c0.7-0.7,1-1.7,1.6-2.5
		c1.5,1.2,3,2.4,4.5,3.6c-9.8,14-24.2,23.5-35.6,36c-12.6,13.7-26.3,26.5-39.6,39.5c-15,14.7-30.1,29.2-45.1,43.8
		C254.2,256.1,252.1,256.8,249.6,256.5z"/>
	<path class="st60" d="M369.9,129.1l-0.8,0l-0.8-0.2c-0.9-0.4-1.3-1.2-1.4-2.1c1.4-4.8,4.4-7.9,9.1-9.5c1.9-0.7,3.9-1.5,5.8-2.2
		C379.5,121.2,373.2,123.9,369.9,129.1z"/>
	<path class="st61" d="M418.5,186c1.8,2.6,1.5,5.3-0.1,7.9c-20,17.4-38.3,36.5-56.4,55.9c-15.3,16.4-31.7,31.6-48.9,46
		c-1.6-0.3-2.7-1.1-2.1-3c6.1-10.3,15.1-18.1,23.9-25.8c22.1-19.6,41.9-41.4,62.5-62.5C403.8,197.8,411.4,192.1,418.5,186z"/>
	<path class="st62" d="M256.6,299.3c17.8,11.1,34.2,11.1,46.7-0.1c2.6-1.7,4.1-0.9,4.4,2.2c-12.5,16.3-39.9,17.2-53.5,1.7
		C253.9,301.1,255,300,256.6,299.3z"/>
	<path class="st63" d="M256.6,299.3c-0.8,0.7-1.5,1.4-2.3,2.1c-8.8-0.8-9.8-9.1-13.9-14.4c-1.6-3.4-3-6.9,0.4-10.1
		c4.1-3.8-0.8-11.2,5.4-14.2c0.1,1.3,0.2,2.6,0.2,3.9c-3.1,7.3-2.9,14.2,2,20.7C249.8,292.2,253.1,295.8,256.6,299.3z"/>
	<path class="st64" d="M307.3,300.8c-1.3-0.5-2.6-1.1-3.9-1.6c1.6-3.3,4-5.5,7.6-6.5c0.6,0.8,1.3,1.5,1.9,2.3
		C313.8,299.7,311.8,301.5,307.3,300.8z"/>
	<path class="st65" d="M431,212.2c0.5-1.4,1.1-2.7,1.6-4.1c6.2,12.8,9.3,26.6,12.1,40.5c-0.1,22.1,1.1,44.3-2.8,66.2
		c-4.8,26.7-17.8,49.4-34,70.5c-2.1,2.8-4,5.3-3.5,9c0.3,6.6-6.2,7.6-9.3,11.4c-7.7,6.4-16.8,10.4-24.9,16.1
		c-3.9,1.7-7.4,5.1-12.3,3.1c-1.8-5.4,1.5-8.3,5.5-10.3c19-9.5,30.1-27.4,44.8-41.5c3-2.9,2.7-7.5,3.4-11.4
		c9.1-16,17.7-32.3,22.2-50.4c5.6-22.1,6.3-44.2,3-66.6c-1-7.5-2.9-14.9-5.1-22.1C430.6,219.2,428.5,215.9,431,212.2z"/>
	<path class="st66" d="M394.1,404.2c3.4-3.3,6.9-6.6,10.3-9.9c1.3-0.7,2.7-1.4,4-2.2c4,4.5,1.4,8.8-0.5,13c-7,15-19.6,24.6-33,32.8
		c-25.1,15.2-53,21.4-81.8,25.1c-30.9,4-60.9-0.2-89.6-10.7c-25.7-9.4-49.3-23.1-61.7-49.7c-2.6-5.6-4.8-11.3,1.3-16.3
		c5.7,5.2,12.3,9.4,17,15.7c8.4,16.7,23.9,24.9,39.6,32.5c21.1,10.2,43.4,15.1,67.2,14.1c10.2-0.4,20.5,0.8,30.9-0.1
		c30.6-2.5,58-13.3,83.5-29.5C386.8,415.5,392.1,411.2,394.1,404.2z"/>
	<path class="st67" d="M431,212.2c3,10.7,7.7,21,7.9,32.4c-7.2-1.4-7.4-7.9-8.7-13c-2-7.6-4.8-14.6-8.3-21.6
		c-2.8-5.4-5.9-5.6-10.4-2.4c-2.2,1.6-4.1,3.5-5.9,5.5c-22.9,25-48.3,47.6-71.5,72.4c-9.2,9.9-18.9,20-30.6,27.6
		c-20.3,13.2-51.2,5.5-62-15.9c-1.8-3.5-4.6-7.3,0.9-10.2c4,4.8,5.9,11.1,11.8,14.3c15.5,14.1,35.4,13.9,52.9-0.5
		c2.6-1.3,4.6-3,5.7-5.8c32.7-32.8,65.5-65.7,98.2-98.6c2.2-2.2,4.7-2.1,7.3-2.6C426.8,197.1,427.2,205.9,431,212.2z"/>
	<path class="st68" d="M367.9,127.2c0.1,0.6,0.2,1.2,0.4,1.7c-2.2,0.6-4.7,0.2-6.4,2.2c-3.6,1.9-6.6-0.1-9.4-1.6
		c-64-33.9-144-17.7-190.4,34.5c-4.6,2.8-5.8,9.7-12.3,10c-0.8-1.7-2.2-2.2-3.9-2.2c5.9-6.8,11.9-13.6,17.8-20.4
		c4-2.7,7.8-5.6,10-10.1c0.2-5,4.6-5.8,7.8-7.9c5.4-1.6,9.4-5.4,13.4-9.1c21.3-13.4,44.9-20,69.6-21.9c21.6-1.7,43.1-0.1,64,6.4
		C341.8,114.4,355.8,118.8,367.9,127.2z"/>
	<path class="st69" d="M242.6,287.1c-1.6,9.4,6.9,21.2,18.8,26.2c21.9,9.1,41.7,2.3,56.8-16.3c7.6-9.4,17.9-16.8,26.4-25.7
		c19.9-20.6,40.3-40.7,60.5-61.1c0.9-0.9,1.5-2.3,2.5-3.2c8.7-7.7,10.6-6.6,17,2.8c7.3,10.8,5.7,24.8,14.3,34.8
		c7.5,40.4-1,77.7-22,112.5c-1.4,2.3-2.8,4.6-4.1,6.9c-5.7,15.9-19.6,24.9-31.1,35.7c-10.8,10.1-23.9,17.1-37.5,23.1
		c-36,14.9-72.9,17.3-110.2,6.3c-16-4.7-31.3-11.4-44.1-22.7c-33.8-24.4-57.5-56-67.2-97c-5.3-22-7.2-44.3-1.5-66.6
		c5.7-13.8,9.3-28.3,16-41.8c7.2-14.6,18-26.4,27.3-39.4c29-31.9,66.4-45.6,108.1-48.5c26.4-1.8,52.1,3.6,76,15.4
		c4.3,2.1,9.7,4.2,7,11c-33.5,33.6-66.8,67.4-100.5,100.7c-10.6,10.4-16.3,21.9-14.4,36.8C240.4,280.5,240.1,284,242.6,287.1z"/>
	<path class="st70" d="M394.1,404.2c2.9,8.5-4.1,12-8.9,15.4c-12.9,9-27,15.8-41.7,21.5c-18.6,7.3-38.1,11.1-57.7,11.3
		c-30.6,0.2-61.5-0.9-89.3-16.1c-13-7.1-27.3-13.2-35-27.3c-1.1-2.1-4.2-3.9-1.4-6.9c5.3,3.3,10.7,6.6,16,9.8
		c2.9,2.1,5.7,4.1,8.6,6.2c3,5.9,9.2,7.8,14.4,10c18.5,7.9,37.3,15,58,14.4c4.4-0.1,8.6,1.2,12.9,1.7c27.4,2.7,53-4.8,78.2-13.9
		c7.3-2.6,16-3,21.4-10.1C377.6,414.8,385.8,409.5,394.1,404.2z"/>
	<path class="st71" d="M344.9,420c27.1-13.2,50.2-31.4,67.9-56c2.4,3.9,0.2,7.9-2,9.9c-15.6,14.4-26.4,34.1-47.1,42.8
		c-3.5,1.5-4.3,4.9-5.9,7.8c-1.7,6-7.7,5.9-11.9,7.4c-33,12.2-66.9,15.5-101.6,9.5c-5.6-1-12.4-0.4-15.9-6.9c-1.4-2-2.7-4-4.1-6
		c3.9-3.5,7.7-0.6,11.4,0.4c34,9,67.6,7.9,100.8-3.8C339.6,424,343,423.2,344.9,420z"/>
	<path class="st72" d="M228.4,434.6c40.1,12.1,79.6,9.1,118.6-5.2c3.7-1.4,7.2-3.3,10.8-4.9c3.9-1.5,7.7-2.9,11.6-4.4
		c3.3,5.1-2.3,4.7-4,5.5c-21,9.9-42.8,16-66,19.7c-25.7,4.1-50.3,0.1-74.8-5c-14.3-2.9-27.5-10.2-39.7-18.5
		c-1.6-1.1-2.5-2.3-0.3-3.8C198,426.7,213,431.2,228.4,434.6z"/>
	<path class="st73" d="M344.9,420c-0.9,4.5-0.8,4.6-4.6,6c-29.8,10.9-60.4,13.8-91.6,7.6c-8.1-1.6-16.2-3.4-24.3-5.1
		c-10.4-4-19-11.4-29.6-15.2c-2.2-0.8-6.7-2.4-4.8-7c31.1,19.4,64.8,28.7,101.6,26.3C310.1,431.4,327.6,426,344.9,420z"/>
	<path class="st7" d="M165.7,163.7c-10.3,14.3-21.4,27.9-29.1,44c-4.6,9.7-6.4,20.2-11.2,29.7c-1.1,2.2-1.9,4.2-4.1,5.3
		c2.2-21.8,11.3-41,22.6-59.3c1.9-3.1,3.9-6.2,5.9-9.3c3.3-3.5,6.5-6.9,9.8-10.4C161.6,162.3,163.6,161.9,165.7,163.7z"/>
	<path class="st74" d="M181.9,135.4c-2.8,2-5.6,4-8.4,6.1c-1.3,0.4-2.7,0.6-3.8,1.3c-3.4,2.1-6.7,8.3-10.5,4.3
		c-3.6-3.7,2-7.7,4.3-11.1c21.1-29.9,51.5-44.4,86-53.1c32.8-8.3,64-2.8,94.4,9c12.7,4.9,22,16.1,32,25.4c-2.7,3.3-5.4,6.6-8.1,10
		c-13.5-3.6-25.7-10.4-38.3-16.1c3.7-3.4,7.6-1.5,11.3-0.1c5.9,2.1,11.6,4.7,17.7,6.2c-16.1-14.8-35.3-22.9-56.8-25.2
		c-36.7-4-70.9,3.2-102,23.6c-4.7,3.1-11.1,5.6-10.9,13.2C188.6,133.2,184,133,181.9,135.4z"/>
	<path class="st75" d="M165.7,163.7c-2,0-4.1,0-6.1,0c24.9-29.4,57.1-46,94.7-52.4c38.2-6.5,73.9,1.5,107.6,19.8
		c-0.1,4.2-3.4,6-6.2,8.2c-2.7-11.7-14.5-12.3-22.1-14.9c-17.6-5.8-36.2-9.8-55.2-9.2c-37.5,1.2-71.3,13.1-101,36.2
		C173,154.9,169.6,159.6,165.7,163.7z"/>
	<path class="st76" d="M188,129.3c-5.6-3.2-2.2-5.7,0.6-8.3c13.3-12.5,29.7-19.6,46.6-25.1c34-11,68-11,101.1,3.3
		c11.2,4.9,22.1,11,30.1,23.3c-14-1.7-24.1-11.2-36.9-11.3c-13.9-1.4-27.3-5.8-41.4-6.4c-33.6-1.3-64.8,6.1-94,22.6
		C192.3,128.7,190.2,129.4,188,129.3z"/>
	<path class="st56" d="M188,129.3c1.5-2.3,3.9-2.1,6.2-1.9c-3,4.4-7,7.1-12.2,8C183.9,133.4,186,131.4,188,129.3z"/>
</g>
</svg>
