<?xml version="1.0" encoding="utf-8"?>
<!-- Generator: Adobe Illustrator 21.0.2, SVG Export Plug-In . SVG Version: 6.00 Build 0)  -->
<svg version="1.1" id="Laag_1" xmlns="http://www.w3.org/2000/svg" xmlns:xlink="http://www.w3.org/1999/xlink" x="0px" y="0px"
	 viewBox="0 0 566.9 566.9" style="enable-background:new 0 0 566.9 566.9;" xml:space="preserve">
<style type="text/css">
	.st0{fill:#171717;}
	.st1{fill:#121212;}
	.st2{fill:#BF5B28;}
	.st3{fill:#222222;}
	.st4{fill:#0A0A0A;}
	.st5{fill:#212020;}
	.st6{fill:#202020;}
	.st7{fill:#1B1B1B;}
	.st8{fill:#111010;}
	.st9{fill:#151414;}
	.st10{fill:#C2612B;}
	.st11{fill:#1B1B1A;}
	.st12{fill:#C15F2A;}
	.st13{fill:#BF602C;}
	.st14{fill:#C15F28;}
	.st15{fill:#181818;}
	.st16{fill:#C56930;}
	.st17{fill:#191919;}
	.st18{fill:#F7FBFE;}
	.st19{fill:#F2F7FC;}
	.st20{fill:#E2F0F6;}
	.st21{fill:#0D0D0D;}
	.st22{fill:#F2F8FB;}
	.st23{fill:#FDF0D7;}
	.st24{fill:#FEF8EF;}
	.st25{fill:#050506;}
	.st26{fill:#EBF3F7;}
	.st27{fill:#F37421;}
	.st28{fill:#F47821;}
	.st29{fill:#FBFDFE;}
	.st30{fill:#FDE3B6;}
	.st31{fill:#FED48F;}
	.st32{fill:#FDBD16;}
	.st33{fill:#F36E22;}
	.st34{fill:#FBC16F;}
	.st35{fill:#FDB916;}
	.st36{fill:#F37022;}
	.st37{fill:#FAAF51;}
	.st38{fill:#FBB518;}
	.st39{fill:#F47C21;}
	.st40{fill:#F48021;}
	.st41{fill:#F7941E;}
	.st42{fill:#F89A1E;}
	.st43{fill:#FBAA1A;}
	.st44{fill:#FBB018;}
	.st45{fill:#F9A21C;}
	.st46{fill:#FDB718;}
	.st47{fill:#F68720;}
	.st48{fill:#F68E1F;}
	.st49{fill:#F9AA1B;}
	.st50{fill:#FFE1AF;}
	.st51{fill:#FFDEA8;}
	.st52{fill:#F7A21D;}
	.st53{fill:#C16432;}
	.st54{fill:#FAB356;}
	.st55{fill:#FFD99B;}
	.st56{fill:#F3F8FD;}
	.st57{fill:#F6FAFD;}
	.st58{fill:#F2F6FA;}
	.st59{fill:#E7F5FA;}
	.st60{fill:#BE592A;}
	.st61{fill:#EBF4F8;}
	.st62{fill:#F6F9FC;}
	.st63{fill:#FFF0D3;}
	.st64{fill:#FFF8ED;}
	.st65{fill:#FFF3DD;}
	.st66{fill:#F27022;}
	.st67{fill:#F47D21;}
	.st68{fill:#FDD248;}
	.st69{fill:#FEC63A;}
	.st70{fill:#F9BC35;}
	.st71{fill:#FEDBA5;}
	.st72{fill:#FBD195;}
	.st73{fill:#FEC741;}
	.st74{fill:#FECD42;}
	.st75{fill:#FDD44A;}
	.st76{fill:#FFD349;}
	.st77{fill:#F8B838;}
	.st78{fill:#BF5C29;}
	.st79{fill:#BB5527;}
	.st80{fill:#FFDF64;}
	.st81{fill:#FEEB86;}
	.st82{fill:#FFD955;}
	.st83{fill:#FDE66F;}
	.st84{fill:#FFFBF2;}
	.st85{fill:#FFF4DE;}
	.st86{fill:#F17F22;}
	.st87{fill:#F68A20;}
	.st88{fill:#FFCF68;}
	.st89{fill:#FEC45C;}
	.st90{fill:#FFCB62;}
	.st91{fill:#FEC35C;}
	.st92{fill:#FFC516;}
	.st93{fill:#FEBB16;}
	.st94{fill:#FDBA61;}
	.st95{fill:#F8982B;}
	.st96{fill:#FBAC1E;}
	.st97{fill:#FCB617;}
	.st98{fill:#F8A31C;}
	.st99{fill:#F9AB1B;}
	.st100{fill:#FAC379;}
	.st101{fill:#F9C06F;}
	.st102{fill:#FCB74A;}
	.st103{fill:#FBAE41;}
	.st104{fill:#FAA93A;}
	.st105{fill:#F99E1D;}
	.st106{fill:#FAA335;}
	.st107{fill:#F99B2E;}
	.st108{fill:#FAA51B;}
	.st109{fill:#F99F31;}
	.st110{fill:#FAA938;}
	.st111{fill:#FFFAF0;}
	.st112{fill:#FFF7EA;}
	.st113{fill:#FEF5D6;}
	.st114{fill:#FEF2AF;}
	.st115{fill:#FDEF9F;}
	.st116{fill:#FCF2CC;}
	.st117{fill:#FFDEA3;}
	.st118{fill:#FCE1B1;}
	.st119{fill:#FFDB93;}
	.st120{fill:#FFD074;}
	.st121{fill:#FED582;}
	.st122{fill:#FFC96A;}
	.st123{fill:#FDBE59;}
	.st124{fill:#FEC562;}
	.st125{fill:#FCB648;}
	.st126{fill:#FFCB3D;}
	.st127{fill:#FFC43D;}
	.st128{fill:#F8992C;}
	.st129{fill:#FFC83D;}
	.st130{fill:#FDD856;}
	.st131{fill:#FEE16B;}
	.st132{fill:#FEE576;}
	.st133{fill:#FECA5F;}
	.st134{fill:#FCB124;}
	.st135{fill:#FFCC12;}
	.st136{fill:#FFCE12;}
	.st137{fill:#FFD111;}
	.st138{fill:#FDBA31;}
	.st139{fill:#FDB720;}
	.st140{fill:#FAA535;}
	.st141{fill:#FFC517;}
	.st142{fill:#FEBF15;}
	.st143{fill:#FBAD3F;}
	.st144{fill:#FDB52B;}
	.st145{fill:#FEE371;}
	.st146{fill:#FEE887;}
	.st147{fill:#F8B65D;}
	.st148{fill:#FEE67E;}
	.st149{fill:#FED289;}
	.st150{fill:#FFF6E9;}
	.st151{fill:#FFFFFB;}
	.st152{fill:#F47626;}
	.st153{fill:#FEC416;}
	.st154{fill:#FCB317;}
	.st155{fill:#FFEEA8;}
	.st156{fill:#FFF5CB;}
	.st157{fill:#FFF4CF;}
	.st158{fill:#FCE89F;}
	.st159{fill:#FAB119;}
	.st160{fill:#FFF4BF;}
	.st161{fill:#FFF3C7;}
	.st162{fill:#FFF2AB;}
	.st163{fill:#FFF4B0;}
	.st164{fill:#FFF7C8;}
	.st165{fill:#FFF2A5;}
	.st166{fill:#FEE54B;}
	.st167{fill:#FEE663;}
	.st168{fill:#FFD44A;}
	.st169{fill:#FFCF2C;}
	.st170{fill:#FEBD2F;}
	.st171{fill:#FEEB8C;}
	.st172{fill:#FEEA7A;}
	.st173{fill:#FEBC25;}
	.st174{fill:#FFC71A;}
	.st175{fill:#FBAF43;}
	.st176{fill:#FEEA96;}
	.st177{fill:#F47521;}
	.st178{fill:#F78F1F;}
	.st179{fill:#FED50F;}
	.st180{fill:#FED943;}
	.st181{fill:#F89B1D;}
	.st182{fill:#FFF1B9;}
	.st183{fill:#F79420;}
	.st184{fill:#F58121;}
	.st185{fill:#F68920;}
	.st186{fill:#FED90F;}
</style>
<g>
	<path class="st0" d="M471.5,397.2c-1.2,1.8-2.4,3.5-3.6,5.3c-3.5,4.9-8,9-11.7,13.8l-0.2,0.2c-3,2.3-5.8,4.8-8.2,7.8
		c-35.9,37-71.3,74.7-111.8,106.9c-11,8.8-22.5,16.9-34.1,24.9c-9.5,6.5-19.8,8.4-30.3,1.8c-17-10.6-33.6-21.7-47.8-36
		c1.1-11.6,10.3-12,18.7-13.6c5.5,1,10.6,2.9,15.5,5.5c6,3.9,11.6,8.3,18,11.6c9,5.9,17.2,2.8,24.9-2.6
		c19.4-13.4,36.9-29.1,54.2-45.1c22.8-22.3,45.1-45.1,67.8-67.6c3.7-3.4,7-7.4,12.1-8.9c4.8-1,6.3-5,7.8-9
		c12.4-19.9,29.5-35.7,46.7-51.3c5.9-2.5,11-7.5,18.1-6.4c5.2,0.9,11.5,1,11.3,8.9c-4.7,10.1-13.6,16.7-20.3,25.1
		c-2.8,5.2-7.6,8.7-11.1,13.4c-2.8,2.3-5.5,4.6-8.3,6.8C473.6,388.7,469.4,390.2,471.5,397.2z"/>
	<path class="st1" d="M518.9,343.5c-7.3-7.5-15-9-23.3-1.5c-1.7,1.6-3.5,3.4-5.5,0.3c1.3-12.9,13.2-19.1,18.6-29.4
		c16.1-21.1,12.8-37.6-12-58.6c-5-4.3-10.7-7.8-14-13.7c-1.3-2.3-2.1-4.7-2.5-7.3c-1.7-9.4-8.7-14.3-16.1-18.8
		c-3.6-1.2-6.5-3.5-9.4-5.9c-2.5-2-5.1-4-5.9-7.4c-0.2-1.3-0.1-2.7,0.2-4c5.4-9,14-11.9,23.8-12.8c29.4,28.6,55.4,60,78.5,93.9
		c6.5,9.5,6.5,17.4,0.1,27C542,319.3,531.5,332.2,518.9,343.5z"/>
	<path class="st2" d="M65.3,476.2c0.1-1,0.1-1.9,0.2-2.9c2-1.7,0.2-7.4,5.7-5.3c1.5,1.4,2.4,3.1,3.1,5c0.9,2.6,1.3,5.3,0.9,8.1
		c-0.8,10.8-1.6,21.6,0.6,32.3c2.9,9.6,8.5,6.4,14.1,2.8c13.1-8.5,28.4-13.2,41-22.6c7.5-7.6,18-10.4,26.5-16.5
		c12-8.1,24.3-15.6,36.7-23c8.1-3.5,15.5-8.3,22.9-13.1c3.2-1.9,6.2-3.9,9.2-6c4.6-2.8,9.1-5.9,13.8-8.5c3.1-1.7,6-3.6,8.8-5.8
		c3.3-2.4,6.2-5.4,10.1-7c4.3-2,8.1-4.7,12.1-7.4c3-2.1,6.2-3.9,9.3-5.7c4.3-2.4,8.4-5.2,12.4-7.9c1.5-1.1,3-2.2,4.5-3.2
		c3.2-1.9,6.2-4.1,9.2-6.2c14.5-9.3,28.6-19.2,43-28.6c6-3.8,11.8-7.8,17.6-11.9c10.2-8.1,21.6-14.7,31.9-22.6
		c4.7-3.6,10.4-6.6,11.4-13.5c4.3-15.2,1.7-30.7,2.5-46.1c0.8-4.7-0.3-10.5,6.7-11.6c5.9,8.7,4.6,19,6.6,28.6
		c0.1,9.6,0.1,19.1,0,28.7c0,4.5-0.9,8.9-2.6,13.1c-0.5,1.3-1.2,2.5-2,3.7c-2.4,3.3-5.9,5.2-9,7.6c-4.7,4.1-9.3,8.2-14.6,11.5
		c-3.1,2.2-6.3,4.1-9.3,6.4c-26.8,20.4-56.2,36.7-83.7,56c-11.2,7.6-23.2,14-34.2,21.9c-3.8,2.2-7.8,3.8-11.4,6.4
		c-4.1,2.7-8.2,5.4-12.2,8.3c-4.8,3-9.4,6.1-14.3,8.9c-10.2,6.3-20.4,12.8-30.5,19.3c-7.8,4.3-14.6,10.7-24,11.7
		c-29.8,15.8-57.8,34.8-88.6,48.7c-17.7,8-21.1,6-24.4-13.8C64.7,502.7,66.2,489.5,65.3,476.2z"/>
	<path class="st3" d="M198.1,87.8c22.9-22.2,46.7-43.2,73.7-60.5c5.1,2.9,10.9,2.5,16.4,3.3c13.8,2.1,24.6,9.2,31.7,21.1
		c4.6,7.7,4,14.5-6.2,17.4c-7.5,0.9-12.1-4.6-17.2-8.4c-6.7-4.9-12.7-4.9-19.2,0.1c-18.5,14.5-36.2,29.8-53.6,45.6
		c-5.8,5.3-10.7,12.1-19.2,13.6c-9.9-3.2-12.5-9.9-9-19.3C197.1,96.7,199.3,92.6,198.1,87.8z"/>
	<path class="st4" d="M106.4,408.3c-26.8-29.8-54-59.1-77.5-91.7c-2.7-3.8-5.7-7.3-6.7-12c0-4.4-6.4-8-2.3-12.7
		c3.6-4.2,8.6-1.9,13-0.9c3.6,0.8,7.3,1.3,10.9,2c2.1,0.5,3.9,1.5,5.5,2.9c11.4,14.5,20.9,30.5,34.4,43.4
		c10.4,12.7,20.7,25.4,32.2,37.2c4.2,4.3,9.4,7.9,10.4,14.6C122.6,400.2,118.2,408.5,106.4,408.3z"/>
	<path class="st5" d="M311.8,67.5c10.5-3.5,9.3-9.9,3.7-16.7c-8.3-10-18.2-17.3-32.2-16.9c-5.1,0.2-10.8,0.9-11.5-6.7
		c9.8-7.1,19.3-6.6,29.7-0.6c15,8.6,27.9,19.9,41.5,30.3c4,2.3,7.3,5.6,11.1,8.3c14.8,11.2,27.8,24.3,40.8,37.4
		c0.2,1.4-0.1,2.7-0.8,3.9c-9.1,7.4-19,13-31.1,13.6c-7.6-5.3-14-11.7-19.4-19.2c-7.3-8.4-16.4-14.7-24.3-22.4
		C316.3,75.3,312.3,72.6,311.8,67.5z"/>
	<path class="st6" d="M198.1,87.8c8.9,1.3,4.5,6.7,2.3,9.9c-5.8,8.6-4.6,15.3,3.6,21.2c-9.5,16.9-26,27.4-38.2,41.8
		c-11.4,9.3-18.9,23.1-33.4,29c-11.8,0.6-14.8-8.9-19.2-16.8c8.9-11.6,18.9-22.2,30.1-31.5c3.6-2.7,6.7-5.7,9.3-9.4
		C166.3,115.7,182.3,101.9,198.1,87.8z"/>
	<path class="st7" d="M113.3,172.9c9.3,1.6,8.7,17.6,21.2,14.7c0,4.5-3.2,7.3-5.8,10.3c-17.2,17-34.2,34.2-49.6,52.9
		c-3.1,3.8-6.9,6.2-11.7,7c-11.6,0.3-14.7-7.4-16.1-16.8C71.1,217.5,90.5,193.7,113.3,172.9z"/>
	<path class="st8" d="M178.2,481c6.8-5.8,14.3-10.4,22.6-13.7c3,0.4,5,2.4,7.2,4.1c1.8,1.3,3.8,2.5,5.7,3.7c3.3,2.5,6.1,5.5,9,8.3
		c3,3,6,6,9,8.9c4,5.9,13,8.6,11.8,17.9c-7.6,2.2-15.3,4.2-19.8,11.7C208.6,508.3,193.4,494.6,178.2,481z"/>
	<path class="st9" d="M51.2,241c5.5,5.1,6,16.1,17.2,14.3c1.5,1.8,1.5,3.7,0.9,5.8c-9.4,10.3-16.1,22.4-24.1,33.7
		c-4,2.8-8,2.1-12,0.1c-11.5-5.6-13.6-0.6-11.1,9.7c-7.1-7.1-6.3-14.4-1.4-22.6C29.5,267.3,39.3,253.3,51.2,241z"/>
	<path class="st10" d="M439.4,82.6c8.7-7.4,19.8-9.7,29.8-14.1c10.8-4.8,14.5,5.1,15.7,12.2c4,23.5,6.4,47.1-16.8,64
		c-5.9,4.3-12.1,9.1-15.6,16c-3.3,7-8.3,11.9-16,13.9c-3-0.3-5.1-1.7-6.5-4.3c-0.1-7.9,6.8-11.2,10.8-16.3
		c11.3-13,28.9-20.7,33.3-39.6c2-10.6,1.6-21.2,0.2-31.8c-3.8-7.8-9-2.4-13.7-1.4c-1.1,0.6-2.3,1-3.4,1.5c-4.2,1.6-8,4.2-12.7,4.5
		C441.8,86.8,439.1,86.4,439.4,82.6z"/>
	<path class="st11" d="M436.2,172.7c6.2-3,9.4-10.1,16.3-12c6.8,7.8,15.3,14.2,20.2,23.7c-5.9,7.1-17.9,5-22.2,14.6
		c-4.4,1-6.8-2.3-9.7-4.5c-3-3-6.9-5.2-9.4-8.9c-1.3-2.2-2.3-4.5-2.1-7.2C429.8,174.3,433.8,174.4,436.2,172.7z"/>
	<path class="st12" d="M106.4,408.3c7.7-4.3,13.3-10.8,18.8-17.5c1.3-3.8,3.5-6.5,8-6.3c1.8,0.7,3.1,2,3.8,3.9
		c0.3,2.7-0.9,4.8-2.4,6.8c-2.8,3.2-5.9,6.1-8.8,9.2c-5.7,5.6-11.4,11.3-16.9,17.1c-9.3,7.8-15.1,18.8-24.1,26.9
		c-2.6,2.4-4.7,5.3-7.1,8c-1,0.7-2.1,1-3.2,1c-4.5-4.1-1.2,3.4-3.6,2.5c-1.2,0.3-2.2,0-3.1-0.8c-1.1-9.6,5.5-15.4,11-21.5
		C87.7,427.7,97.1,418.1,106.4,408.3z"/>
	<path class="st13" d="M394.1,104.9c0.1-0.8,0.4-1.6,0.8-2.3c12-5.7,24-11.5,35.9-17.2c1.9,0.6,3.1,1.9,3.7,3.8
		c0,1.3-0.4,2.4-1.1,3.5c-2,2.3-4.7,3.8-7.2,5.6c-2.9,2.1-6.1,3.9-9.2,5.6c-3.2,1.7-6.1,4.1-9.4,5.6c-2.5,0.8-5,0.8-7.5,0.1
		C397.7,108.7,395.4,107.4,394.1,104.9z"/>
	<path class="st14" d="M65.3,476.2c4.3,13.2,4.5,26.5-0.1,39.7C61.3,502.7,62.7,489.5,65.3,476.2z"/>
	<path class="st15" d="M471.5,397.2c-3.9-1.6-6.9-3.9-3.7-8.3c3.5-4.9,7.6-4.6,11.5-0.1C477.8,392.7,475.2,395.5,471.5,397.2z"/>
	<path class="st16" d="M433.6,90.3c-0.9-1.6-1.8-3.3-2.7-4.9c2.6-1.7,4.9-4.4,8.5-2.8c1.9,0.8,3.9,1.7,5.8,2.5
		C443.7,92.1,439.8,93.8,433.6,90.3z"/>
	<path class="st17" d="M487.5,381.9c1.1-6.6,6.2-9.9,11.1-13.4C497.6,375.2,492.6,378.6,487.5,381.9z"/>
	<path class="st17" d="M456.2,416.3c1.2-6.9,6.3-10.5,11.7-13.8C466.4,409.1,460.9,412.4,456.2,416.3z"/>
	<path class="st14" d="M67.7,459.1c1.1,0,2.1,0.1,3.2,0.1c2.3,2,2.4,4.5,1.5,7.2c-0.4,0.5-0.8,1-1.3,1.5c-1.9,1.8-3.7,3.6-5.6,5.4
		C65.2,468.4,65.2,463.6,67.7,459.1z"/>
	<path class="st3" d="M354.1,65.3c-5.5-0.3-8.5-4-11.1-8.3C348.7,57.1,351,61.7,354.1,65.3z"/>
	<path class="st3" d="M152.7,132c-1,5.2-4.2,8.3-9.3,9.4C145.5,137.2,148.7,134.2,152.7,132z"/>
	<path class="st17" d="M447.9,424.4c0.5-4.9,3.4-7.3,8.2-7.8C454.1,420,451.8,423,447.9,424.4z"/>
	<path class="st18" d="M243.6,510.2c-4.6-5.7-9.3-11.4-13.9-17.1c2.9-9.3,13.9-6.8,18.9-13.1c31.8-18.8,63.2-38.3,94.9-57.4
		c10.2-7.6,22.4-11.8,32.4-19.8c4.6-3.1,9.1-6.5,14-9c14.8-7.6,27.7-16.8,31.5-34.4c11.5-6.5,22.8-13.3,28.2-26.5
		c2.6-6.5,4.4-13.5-0.9-18.6c-13.6-12.9-18.1-27-8.2-44.9c-5.8,3.6-6.8,11.6-14.2,11.9c-2.3-0.7-3-2.6-3.6-4.5
		c-1.2-9.1-2.3-18.3-3.5-27.4c-0.9-1-1.5-2.1-1.8-3.4c-0.4-3.5,0.7-6.8,3.3-8.8c12.3-9.8,22.4-22.1,35.9-30.4c2.7,2.2,5.3,4.3,8,6.5
		c3.3,0.9,4.8,3,4.7,6.4c-2.2,7.2-7.8,12.8-8.6,20.7c-0.9,8.5,1.2,13.5,11.2,13.2c30.1-0.8,44,15.9,38.2,46
		c-1,5.3,1.7,10.2,0.3,15.3c-6.7,9.1-13.5,18.3-20.2,27.4c-14.9,17.2-32.3,32.1-45.4,50.8c-1.5,4.2-3.8,7.6-8.4,8.8
		c-3.7,3.1-7.3,6.1-11,9.2c-6.1-2.9-1.9-5.3,0-8.1c-55.3,38.6-107.6,81.8-167.9,113.1C252.8,514.2,248.2,512.2,243.6,510.2z"/>
	<path class="st19" d="M257.4,516.1c2.4-7,6.3-11.3,14.6-12.3c8.3-1,16.5-4.7,22.6-10.7c24.1-23.5,54.7-37.7,81.2-57.7
		c17.8-13.4,34.3-28.7,54.9-38.7c2.4,7.3-9.3,7.4-5.5,14.3c-21.7,23.7-43.5,47.2-68.1,68c-21.9,13.6-42.1,30-65.3,41.6
		c-5.7,2.9-10.4,8.4-17.8,6.9C267.4,525.5,262.2,521.1,257.4,516.1z"/>
	<path class="st20" d="M274.2,527.6c24.2-15.8,51.1-27.4,72.6-47.4c2.9-2.6,6.7-3.4,10.4-1.1c-17.8,18.7-37.4,35.3-59,49.5
		C290,534,281.9,535.3,274.2,527.6z"/>
	<path class="st21" d="M436.3,401.9c2.8-2.9,5.6-5.9,8.4-8.8C444.2,398.2,444.4,404,436.3,401.9z"/>
	<path class="st22" d="M510.3,314.9c-6.4-4.8-5.8-10.3-3.5-17.3c7.8-23.4-10-43.6-34.5-39.9c-12.5,1.9-16.3-1.6-16-14.2
		c0.2-10,5.3-17.7,11.3-25c7.8-1.1,8.3,6.8,12.5,10.2c1.7,3.1-3.6,9.9,5,9.4c9.7,12.3,23.7,20.6,31.3,35.2
		C526.5,292.8,526.3,298.7,510.3,314.9z"/>
	<path class="st23" d="M442.3,192.6c2.7,2.1,5.4,4.2,8.2,6.3c0.1,0.9,0,1.7-0.3,2.5c-0.1,7.5-5,11.9-10.5,15.7
		c-9.3,6.6-16.8,14.9-23,24.5c-6.1,0.2-8.9-3.4-10.2-8.8C415.8,217.1,426.3,202.4,442.3,192.6z"/>
	<path class="st24" d="M416.7,241c-0.2-12.4,10.3-17.5,17.8-23.8c5.8-4.9,11.3-9.7,15.7-15.8c2.1,1.8,4.3,3.6,6.4,5.4
		c-6.5,10.8-16.8,17.9-26.2,25.8c-4.7,3.9-10.2,7-10.8,14C414.7,246.7,414.9,244.2,416.7,241z"/>
	<path class="st25" d="M479,230.6c-3.8-4-7.6-8.1-11.4-12.1c-1-1.7-2-3.4-3.1-5.2c9.6,1.8,16.8,9.3,18.2,19.1
		C480.9,233,480.4,231,479,230.6z"/>
	<path class="st26" d="M479,230.6c1.2,0.6,2.5,1.2,3.7,1.8c0.8,1.9,1.6,3.8,2.4,5.7c-3.3,1.1-6.6,4.1-9.9,0.1
		C470.7,232.7,481,234.8,479,230.6z"/>
	<path class="st27" d="M416.6,261.1c-0.3,16.9,1.7,34-2.9,50.7c-4.4,1.1-5.3-2.9-6.9-5.2c-6.9-9.8-15.2-12.8-25.9-6.1
		c-13.7,10.8-20.6,26.8-31,40.2c-5,6.4,6.7,10.4,1.6,16.4c-15.1,9.6-28.8,21.3-45.2,28.8c-7.6-3.9-4.1-9.6-2.1-14.6
		c4.3-10.4,9.5-20.5,6.6-32.5c-1.2-5.1,2.3-9.4,6.6-11.6c20.9-10.5,37.2-27.4,56.9-39.5c11-6.8,22-11.3,34.2-3.1
		c1.8,1.2,2.1,0.2,1.9-1.4c-0.1-0.9-0.1-1.9-0.2-2.9c0-4.3-0.1-8.5,0.3-12.7c0.3-2.2,0.9-4.3,2.2-6.2
		C414,259.9,415.3,259.9,416.6,261.1z"/>
	<path class="st28" d="M413.9,280.6c0,3.7,0,7.4,0,11.8c-13.2-11.3-21.4-11.7-35.4-3.4c-21,12.4-37.5,31.3-60.2,41.1
		c-1.9,0.8-4.8,3.9-4.4,5c6.2,17.3-4.3,30.8-9.6,45.5c-0.5,1.3,1.3,3.4,2,5.2c-1.8,3.5-4.7,5.4-8.6,5.7c-5.8-6.2-3.9-14-3.7-21.1
		c0.2-9.3-0.1-18.4-2.3-27.5c-0.1-1.5,0.1-2.9,0.4-4.3c10.4-15.1,27.4-22.3,40.9-33.7c5.1-3,10.1-6.1,14.7-9.8
		c14.6-9.4,25.9-23.9,43.9-27.7C401.2,268,409.7,270.7,413.9,280.6z"/>
	<path class="st29" d="M425,280.6c5.6-2.6,8.6-6.9,9.1-13.2c0.3-3.6,2.5-6.6,6.6-5.4c3.6,1.1,5.6,5.4,4,8
		c-11.5,18.2-4.2,31.6,8.8,45.5c7.2,7.7,0.8,16.8-3.9,24.5c-6.3,10.4-14.3,18.5-27.2,19.9c-2.8-2.3-3.4-5.5-3.8-8.8
		c-0.5-10.4,0.1-20.7,1.4-31c1-3.4,4.2-6.3,2.6-10.4C425.9,300.2,421.8,290.1,425,280.6z"/>
	<path class="st30" d="M207.1,472.8c-2.1-1.8-4.2-3.7-6.3-5.5c9.7-7.8,20.2-14.2,31.5-19.5c10.6-4.2,22.1-6.1,31.2-13.6
		c1-0.9,2.1-1.7,3.3-2.5c41-18.2,82.7-35.1,120.7-59.5c7.7-2,12.6-7.9,18.1-13c4-3.6,7.7-8.9,14.5-5.1c0.8,2,0.8,4.1,0.1,6.2
		c-21.4,22.7-47.6,38.2-75.6,51.1c-39.3,18.2-78.9,35.8-117.4,55.7C221,470.3,214.6,473.6,207.1,472.8z"/>
	<path class="st31" d="M388.5,374.2c-25.8,19.2-54.9,32.2-84.3,44.7c-12.4,5.3-23.7,13.5-37.6,14.9c-4,1.9-8,3.7-8.8-3.2
		c3-3,6.6-4.9,10.8-5.8c32.7-17.4,68.3-29,99.8-48.9c18.7-11.8,34.7-25.6,42.8-46.9c2.7-2.1,5.4-4.3,8.1-6.4
		C423.6,345.6,414.1,361.4,388.5,374.2z"/>
	<path class="st32" d="M73.7,479.1c-0.8-1.9-1.6-3.8-2.4-5.7c5.7,2.7,8.6-1.1,12.6-4.3c7.7-6.1,14.4-13.7,23.2-18.4
		c5-1.3,9.2-6.8,15.2-3c0.8,9-7.8,10.7-12.2,15.7C105,469.2,95,475,99.6,482.6c3.7,6,13.6,0.4,20.8-1.1c10.1-2.1,19-11.2,30.4-5.2
		c0.4,1.5,0.1,2.9-0.9,4.1c-18.6,12.3-39.7,19.2-60.4,26.4c-15.2,5.3-17.4,2.7-17.2-14C72.5,488.3,71,483.5,73.7,479.1z"/>
	<path class="st33" d="M379.8,297.6c16.4-8.4,23.4-5.5,33.9,14.1c-12.9,14.1-30.5,22.1-45.2,33.8c-3.5-2.5-4.9-6.3-3-9.9
		C371.9,323.6,373,309.5,379.8,297.6z"/>
	<path class="st34" d="M411.2,329.1c-0.2,18.8-12.8,29.6-26.2,39.6c-26.2,19.7-56,32.9-86.1,45.1c-10,4-19.1,10.5-30.3,11
		c10.6-8.8,22.7-15.5,34.6-22.3c6.6-2,12-6.5,18.5-8.6c12.5-1.8,23-8.3,33.2-15.2c2-1.5,4.1-2.9,6.4-3.9c4.7-1.5,8.2-4.6,11-8.5
		c2.1-2.4,4.7-4.1,7.5-5.4c6.2-2.3,11.6-5.5,13.6-12.4c0.5-3,2.8-5.4,3.2-8.5C401.5,336.4,406.3,332.7,411.2,329.1z"/>
	<path class="st35" d="M150.2,479.1c0-0.9,0-1.9,0-2.8c3.8-10.9,17.1-9.3,22.9-17.5c1-0.9,2.1-1.6,3.2-2.3
		c8.2-4.7,15.7-10.3,21.9-17.6c7.8-9.2,6.7-16.9-3.2-23.5c-4.3-2.9-11.5-2.9-11.3-10.7c3.6-5.3,8.6-7.4,14.8-7.2
		c4.3,0.6,7.8,3.3,11.3,5.5c17.1,10.7,18.5,24.1,3.7,37.6c-5.8,5.4-12.6,9.8-18,15.7c-12.1,7.7-24.1,15.4-36.2,23.1
		C156.3,480.8,153.2,481.6,150.2,479.1z"/>
	<path class="st2" d="M416.6,261.1c-0.9-0.2-1.7-0.3-2.6-0.4c-3.1-2.3-3.4-5.9-4.3-9.2c-5.4-10.4-16.3-11.6-25.8-15.1
		c-5.9-2.2-13.5-2.3-14.2-11.1c4.8-11.7,17.8-15.4,24.8-25c4.1-3.9,8.2-7.8,12-12c4.7-4.9,7.7-11.4,13.9-15c3.3-1.6,6-5,10.3-3.3
		c1.8,0.9,3.6,1.8,5.4,2.7c-1.9,2.2-3.8,4.4-5.7,6.6c-2.3,6.3-7.8,10-12,14.8c-6.7,6.4-13.3,13.1-19.8,19.7
		c-2.9,2.8-5.8,5.6-7.7,9.2c-0.3,3.4,2.8,2.3,4.3,3.2c1.8,0.4,3.5,0.9,5.2,1.6c2.9,1.1,5.8,2,7.5,4.9c2.7,2.9,4.5,6.8,8.6,8.2
		c0.9,1.9,0.2,4.7,2.9,5.7c-0.1,0.9-0.2,1.9-0.3,2.8C415.4,252.7,417.2,257.1,416.6,261.1z"/>
	<path class="st36" d="M379.8,297.6c-0.1,11.9-3.3,23.1-8.8,33.5c-2.5,4.7-4.9,9-2.6,14.4c-5.7,3.8-11.3,7.6-17,11.4
		c-6.3-7.3-9.1-16.5-1.9-23C361.6,323.2,363.4,304.3,379.8,297.6z"/>
	<path class="st37" d="M323.1,396.9c-7.1,0.4-12.4,6.9-20,5.6c28.4-18.9,56.8-37.7,85.2-56.6c2.4,2.1,2.4,4.8,1.8,7.6
		c-1.6,5.1-6.6,6.5-10.3,9.4c-1.9,1.9-3.8,3.7-5.8,5.6c-4,2.5-7.4,5.9-11.4,8.5c-1.9,1-3.8,1.9-5.6,2.9
		C346.3,386.4,334.8,391.8,323.1,396.9z"/>
	<path class="st38" d="M150.2,479.1c3,0.1,6.1,0.2,9.1,0.3c-8.9,5.5-17.9,10.9-26.8,16.4c-19.3,5.1-35.1,19.1-55.4,21.6
		c-1.4,0-2.6-0.4-3.7-1.3c-3.9-12.3-4.1-24.7,0.2-36.9c0,1.9,0,3.8,0,5.7c0,22.8,3.6,25,25.3,15.6
		C116,493.1,133.2,486.2,150.2,479.1z"/>
	<path class="st39" d="M294.5,339.6c6.1,17,2,34.5,3.2,51.8c-1,0.8-2,1.7-2.9,2.5c-8.7-2.8-9.7-10.5-10.6-17.7
		c-1.1-8.8-3.3-17.1-7.8-24.8c0-2.9,1.4-5.1,3.5-7.1C284.4,341.8,288.2,336.7,294.5,339.6z"/>
	<path class="st40" d="M277.7,351.3c8.4,4.6,8.9,13.7,9.4,21c0.6,8.4,3.2,15.1,7.6,21.6c-4.1,3.8-8.2,7.7-14.1,8.7
		c-4.4-14.8-6-30.5-13-44.6c-0.2-1.5,0.1-2.9,0.6-4.3C270.8,350.7,273.6,348.6,277.7,351.3z"/>
	<path class="st41" d="M260.8,416.4c-3.7,2.1-7.5,4.2-11.2,6.3c-3.6-3.9-1.5-8.1-0.2-11.9c4.7-13.9,4.5-27.6-0.9-41.2
		c0.5-3.8,3.1-6.3,5.8-8.5c2.6-1.4,5.1-3.2,7.8-0.2C270.6,379.6,272.9,398.1,260.8,416.4z"/>
	<path class="st42" d="M249.5,368.6c10.6,11.5,6.7,25,4.7,38.1c-0.8,5.5-3.1,10.7-4.6,16.1c-1.9,3.3-4.7,5.2-8.5,5.5
		c-8.2-5.5-0.2-10.4,0.5-15.6c3-12.7,3.9-25.3-2.1-37.5c0.2-4.1,2.7-6.1,6.2-7.4C247,367.4,248.3,367.7,249.5,368.6z"/>
	<path class="st43" d="M226.9,436.8c-1.8,3.5-4.7,5.2-8.5,5.7c-3.1-3-1.1-6,0.2-8.9c7.4-17.4,5.8-22-11.2-31.7
		c-2.4-1.4-4.7-3-6.7-4.9c-0.5-4.4,2.3-6.6,5.7-8.4c4.2-1.7,8.5-3.2,13.1-1c10.7,9.8,20.3,20.2,15.9,36.6
		C234.6,429.8,230,432.8,226.9,436.8z"/>
	<path class="st44" d="M201.3,396.8c25.7,8.5,27.1,12.1,17.1,45.7c-6.5,6.3-13.9,11.2-22.8,13.7c0.7-7.5,6.7-11.2,11.7-15.1
		c17.6-13.6,19.2-24.9-1.9-36.7c-2.4-1.3-4.6-3.2-6.9-4.8C197.8,397.1,198.7,396.1,201.3,396.8z"/>
	<path class="st45" d="M226.9,436.8c-0.7-5.1,3.9-7.6,5.6-11.6c4.8-10.4,4-19.8-4.3-28.3c-3.2-3.4-5.4-7.6-7.9-11.6
		c1.6-6.8,7.2-8.2,12.8-9.5c1.5,0.1,2.8,0.8,3.7,2.1c5.7,11.3,8.1,23.3,6.9,36c0.9,5.1-7.2,8.5-2.8,14.3
		C236.8,431.9,232.7,435.7,226.9,436.8z"/>
	<path class="st46" d="M107.7,453.5c-7.6,6.2-16,11.6-22.5,18.7c-5.2,5.7-9.1,3.6-13.9,1.2c-0.1-1.8-0.1-3.7-0.2-5.5
		c0,0-0.1,0-0.1,0c3.2-3.1-0.7-8.1,3.1-11c0.8-0.2,1.6-0.4,2.4-0.7c1.6,0.4,3.1,1,4.7,0.9c4.7-1,8.4-3.9,12.6-5.9
		c5.3-2,10-6.7,16.5-4C112.5,450.6,109.7,451.9,107.7,453.5z"/>
	<path class="st47" d="M269.3,357.1c9.3,13.8,13.4,28.9,11.4,45.6c-2.8,1.9-5.7,3.7-8.5,5.6c-2.4-1-4.4-3-3.8-5.3
		c4.2-15-2.6-28.4-5.7-42.4C264,357.7,265.9,356,269.3,357.1z"/>
	<path class="st48" d="M263.6,360.1c9.4,14.9,8.8,31.5,8.5,48.1c-3.8,2.7-7.6,5.4-11.4,8.1c6.6-18.7,4.2-37.5,0.1-56.2
		C261.7,359.4,262.7,359.4,263.6,360.1z"/>
	<path class="st49" d="M76.5,515.9c16-7.1,32.1-14,48.1-21.2c3.1-1.4,5.4,0,7.9,1.1c-12.2,10.7-28,15-41.7,23.1
		C85.8,519.4,80.6,520.3,76.5,515.9z"/>
	<path class="st50" d="M388.5,374.2c5.5-5,10.6-10.5,16.4-15c12.3-9.4,17.4-21.3,14.4-36.5c0-0.9,0.2-1.8,0.7-2.5
		c5.3,10.1,1.1,20.8,2.2,31.2c-0.8,1.1-1,2.7-2.7,3c-7.9,0.6-11,7.5-16,11.9C399,370.2,395.4,375.2,388.5,374.2z"/>
	<path class="st51" d="M266.5,436.5c-9.9,8.2-21.3,11.9-34.2,11.3c3.8-4.3,8.5-6.9,13.8-8.6C252.6,436.3,259.1,432.9,266.5,436.5z"
		/>
	<path class="st52" d="M76.5,515.9c5-0.3,9.9,0.2,14.3,2.9c-6.7,4.7-13.6,10.8-17.4-2.8C74.5,516,75.5,515.9,76.5,515.9z"/>
	<path class="st53" d="M425,280.6c-1.5,9.7,2.1,19.7-2.3,29.1c0-10.9,0-21.9,0-32.8C423.5,278.2,424.2,279.4,425,280.6z"/>
	<path class="st54" d="M388.3,354.3c0-2.8,0-5.6,0-8.4c2.8-2,5.5-3.9,8.3-5.9c3.7,2.8-0.8,5.8,0.2,8.6
		C394.3,351,393.6,356.1,388.3,354.3z"/>
	<path class="st55" d="M266.5,436.5c-6.8,0.9-13.6,1.8-20.3,2.6c3.9-2.9,7.8-5.7,11.7-8.6c2,3.6,5.5,3,8.8,3.2
		C266.5,434.7,266.5,435.6,266.5,436.5z"/>
	<path class="st56" d="M164.5,158.9c11.7-14.8,25.9-27.3,39.6-40.1c20.2-17.3,40.3-34.7,60.5-52c1.7-1.5,3.3-3,4.8-4.6
		c16.6-18,29.3-4.9,42.4,5.3c2.8,3,5.6,6.1,8.4,9.1c5.1,16.6,0.4,30.9-11.4,42.8c-20.2,20.5-39.4,42-62.1,59.9
		c-3.4,2.7-6.2,5.8-7.4,10.1c-8.1,10.9-18.7,17.6-32.3,19.3c-5.7-2.2-11.5-3-17.7-2c-8.8,1.5-14.9-2.4-15.7-11.5
		c-0.7-7.5-3.3-13.3-9.3-17.8C156.3,171.4,161.7,165.1,164.5,158.9z"/>
	<path class="st57" d="M132.9,384.9c-2.6,2-5.2,4-7.8,6c-14.7-16.3-30.4-31.7-43.4-49.4c7.8-15.4,7.9-15.5-7.7-27.4
		c-4.5-3.5-8-7.8-11.4-12.2c-3.8-5.1-8.4-7.1-14.5-4.2c-1-1-1.9-1.9-2.9-2.9c3-14.4,11.2-25.4,22.7-34.1c8.9-0.1,13.8,5.5,17.2,12.5
		c3.9,8.2,10,12.9,18.4,16.3c15,6,21.2,17,19.8,33.5c-0.6,7.1-0.3,14,0.9,21c1.6,8.6,2.4,17.1,14.3,17.2c4.4,0,5.9,4.2,6.8,8
		c0.9,4.5-1.3,7.9-4.2,11C138.9,382.6,136.6,384.9,132.9,384.9z"/>
	<path class="st58" d="M48.2,297.7c2.9-9,8.4-8,13.1-2.2c7.7,9.4,16.4,17.2,26.4,24.2c9.1,6.4,6.3,14.5-5.9,21.8
		C67.9,328.9,57.4,313.7,48.2,297.7z"/>
	<path class="st59" d="M238.9,187.4c-3.7-6.9,3.2-8.8,6.3-11.2c23.8-18.4,43-41.4,64.5-62.2c10.6-10.3,8.3-24.6,10.6-37.4
		c9.9,5.9,17.6,14.3,25.5,22.6c2.6,8.1-2,13.4-6.9,18.7c-10.7,11.3-20.5,23.3-30.9,34.9c-18.5,15.8-41.8,22.9-62.4,35.1
		C243.5,189.1,241,188.9,238.9,187.4z"/>
	<path class="st60" d="M238.9,187.4c22.6-12,46.1-22.3,67.5-36.4c17.9-12.9,35-27.4,57.4-32.2c10.1-4.6,20.2-9.3,30.3-13.9
		c2.4,0.1,4.5,0.7,5.7,3.1c0.7,3.3-1.8,4.2-4,5.4c-2.2,1-4.4,1.9-6.5,3.2c-5.4,3.9-12,5.8-17.2,10.3c-4.6,3.5-9.9,5.9-14.9,8.7
		c-12.4,5.8-23.8,13.5-35.9,20c-15,8.7-30.3,16.8-45.1,25.7c-19.6,12.7-41.2,21.8-60.9,34.3c-2.4,1.5-5.2,2.2-8,1
		c-1.9-1.4-2.5-3.4-2.4-5.6c0.2-1.5,0.9-2.7,2.1-3.7C218.5,201.9,230,196.8,238.9,187.4z"/>
	<path class="st61" d="M363.8,118.8c-19.1,10.7-38.3,21.5-57.4,32.2c9.7-11.4,19-23.1,29.1-34.2c4.8-5.3,9.1-10.4,10.2-17.6
		C350.2,107.2,360.4,109.9,363.8,118.8z"/>
	<path class="st62" d="M207,207.2c-0.1,0.7-0.2,1.5-0.3,2.2c-14.5,13.6-31.3,23.4-50,30.1c-22.4-5.6-31.3-18.9-29-43.8
		c2.2-2.7,4.4-5.4,6.6-8.1c10-9.5,20-19.1,30-28.6c-1.7,9.2-1.1,17.1,8.8,22c3,1.5,3.9,5.8,3.4,10c-1.4,12.1,5,15.3,15.4,11.8
		C198.5,200.6,203,202.5,207,207.2z"/>
	<path class="st29" d="M127.8,195.7c6.7,2.4,3.1,9.4,3.6,12.8c2.4,15.5,8.7,25.7,24.4,29.2c-15,29.8-16.6,60.7-8.6,92.6
		c0.5,2.9,0.4,5.9-0.2,8.8c-2.1,6.7-2.5,13.5-0.4,20.3c0.8,3.5,1,7-0.8,10.4c-0.5,0.5-1,1-1.6,1.5c-3.5-1.3-1.7-8.6-7-7.3
		c-14.9,3.9-14.3-6.2-15.9-15.9c-1.7-9.7-2-19-1.2-28.9c0.9-12.1-4.8-23.3-18.2-26.6c-10-2.5-17-7.4-19.7-17.3
		c-2.1-7.7-9.7-9.6-14.4-14.5c0.2-1.8,0.3-3.6,0.5-5.4c17.7-12.9,28.5-32.5,44.9-46.7C118.2,204.3,121.5,198.2,127.8,195.7z"/>
	<path class="st63" d="M207.1,472.8c23.1-11.1,46.5-21.9,69.3-33.5c40-20.5,83.3-34.5,120-61.6c7.8-5.8,12.4-15.9,23.1-17.7
		c1.7,11.3-7,16.1-13.9,21.8c-13.4,11.1-29.1,18.7-43.7,28c-2.2,1.6-4.5,3-7.1,3.8c-7.5,1.8-14.7,4.5-21.2,8.8
		c-1.6,1.2-3.4,2.1-5.3,2.6c-10.8,1.6-20.1,7.2-29.8,11.7c-24.3,11-44.9,28.4-69.6,38.6c-5.8,2.4-11.4,4.2-17.5,1.3
		C209.9,475.3,208.5,474.1,207.1,472.8z"/>
	<path class="st64" d="M328.8,422.4c0.9-0.9,1.9-1.9,2.8-2.8c7.9-2,15.8-3.8,22.7-8.5c1.9-1,3.8-1.9,5.6-2.9
		c5.5-2.1,10.4-7.8,17-2.8c-8.5,9.6-21.9,11.6-31.2,19.8c-36.7,11.1-65.4,35.8-96.4,56.7c-3.9,8.6-13.8,6.6-19.8,11.3
		c-3-2.6-5.9-5.2-8.9-7.8c-1.5-5.5,3.2-6.2,6.3-7.7c24.7-11.8,46.3-28.8,70.2-41.9C307.5,430.6,317.9,425.9,328.8,422.4z"/>
	<path class="st65" d="M297.6,436.5c-22.6,16.9-45.6,33-71.2,45.1c-2,1-3.8,2.4-5.6,3.7c-3.1-2.9-6.3-5.8-9.4-8.7
		c13.2-2.1,25.6-6.7,36.3-14.5c15.6-11.4,33-19.6,50-28.4c0.7,0.6,1,1.3,0.7,1.9C298.1,436.2,297.9,436.5,297.6,436.5z"/>
	<path class="st33" d="M476.6,79.3c3.9,12.4,4.2,24.8-0.3,37.1c-0.3-0.3-0.9-0.7-0.9-1c0.1-1.4-0.5-2-1.4-1.2
		c-9.3,9.3-18.5,18.8-30.7,24.1c-6.1,2.7-13.4,6.8-17.5-3.4c-0.1-1.3,0-2.6,0.4-3.9c2.7-6.8,10.9-8.9,13.4-15.9
		c0.6-1.1,1.4-2.1,2.2-3c3.9-2.9,7.7-5.9,11-9.6c7.2-6.8,15.5-12.4,20.6-21.2C474.3,80.4,475.4,79.8,476.6,79.3z"/>
	<path class="st66" d="M427.9,133c1.1,7.7,5.6,5.4,10.3,3.8c15.5-5.5,25.5-17.8,37.2-28.5c2,1.9,0.1,5.2,0.8,8.1
		c0.2,11.9-9.2,17.3-16.5,24.1c-5.7,5.3-11.7,10.4-17.5,15.6c-10,2.5-18.4-0.5-25.6-7.5c-1.7-2.5-0.8-5,0.2-7.4
		c1.5-2.8,3.8-4.8,6.1-6.9C424.5,133.1,426,132.1,427.9,133z"/>
	<path class="st67" d="M416.1,147.2c8.4,3.9,17,7.3,26.3,8.9c-3.8,4.6-7.7,9.3-11.5,13.9c-2.9,1.8-5.8,3.6-8.7,5.4
		c-8.2-4-14.7-9.6-17.8-18.5c1.1-4.7,4.5-7.4,8.2-9.9C413.7,146.5,414.9,146.6,416.1,147.2z"/>
	<path class="st68" d="M433.6,90.3c4.6-0.1,8.3-2.3,11.7-5.2c3.7-1.7,7.4-3.4,11.2-5.1c6.1,2.8,2.4,5.8,0.1,8.5
		c-8.7,10.3-17.6,20.5-26,31.1c-3.4,3.3-6.9,6.5-8.4,11.2c-0.9,2.2-2.1,4.3-3.7,6.1c-2.9,3.1-5.8,6.1-9,8.9c-2.1,1.5-4.2,2.8-7,1.9
		c-1.4-1.6-1.7-3.4-1.4-5.4c0.4-1.3,1-2.5,1.7-3.5c12.3-14.7,20.7-31.9,31.3-47.7L433.6,90.3z"/>
	<path class="st69" d="M428,119c8.2-12.4,17.6-23.8,28.3-34c1.8-1.7,0.7-3.3,0.1-4.9c1-0.2,1.9-0.4,2.9-0.7
		c4.7-2.5,8.4-2.3,10.3,3.5c-0.4,11-12.3,12.2-16.8,19.7c-3.6,3.7-7.3,7.2-10.6,11.1l0.2-0.2c-4.5,3.5-7.3,10-14.6,8.9
		c-0.7-0.8-1-1.5-0.7-2.2C427.5,119.4,427.8,119,428,119z"/>
	<path class="st70" d="M467.7,84.7c-0.3-5.6-4.4-5.3-8.4-5.3c5.7-0.9,11.5-11.8,17.3-0.1c-0.2,1-0.4,2-0.6,3
		C473.3,83.3,471.4,87.2,467.7,84.7z"/>
	<path class="st71" d="M408,232.7c-3.1-0.2-6.1-0.6-8.4-2.9c-1.7-3.1,0-5.6,1.9-7.6c10.5-10.8,20.1-22.2,27-35.8
		c0.9-1.7,2.7-2.5,4.8-2.1c2.3,3.5,8.1,3.3,9.1,8.3C430.9,206,419.5,219.4,408,232.7z"/>
	<path class="st72" d="M433.2,184.3c-7.5,17.9-21.4,31.1-33.7,45.5c-1.8-0.2-3.6-0.4-5.4-0.6c-4.2-6.3,1.2-9.6,4.5-13
		c6.9-7.2,13.3-14.6,18.1-23.3c4.6-4.5,9.1-9,13.7-13.6C431.4,181,432.3,182.7,433.2,184.3z"/>
	<path class="st73" d="M82.1,447.7c7.9-10,15.6-20.2,25.5-28.4c12.6-4.8,23.9-12.1,35.6-18.7c4.8-2.7,8.9-7.1,15.2-4.5
		c2.6,7.4-3.6,9.5-7.7,12.8c-5.4,4.3-12.3,7-14.8,14.2c-1.5,3-3.7,5.5-6.6,7.3c-6.9,3.5-13.6,7.3-20,11.6
		c-6.4,3.1-12.1,7.6-18.7,10.5c-1.3,0.4-2.7,0.6-4,0.5C83.9,452.2,81,451.7,82.1,447.7z"/>
	<path class="st74" d="M158.7,396.9c-14.4,4.8-26.1,14.7-39.5,21.4c-4.1,2-7.1,6.6-11.6,1.1c4.5-6.8,10.9-11.8,17-17
		c10.6-4.5,21.2-9.1,31.2-14.7c1.2-0.6,2.5-1,3.7-1.4c2.7-0.5,5.4-0.4,7.7,1.4c0.8,1.2,1,2.5,0.8,3.8
		C166.1,395,163.9,398.6,158.7,396.9z"/>
	<path class="st75" d="M133.2,393.9c1.1-1.8,2.1-3.6,3.2-5.4c0.2-3.6,2.8-5.6,4.9-8.1c2.3-3.6,5.2-6.1,9.8-5.2
		c5.3,1.3,11.1,0.5,15.9,3.8c3.1,8.2-5.3,6.4-8.2,9.4l0,0c-6.2,2.2-12.2,4.4-17.8,8C138.4,398,133.7,401,133.2,393.9z"/>
	<path class="st76" d="M133.2,393.9c5.3,5.8,7.7-1.3,11.2-2.8c4.7-2.1,9.4-3,14.4-2.7c-10.4,7.2-20.4,15.1-34.1,14
		C126.3,398.4,129.8,396.2,133.2,393.9z"/>
	<path class="st77" d="M82.1,447.7c1.2,2.3,3.4,2.9,5.8,3c1.8,7.3-7.4,6.2-8.5,11.3c-2.3-1.2-2.8-3.4-2.9-5.8
		C76.8,452.4,78.8,449.6,82.1,447.7z"/>
	<path class="st78" d="M142.5,383c-2.1,1.8-4.1,3.6-6.2,5.4c-1.1-1.2-2.3-2.4-3.4-3.6c1.9-1.9,3.8-3.8,5.7-5.7
		C140.7,379.7,141.9,381.1,142.5,383z"/>
	<path class="st79" d="M74.1,456.9c-0.6,3.8,1.2,8.3-3.1,11c0-2.9-0.1-5.8-0.1-8.7c0.4-1.3,0.7-2.5,1.1-3.8
		C72.7,455.9,73.4,456.4,74.1,456.9z"/>
	<path class="st80" d="M416.6,101.7c2.8-1.9,5.6-3.8,8.5-5.8c3.5,4.2,1,7.9-1.1,11.5c-6.8,11.6-12.5,24-21.5,34.3l0,0
		c-7.6,9.7-12.5,22.7-27.7,23.4c-1-0.9-1.7-2-1.9-3.3c3.7-10,15.1-13.8,19.1-23.6c1.3-2.3,2.6-4.5,4.4-6.4
		C406.8,124.2,407.2,109.9,416.6,101.7z"/>
	<path class="st81" d="M396.9,133.3c-0.1,2.3-0.6,4.4-2.9,5.7c-7.7,6.7-10.9,19.8-24.9,17.6c-2.9-6.5,2.3-9.6,6.1-12.4
		c11.2-8.3,17.2-19.3,18.9-32.9c2.1-0.6,4.7-0.5,5.7-3.2c2.7-0.4,5.5-0.9,8.2-1.3C410.1,118,404,125.8,396.9,133.3z"/>
	<path class="st82" d="M402.5,141.7c6.6-15.7,18.3-28.9,22.5-45.8c3-1.6,5.9-3.1,8.9-4.7C428.6,111.3,416.9,127.3,402.5,141.7z"/>
	<path class="st83" d="M396.9,133.3c3.7-8.8,7.4-17.7,11.1-26.5c1.6-3.9,5.1-4.5,8.6-5C410.8,112.7,411.3,127.6,396.9,133.3z"/>
	<path class="st84" d="M249.5,481.9c28.4-25.2,56.7-50.7,96.4-56.7C313.5,443.8,283.1,465.5,249.5,481.9z"/>
	<path class="st85" d="M377,405.4c-5.7,0.9-11.3,1.9-17,2.8c13.8-9.3,27.8-18.4,41.5-27.9c7.6-5.3,15.8-10.2,18-20.4
		c0-1.9,0-3.7,0-5.6c0.9-1,1.8-2,2.7-3c0.1,2.9,0.2,5.8,0.3,8.7c-0.3,13.7-6.2,23.5-19,29.6C394.2,394.1,385.8,400.1,377,405.4z"/>
	<path class="st86" d="M413.9,280.6c-6.2-6.4-14.5-8.6-22.6-11.3c-1.8-5.7,3.4-7.4,6-10.7c1-0.8,2.1-1.4,3.3-1.8
		c1.3-0.1,2.5,0.2,3.7,0.7c4.1,2,7.2,5.1,9.6,8.9C413.8,271.1,413.8,275.9,413.9,280.6z"/>
	<path class="st87" d="M413.8,266.4c-4.1-2.2-8.8-3.4-11.3-7.8c0.1-3.4,2.3-5.4,4.5-7.5c2-1.5,4-2.8,6.6-1.6
		c0.1,3.8,0.3,7.5,0.4,11.3C413.9,262.6,413.9,264.5,413.8,266.4z"/>
	<path class="st88" d="M399.8,258c-0.1,5.9-7.3,6.4-8.6,11.3c-16,6.7-27.9,19.6-42.5,28.6c-3.1-1.2-4.5-3.5-4.3-6.7
		c13.1-14.7,30-24.2,46.4-34.4C393.7,255,397.2,255.2,399.8,258z"/>
	<path class="st89" d="M334.6,306.6c-13.4,10.2-26.8,20.4-40.2,30.6c-4.3,0.5-4.1-2.6-4.4-5.4c0.9-5.5,5.3-7.9,9.1-11
		c7.5-6.2,16-11.2,23.8-17c3.6-2.7,7.4-6.1,12.5-2.9C336.3,302.9,336.1,304.8,334.6,306.6z"/>
	<path class="st90" d="M334.6,306.6c-0.1-2.1-0.1-4.2-0.2-6.3c0.9-6.7,5.1-8.9,11.4-8.5c1,2,2,4,3,6.1
		C344.1,300.9,340.6,305.8,334.6,306.6z"/>
	<path class="st91" d="M291.9,331.5c0.8,1.9,1.7,3.8,2.5,5.7c0.1,0.8,0.1,1.6,0.1,2.4c-4.6,2.3-9.2,4.6-13.9,6.9
		c-2-3.5-1.7-7.1-0.3-10.8C283.4,332.1,286.3,328.1,291.9,331.5z"/>
	<path class="st92" d="M184.2,405.5c0.6,0.7,1.2,1.7,2,1.9c32.5,11.6,23.2,29.3,3,44.7c-3.9,3-7.7,7.1-13.4,7.1
		c-2-4.8,2-7.1,4.2-10.1c3.6-3.7,7.5-7.2,11.7-10.3c3.9-3.1,7.1-6.5,4-11.9c-2.6-4.4-6.6-6.4-11.8-6.3c-4.4,0-9,1-11.7,4.1
		c-12.3,14.1-28.7,22.2-44.5,31.2c-4.1,2.3-10.9,5-8.1,11.3c2.7,5.8,9.5,5,15.1,4.3c6.6-0.8,12.8-3,18.7-6.1
		c7.7-1.3,12.7-12.3,22.4-6.1c-5,10.9-17.9,9.9-25.5,17c-16.2,0.8-29.8,10.4-46,12.6c-12.9,1.7-11.8-3.8-9.6-11.3
		c2.6-9,10.1-14.7,17.2-20.2c3.7-2.9,8-5,10.1-9.6c2.9-7.1,10-9.2,15.7-12.8c7.4-4.7,15.1-8.9,19.9-16.7
		C165.7,412.5,172.4,403.7,184.2,405.5z"/>
	<path class="st93" d="M158.8,419.8c-7.1,16.2-24.7,18.7-36.9,28.1c-4.7,1.9-9.4,3.8-14.2,5.7c0.9-1.9,1.9-3.8,2.8-5.7
		c-1.5-4.4,2.4-5.6,4.6-7.8c4.3-3.1,9.4-4.4,14.1-6.8C139.7,430.2,146,417.9,158.8,419.8z"/>
	<path class="st94" d="M323.1,396.9c10.4-7.5,21.8-13.2,34-17C347.8,389.4,336.2,394.6,323.1,396.9z"/>
	<path class="st94" d="M388.3,354.3c2.8-1.9,5.7-3.8,8.5-5.7c-2.2,8.9-7.3,14.2-16.9,14.3C381.6,359,384.6,356.2,388.3,354.3z"/>
	<path class="st94" d="M362.8,377c2.5-4.5,5.6-8.3,11.4-8.5C371.7,373.1,368.6,376.8,362.8,377z"/>
	<path class="st95" d="M158.8,419.8c-9.5,5.5-19,11.1-28.4,16.6c-2.6-2.2-4.4-4.7-2.8-8.2c1.9-1.9,3.8-3.8,5.7-5.7
		c6.7-7.9,16.3-11.5,24.4-17.3c15.2-6.9,27.9-18.9,45-21.7c4.1,1.2,7.1,2.9,4.2,7.8c-2.7,1.1-4.6,3-5.7,5.7c-1,0.9-1.9,1.9-2.9,2.8
		c-4.7,2-9.4,3.9-14.2,5.9C175.7,410.3,167.3,415,158.8,419.8z"/>
	<path class="st96" d="M345.8,291.8c-3.8,2.8-7.6,5.6-11.4,8.5c-11.3,7.6-22.7,15.2-34,22.8c-5.3,0.5-3.2-3.2-2.6-5.2
		c2.6-8.9,7.6-16.7,12.1-24.7c12.6-15.8,18.7-33.7,19.7-54c0.5-9.3,1.6-20.5,15.8-20.3c8.7,2.8,17.9,2.9,26.7,5.3
		c-0.5,7.8,6.2,6.7,10.6,8.3c11.2,4,24,5.1,30.9,17c-1.6,1-3.3,2.1-4.9,3.1c-3.8,0.5-6.5,3-9,5.6c0,0,0.2-0.1,0.2-0.1
		c-11-0.4-17.4,8.4-25.7,13.3C364.2,277.3,355.2,284.9,345.8,291.8z"/>
	<path class="st97" d="M372.1,224.1c-9.4,4.5-17.9,1.4-26.3-3c0.5-0.5,0.9-1,1.3-1.5c6.6-3.2,13.9-4.3,20.6-7.3
		c12.2-5.6,18-14.6,15.1-28.3c-0.7-3.3-0.5-6.6,1.2-9.7c1.4-2,3.4-2.8,5.8-2.5c11.6,10.1,12.8,14.9,6.9,29.1
		C390.3,210.6,380.6,216.7,372.1,224.1z"/>
	<path class="st98" d="M405.4,156c5.6,6.5,11.1,13,16.7,19.5c-6.7,2.8-7.5,11.3-13.9,14.3c-6.2-6.9-10.4-14.9-13.6-23.5
		c0-1.3,0.2-2.7,0.5-3.9c1.4-3.2,3.6-5.5,6.7-7.1C403.1,154.9,404.3,155.1,405.4,156z"/>
	<path class="st99" d="M396.8,164.4c2.6,9,11.2,15.3,11.3,25.4c-2.8,4.8-6.6,8.5-11.4,11.2c0.6-10.4,1-20.7-8.4-28.1
		C387.8,166.7,390.5,163.7,396.8,164.4z"/>
	<path class="st100" d="M416.8,192.9c0.3,9.9-6.3,15.8-12.4,22.2c-4,4.2-10,7.1-10.3,14.1c-3.2-0.8-7.4-0.3-7-5.6
		c4.4-2.8,6.9-7.1,9.7-11.2C402.3,204.7,409.1,198.4,416.8,192.9z"/>
	<path class="st101" d="M396.8,212.4c-0.3,6.2-3.7,9.8-9.6,11.2C389.1,218.8,392.5,215.2,396.8,212.4z"/>
	<path class="st102" d="M280.7,337.5c2,3,1.2,6-0.1,9c-1,1.6-2,3.2-2.9,4.8c-2.7,1.1-5.5,2.1-8.2,3.2c-4.5,1-4.6-2.3-5-5.2
		C267.5,342,272,336.8,280.7,337.5z"/>
	<path class="st103" d="M266.4,348.6c0.1,2.5,0.7,4.6,3.1,5.9c-0.1,0.9-0.2,1.7-0.3,2.6c-1.9,1-3.7,2-5.6,3.1c-0.9,0-1.9,0-2.8,0
		c-1.9,0.9-3.8,1.9-5.7,2.8c-2.5-2.4-2.6-5.2-1.7-8.2C256.5,350,260.3,346.8,266.4,348.6z"/>
	<path class="st104" d="M255.1,354.4c0,2.9,0,5.7,0,8.6c-1.9,1.9-3.8,3.7-5.7,5.6c0,0-1.4,0-1.4,0l-1.4,0c-4.7,1-4.4-2.4-4.8-5.3
		C244,356.9,248,353.3,255.1,354.4z"/>
	<path class="st105" d="M243.8,413.9c-2.8-12.3-5.7-24.6-8.5-36.8c-0.1-4.8,2.4-4.7,5.7-2.8C250.9,386.8,248.2,400.2,243.8,413.9z"
		/>
	<path class="st106" d="M240.9,374.2c-2.3,0.1-4.4,0.6-5.7,2.8c-0.9,0-1.9,0-2.8,0c-5.2,1.3-5.6-2.8-6.8-6c0.2-4.1,2.8-6.3,6.2-8
		c4-1.3,7.9-3.7,12-0.3c0.1,2.4,0.6,4.5,2.9,5.8C244.8,370.4,242.8,372.3,240.9,374.2z"/>
	<path class="st107" d="M226.8,371.3c1.9,1.9,3.8,3.8,5.7,5.7c-3.8,2.8-7.6,5.7-11.3,8.5c-0.3,1.6-1.3,2.5-2.9,2.8
		c-3.8,1-7.5,1.9-11.3,2.9c-0.1-3.7-2-5.6-5.7-5.6c1.2-9.4,10.5-8.9,15.9-13.1C220.3,371.2,223.3,369.3,226.8,371.3z"/>
	<path class="st108" d="M218.3,388.3c1-0.9,1.9-1.9,2.9-2.8c16.4,11.7,20.4,25.7,11.3,39.7C238.1,408.9,223.2,400.5,218.3,388.3z"/>
	<path class="st109" d="M116.3,442.3c-1.9,1.9-3.9,3.7-5.8,5.6c-5.7,1.9-11.3,3.8-17,5.7c-3,1-3.7-0.3-3-3
		c5.1-4.7,10.8-8.5,17.2-11.1C110.4,441.2,114.3,438.9,116.3,442.3z"/>
	<path class="st110" d="M90.6,450.6c1,1,2,2,3,3c-3.8,4.4-9.5,5.7-14.3,8.4c-0.2-6,7.3-6.3,8.5-11.3
		C88.8,450.7,89.7,450.7,90.6,450.6z"/>
	<path class="st78" d="M142.5,383c-1.3-1.3-2.6-2.6-3.9-3.8c1.9-2.6,3.9-5.3,5.8-7.9c0,0,0.3,0.1,0.3,0.1c2.2-3.1,3.3-6.8,6.2-9.4
		c1.3-1.4,2.6-2.7,3.9-4c2.7-2.6,5.3-5.3,8.1-7.8c2-1.7,4.2-3,6.7-3.5c2-0.2,3.9,0.1,5.5,1.3c0.9,1,1.4,2.1,1.4,3.5
		c-1,3.2-3.3,5.4-5.5,7.7c-3.5,3.5-7,7-10.5,10.5c-3.3,2.8-5.8,6.6-10.5,7.3C145.9,376.7,145.1,381,142.5,383z"/>
	<path class="st111" d="M207.2,216.1c22.6-12.5,45.3-25,67.9-37.5c5.8-3.1,6.5,1,6.6,5c0.2,7.1,0,14.2-1.6,21.1
		c-2.6,10.7-2.5,21.4,0.3,32.1c0,1.4-0.3,2.8-0.8,4.2c-3.9,5.8-8.4,11-13.8,15.4c-2,0.8-4.1,1-6.2,0.7c-8.9-1.5-17.9-1.6-26.8,0.4
		c-18.5-2.9-28.6-15.2-35.1-31.6C198.2,220,202.4,217.8,207.2,216.1z"/>
	<path class="st78" d="M207.2,216.1c0.4,6.1-6.5,5-8.6,8.6c-4.5,6.5-12.7,8.3-17.7,14.1c-1.8,1.6-3.8,3-5.9,4.3
		c-3,1.8-5.8,3.8-8.7,5.7c-2.4,1.5-4.6,3.2-6.4,5.4c-1,1.5-1.9,3-2.6,4.6c-1.3,7.1-3.3,14-3.2,21.3c-0.1,7.9,0,15.8,0,23.7
		c0.1,4.6-0.9,9.4,1.3,13.8c1.6,2.9,4,5.1,7.2,6.3c3.1,1.2,6.4,0.8,9.7,1.2c4.4,0.5,11.1-0.5,11.6,5c0.4,5.2-6.2,5.7-10.5,7.2
		c-5.2,1-10.4,0.9-15.6,0.6c-2.2-0.1-4.4-0.5-6.5-1.2c-2.9-1-4.7-3.3-6.6-5.4c-9.4-27.6-6.8-55.1,1.4-82.4c1.4-4.5,5-9,9.9-11.4
		c18.2-7.2,32.4-21.5,50.9-28.3C206.9,211.6,207.1,213.9,207.2,216.1z"/>
	<path class="st112" d="M277.8,240.9c-8.2-18.8,0.6-37.6,0.5-56.4c0-3.1,0.9-5.5-3.2-5.9c14.6-9.3,29.4-18.2,45.1-25.6
		c9.1-1.7,6.6,3.4,3.9,7.3c-4.2,6.2-9.7,11.5-15.4,16.3c-15.1,12.6-21.7,28.6-21.8,48.1C286.8,231.3,287.7,239.5,277.8,240.9z"/>
	<path class="st113" d="M277.8,240.9c7.3-6,5.3-14.4,5.7-22.3c0.9-16,6.1-29.9,18.8-40.7c7.1-6.1,13.4-13.2,20-19.9
		c3.1-3.2,1.8-4.7-2.1-5c11.5-7.8,23.6-14.7,36.5-20c4.6-2.3,7.1-0.6,7.7,4.3c-1,5.5-5.2,8.5-9.1,11.8
		c-13.7,7.4-25.7,17.2-38.1,26.6c-14.9,11.3-23.3,25.4-25.2,43.8c-0.7,7-2.8,13.8-3.7,20.9c-0.3,2.7-1.2,5.2-2.5,7.5
		c-1,1.7-2.4,3.1-3.9,4.4c-2.8,2.2-5,5.4-8,7.2c-5,3-6.2,0-6.1-4.4C269.2,249.1,275.2,246.3,277.8,240.9L277.8,240.9z"/>
	<path class="st114" d="M371.4,124.9c3.8-6.5,11.9-6.4,17-10.7c8.9,11.5-1.1,18.3-6.9,25.4c-4.6,5.6-11.9,8.7-14.5,16.2
		c-1.3,2.7-3.5,4-6.4,4.3c-3.4-0.3-6.5-1.3-8.9-4c1-9,11.3-9.2,14.9-15.8c3.4-3.9,6.9-7.7,5.3-13.6
		C371.7,126.1,371.5,125.5,371.4,124.9z"/>
	<path class="st115" d="M365.6,155.8c1.5-9.3,9.8-13.4,15.5-19.3c6.3-6.5,9.6-13.4,7.3-22.4c1.9-1,3.8-2,5.7-2.9
		c6.7,15-4.9,23.3-12.8,32.1c-3.9,4.3-9.7,7.1-12.8,12.6c-0.5,0.2-1,0.5-1.5,0.7C366.6,156.3,366.1,156.1,365.6,155.8z"/>
	<path class="st116" d="M362.8,138.9c-0.1-4-2.5-5.6-6.1-5.9c4-4.3,9.3-6.4,14.7-8.2c0,0,0.2,0.6,0.2,0.6
		C373.4,133.1,372,138.5,362.8,138.9z"/>
	<path class="st117" d="M144.6,331.4c2,0.8,3.9,1.7,5.9,2.5c3.5,8.4,8.7,16.4,5.5,26.2c-1,0.9-1.9,1.9-2.9,2.8
		c-4.9-1.6-7.5-5.6-9.8-9.8c-0.1-4.1-0.4-8.3,0.2-12.4C143.9,337.6,144.2,334.5,144.6,331.4z"/>
	<path class="st118" d="M144.6,354.3c5.6,0.1,6.5,4.9,8.6,8.6c-2.8,2.8-5.6,5.6-8.4,8.5c-0.2-3.9-0.5-7.8-0.7-11.6
		C143.1,357.8,142.9,356,144.6,354.3z"/>
	<path class="st57" d="M144.6,354.3c-0.2,1.8-0.3,3.6-0.5,5.4c-3.7-6.3-3.1-12.6-0.5-19C143.9,345.2,144.2,349.8,144.6,354.3z"/>
	<path class="st85" d="M297.6,436.5c0-0.9,0-1.9,0-2.8c10.1-4.6,19.2-12,31.2-11.3C319.3,429.1,308.4,432.7,297.6,436.5z"/>
	<path class="st85" d="M354.4,411c-5.3,8.8-14,8.6-22.7,8.5C338.8,415.7,345.7,411,354.4,411z"/>
	<path class="st119" d="M467.7,84.7c2.8-0.8,5.5-1.6,8.3-2.4c-4,10.8-14.4,15.4-22,22.8c-3,0.9-3.9-0.4-3.4-3.2
		C454.2,94.1,463.5,92,467.7,84.7z"/>
	<path class="st120" d="M428.1,122c5.2-2.2,7.6-9,14.4-8.5c1.1,10.6-8.9,12.1-14.3,17.2c-1.7-1.4-2.2-3.2-2.1-5.3
		C426.4,124,427,122.9,428.1,122z"/>
	<path class="st121" d="M450.6,101.9c1.1,1.1,2.3,2.2,3.4,3.2c-3,4.1-5.8,8.5-11.7,8.5C442.1,107.6,446.2,104.7,450.6,101.9z"/>
	<path class="st122" d="M428,124.7c0,2,0.1,4,0.1,6c0,0.8-0.1,1.5-0.2,2.3c-1.1,0.9-2.2,1.9-3.3,2.8c-4.7,0.5-3.5-2.9-3.6-5.5
		C422,126.8,423.3,123.6,428,124.7z"/>
	<path class="st123" d="M408.1,144.5c1.9-3.8,4.8-6.6,8.5-8.5c2.2,1.2,1.4,3.7,2.3,5.5c-1,1.9-1.9,3.8-2.9,5.7c-0.8,0-1.6,0-2.5,0.1
		C410.3,149.4,408,149.3,408.1,144.5z"/>
	<path class="st124" d="M419,141.5c-0.8-1.8-1.5-3.7-2.3-5.5c1-1.9,1.9-3.7,2.9-5.6c0.9-1.4,1.8-1.4,2.8-0.1
		c0.8,1.8,1.6,3.7,2.3,5.5C422.8,137.7,420.9,139.6,419,141.5z"/>
	<path class="st125" d="M408.1,144.5c1.2,2.3,3.2,2.8,5.5,2.8c-1.6,3.9-4.7,6.5-8.2,8.7c0,0-1.4,0-1.4,0l-1.4,0
		c-3.3,1.2-5.2-0.5-6.6-3.1c0.4-3.9,1.9-6.5,6.5-5.6C404.4,146.3,406.3,145.4,408.1,144.5z"/>
	<path class="st82" d="M402.5,147.3c-1.9,1.9-3.7,3.9-5.6,5.8c-0.5,3.4-2.9,5.6-5,8c-8.6,8.8-17,17.9-28.5,23
		c-21.3,10.1-36.9,26-48.6,46.1c-1.4,0.3-2.7,0-3.9-0.8c-1.8-2.4-2.2-5.1-2.1-8c4.3-19.4,20.9-28.2,34.7-39.3c3.6-2.9,8-5,12-7.6
		c5.9-2.8,11.2-6.5,16.8-9.8c0.6-0.1,1.3-0.2,1.9-0.3c12.9-3.3,17.4-17,28.3-22.7C402.5,143.6,402.5,145.4,402.5,147.3z"/>
	<path class="st126" d="M422.3,130.3c-0.9,0-1.9,0.1-2.8,0.1c0.2-5.8,3.9-8.9,8.5-11.4c0,1,0,2,0.1,3c0,0.9,0,1.8-0.1,2.7
		C426.1,126.6,424.2,128.5,422.3,130.3z"/>
	<path class="st127" d="M158.7,408c-8.2,5.2-16.1,11.2-25.4,14.4c0.2-8.7,8.1-10.5,13.3-14.6c4.3-3.4,9.8-5.4,12.2-10.9
		c2.8-1.9,5.7-3.8,8.5-5.7c3.1-3.1,6.2-6,11.1-3.6c2.9,6.7-3.4,7.8-6.7,10.1C167.1,400.9,161.7,403,158.7,408z"/>
	<path class="st128" d="M116.3,442.3c-3.1-0.2-6.4,0.5-8.5-2.8c6.6-3.8,13.2-7.6,19.8-11.4c0.9,2.8,1.9,5.5,2.8,8.2
		C125.7,438.3,121,440.3,116.3,442.3z"/>
	<path class="st76" d="M158.7,388.3c2.8-2.8,5.7-5.7,8.5-8.5c-0.6-6.2,4.8-6.2,8.3-7.6c35.6-14.6,66.7-36.1,95-61.9
		c2.9-2.2,5.9-3.8,9.7-2.1c2.8,10.5-8.3,12.9-11.5,19.9c-10.1,8.9-20.2,17.9-32.7,23.6c-20.5,13.2-39.5,28.9-63.5,36
		c-1.8,0.5-3.3,1.7-5.3,0.7C164.4,388.3,161.6,388.3,158.7,388.3z"/>
	<path class="st129" d="M167.2,388.3c24.2-10.6,45.8-25.6,68-39.7c1.9,6.4-4.2,8.8-6.6,13c-1.6,2.1-3.1,4.3-5.4,5.9
		c-10.1,6.4-21,11.4-31.2,17.6c-4,2.4-7.9,7.2-13.6,3.1c-3.8,0.9-7.6,1.9-11.3,2.8C167.2,390.2,167.2,389.3,167.2,388.3z"/>
	<path class="st130" d="M272.1,311.8c-26,27.9-58.1,46.7-92.3,62.4c-4.2,1.9-9.3,1.8-12.6,5.6c-5.7-0.9-12.1,2.4-17.1-2.9
		c2-3.7,5.3-6,8.8-8c11.2-6.4,24.4-5.5,36-11.2c25.5-12.6,46.8-30.9,69.4-47.6c1.4-0.4,2.8-0.5,4.2-0.4
		C270,310.1,271.2,310.8,272.1,311.8z"/>
	<path class="st131" d="M357.2,175.8c-8.8,6.7-17.5,13.5-26.3,20.2c-8.6,6.6-15.9,14.3-19,25.1c-2.4,1.5-0.6,8.2-6.5,5.4
		c-1.9-2.4-2.3-5.1-2.4-8c3-20.3,18.5-30.6,33.2-41.6c10.8-5.8,20.3-14.1,32.4-17.6c2.2,0,4.1,0.6,5.7,2.3c0,1,0,1.9,0,2.9
		c0,0,0,0,0,0C368.9,168.7,362.8,172,357.2,175.8z"/>
	<path class="st132" d="M374.2,161.6c-1.9,0-3.8,0-5.6,0c-1.8-1.9-1.7-3.8,0-5.7c0,0,0,0,0,0c12.8,0.8,16-12.9,25.5-17
		C391.6,150.1,381.1,154.3,374.2,161.6z"/>
	<path class="st133" d="M399.7,258.1c1-5,2.9-8.8,9-5.6c-2.1,2-4.2,4-6.2,6.1C401.6,258.3,400.6,258.1,399.7,258.1z"/>
	<path class="st134" d="M243.8,362.8c-3.8,1-7.6,1.9-11.3,2.9c-1.2-9.1,6.7-11.2,11.8-15.6c13-11.1,30.9-16.5,39.2-33.1
		c1.4-3,3.6-5.4,6.3-7.4c6.1-3.4,9.6-9.7,14.9-14c2.3-1.2,4.6-2.4,7.2-0.9c-2.8,9.8-11.2,17.4-11.4,28.3c-2.8,2.8-5.7,5.6-8.5,8.4
		c-4.8,0-7.4,4.2-11.2,6c-4.8,3.7-9.5,7.4-14.3,11.1c-3.8,1.9-7.5,3.8-11.3,5.7C251.3,357.2,247.6,360,243.8,362.8z"/>
	<path class="st135" d="M153.1,467.7c-9.1,8.2-20.1,7.8-31.3,6.9c-4.6-0.4-6.6-3.3-7.8-6.9c-1.3-4,0.3-7,4-9.5
		c5.5-3.6,10.1-10.1,15.9-11.2c15.3-2.9,23.8-14,33.9-23.6c4.2-4,9.1-6.2,15-6.8c8.2-0.8,13.8,3.2,17.2,9.7
		c3.9,7.5-0.9,12.3-7.1,15.9c-8.4-16.8-10-17-29-2.9c-6.7,4.8-12.7,10.7-21.2,12.9c-4.5,1.2-9.4,4.4-8.6,9.6c1.1,6.7,7,4,11.4,3.8
		C148.2,465.4,151,465.3,153.1,467.7z"/>
	<path class="st136" d="M153.1,467.7c-2.3,0.3-4.8,0.1-6.9,0.8c-7,2.4-14.6,4.8-17.3-4.9c-2.5-8.8,7-14.4,11.4-14.6
		c10.1-0.7,14.1-8.8,21.4-12.5c2.9,11,2.9,11,19.8,14.2c-1.9,2.8-3.8,5.7-5.7,8.5c0,0,0,0,0,0C166.3,457,162.5,469.9,153.1,467.7z"
		/>
	<path class="st137" d="M181.4,450.7c-0.5,0.1-0.9,0-1.4,0.2c-6.6,2.3-14.3,5.2-20,1.9c-8-4.7,5-10.3,1.5-16.2c2.5-2,5.1-4,7.6-6.1
		c5.8-4.6,12.7-7.3,19.6-4.5c7.4,3,2.8,10.7,4,16.2C189,445,185.2,447.9,181.4,450.7z"/>
	<path class="st138" d="M178.6,388.4c11.3-6.1,22.9-11.9,33.9-18.6c3.7-2.3,7-4.4,11.4-4.1c1.9,5.3-3.4,6-5.6,8.6
		c-5.7,3.8-11.3,7.6-17,11.3c-14.2,7.5-28.4,15-42.6,22.5C159.6,395.7,174.3,397.3,178.6,388.4z"/>
	<path class="st139" d="M311.8,294.8c-1.9,0.9-3.8,1.9-5.7,2.8c-1.6-1.3-1.9-3.1-1.5-5.1c0.4-1.2,1-2.3,1.7-3.3
		c5.2-4.9,8.4-10.8,8.7-18c3.3-9,4.3-18.2,4.7-27.8c0.4-11.9,2.7-23.5,13.4-31.3c6.9-0.8,11.9,1.2,12.8,9c0,0,0,0,0,0
		c-13,0.5-12.5,11.1-12.9,19.3C332.1,261.1,326.9,279.8,311.8,294.8z"/>
	<path class="st140" d="M363.1,181.6c9.3-7.6,18.7-15.3,28-22.9c3.1-1.4,4.7,0.3,5.8,2.9c0,0.9,0,1.9,0,2.8
		c-3.8,1.8-6.7,4.7-8.6,8.5c-0.9,0.9-1.9,1.9-2.8,2.8c-2.6,2.6-4.8,5.6-7.6,8.1c-7.1,6.5-13.3,14.4-23.7,16.1
		c-2.2-0.5-3.5-1.8-4.1-3.9C350.5,187.5,358,185.6,363.1,181.6z"/>
	<path class="st141" d="M345.8,221.1c-3.8-2.8-7.5-5.7-11.3-8.5c-1.4-2.6,0-4.4,1.7-6.1c1-0.6,2.1-0.9,3.3-0.9
		c2.9,0.3,6-0.1,8.8,1.1c6.5,3,12.3,1,18.2-2c3.4-1.8,6.4-5.6,11.1-3.3c2.6,8.4-5.1,10-9.1,14.2C361.2,218.5,354,221.8,345.8,221.1z
		"/>
	<path class="st142" d="M368.5,215.4c2-5.2,8.8-7.6,8.5-14.2c-1.3-6.6-0.8-13.2,0-19.9c1.6-3.7,4.4-5.7,8.5-5.7
		C388.5,192.7,389,208.5,368.5,215.4z"/>
	<path class="st143" d="M396.9,161.6c-1.9-1-3.9-2-5.8-2.9c1.9-1.9,3.9-3.7,5.8-5.6c1.9,1,3.8,1.9,5.7,2.9
		C400.7,157.9,398.8,159.7,396.9,161.6z"/>
	<path class="st144" d="M218.3,374.2c1.9-2.9,3.8-5.7,5.6-8.6c0.1-2.3,0.6-4.4,2.9-5.6c16.4-14,35.2-24.7,50.9-39.7
		c2.3-2.2,4.9-4.6,8.7-2.8c-5.5,17.5-23.3,21.4-35.3,31.8c-6.3,5.4-14.6,8.4-18.6,16.4c-2.7,1.1-4.6,3-5.7,5.7
		C223.9,372.3,221.1,373.2,218.3,374.2z"/>
	<path class="st145" d="M266.4,311.8c-21.8,18.4-44,36.1-69.9,48.8c-12.1,5.9-24.4,8.3-37.5,8.3c2.2-5.3,7.1-8.1,11.1-11.6
		c16.4-5.7,33.4-10.1,47.2-21.7c13.8-9.2,29.5-15.4,41.5-27.4c1.9-1.9,4.5-3.3,7.6-1.9C267.8,308.2,268.2,310,266.4,311.8z"/>
	<path class="st146" d="M266.5,306.2c-14.3,13.2-30.1,23.8-48.2,31.2c-9.7,8.6-22.2,11.7-33.7,16.5c-2.5,1-8.3,6.1-8.9-2.6
		c0.1-0.8,0.3-1.5,0.4-2.3c0.3-0.6,0.5-1.2,0.8-1.8c5.7-5.2,10.2-11.9,18.2-14.3c21.4-5.8,42.8-11.3,59.5-27.4
		c1.3-1.5,2.7-2.8,4.3-3.9c2.2-1.3,4.5-2.4,7.3-1.8c1.8,1.3,2.1,3,1.6,5C267.2,305.2,266.8,305.7,266.5,306.2z"/>
	<path class="st78" d="M172.7,334.6c2.8-1.3,5.7-2.6,9.4-4.3c-7.9-3.9-16.7,1.6-23.4-3.9c8.6-7.4,18.8-3.6,28.4-4.1
		c2.3,0.2,4.5,0.8,6.6,1.9c3.6,2.9,2.3,5.6-0.4,8.3c-5.7,5.6-11.2,11.4-17.4,16.5c0,0,0.2-0.1,0.2-0.1c-2.2-0.2-4.4-0.4-6.7-0.5
		C168.7,343.4,171,339.1,172.7,334.6z"/>
	<path class="st147" d="M172.7,334.6c5.4,6.1-1.6,9.4-3.3,13.8c-1.6,1.1-3.3,2.1-4.9,3.2c-10-2-10.2-9-8.6-16.9
		C161.4,334.6,167,334.6,172.7,334.6z"/>
	<path class="st148" d="M175.6,351.3c13.3,3.3,22.9-6,34-10.1c2.9-1.1,5.1-3.9,8.7-3.8c-13.3,13.3-29.2,20.2-48.1,20
		C170.8,354.3,173.1,352.6,175.6,351.3z"/>
	<path class="st149" d="M155.8,334.7c3.6,5.3,2.2,13.1,8.6,16.9c-2.8,2.8-5.7,5.7-8.5,8.5c-2-8.7-8-16.6-5.5-26.2
		C152.3,334.1,154,334.4,155.8,334.7z"/>
	<path class="st150" d="M178.4,237.8c4.5-7.7,12.6-10.1,20.2-13.1c8.3,9.2,12.8,21.6,25.4,27.2c2.8,1.3,5.3,2.9,8.6,3
		c3.5-2,7.2-1.3,10.9-0.6c1,1.3,1.2,2.7,0.4,4.2c-3.1,2.6-6.9,2.8-10.7,3c-2.2,0.1-4.4,0.1-6.7,0.1c-3.6,0-7.3,0-11-0.1
		c-2.9-0.1-5.8-0.5-8.6-1.6c-6.4-3.6-12.8-7.3-19.6-10.3C182.5,247.5,176.9,245.2,178.4,237.8z"/>
	<path class="st151" d="M244.5,255.5c-4-0.2-7.9-0.3-11.9-0.5c9.4-4.5,18.8-4.1,28.2-0.2C255.5,259.8,250.1,259.6,244.5,255.5z"/>
	<path class="st112" d="M277.8,240.9c0.3,6.6-6.4,8.9-8.5,14c-0.5,0.4-0.9,0.8-1.4,1.3c-0.5-0.3-1.1-0.6-1.6-0.9
		C267.1,248.1,272.4,244.5,277.8,240.9z"/>
	<path class="st152" d="M244.5,255.5c5.4-0.2,10.9-0.4,16.3-0.7c1.8,0.2,3.7,0.3,5.5,0.5c0,0-0.2,0.1-0.2,0.1
		c1.1,1.8,0.7,3.2-1.1,4.3c-7.8,2.7-15.4,4.1-22.2-2.2C243.3,256.8,243.9,256.1,244.5,255.5z"/>
	<path class="st153" d="M150.6,277.9c-0.3-7.9,1.8-15.2,4.7-22.4c3.9,0.2,6.4,2.4,7.8,5.9c0.6,9.7-3.1,19.7,2.8,29
		c5.3,8.2,10.3,9,16.8,1.8c7.5-8.4,9.3-18.1,6.4-28.9c1-2.1,2.6-3.6,4.8-4.4c3.3-0.8,6.3-0.4,8.7,2.3c6.7,19,1,34.6-12.5,48.5
		c-6.8,7-14.6,10.6-24,7c-9.3-3.5-13.2-11.4-14.4-20.8C151,290,152.9,283.8,150.6,277.9z"/>
	<path class="st154" d="M150.6,277.9c5.4,8.8,0,20.2,8.2,29c8.4,9.1,17,10.7,26.5,2.5c15-13,18.3-29.7,16-48.3
		c1.2-1.1,2.6-1.2,4-0.4c8.8,12.7,7.4,26,0.3,38.3c-5.2,8.9-10.8,17.6-15.7,26.8c-10.4,0.2-20.7,0.4-31.1,0.6
		c-1.9-1.9-3.8-3.8-5.8-5.8c-3.2-4.4,0.9-10.2-2.9-14.5C150.3,296.7,150.4,287.3,150.6,277.9z"/>
	<path class="st155" d="M204.2,261.1c-1,0-1.9,0-2.9,0c-2.8,0-5.6,0.1-8.4,0.1c-6,2.9-12.2,4-18.8,2.4c-6-2.6-14.6-1.9-15.4-11.6
		c1.2-2.6,2.7-4.9,5.9-5.1c11.6,2.1,21.8,9.6,34.3,8.1c2.9,0.3,5.6,1.3,8.2,2.6c3,0.3,5.9,0.6,8.9,0.9c0.4,1.3,0.1,2.4-0.9,3.4
		c-1.7,1.1-3.5,1.4-5.5,1.3C207.6,262.8,205.8,262.1,204.2,261.1z"/>
	<path class="st156" d="M198.4,257.8c-13.2,2.3-24-2.8-33.8-10.9c2.8-1.8,5.6-3.6,8.5-5.5C180.7,248,192.8,248,198.4,257.8z"/>
	<path class="st157" d="M198.4,257.8c-8.2-5.9-19.8-6.4-25.4-16.4c1.8-1.2,3.6-2.4,5.4-3.6c2.8,7.6,10.3,8.3,16.3,11.3
		c4.5,2.2,9.6,3.6,12.2,8.4C204.1,257.7,201.3,257.7,198.4,257.8z"/>
	<path class="st158" d="M158.6,252c2,7.5,10.4,4.1,14.3,8.4c-1.9,2.7-4.6,3.1-7.6,2.6c-1.4-0.5-2.6-1.2-3.7-2.1
		c-2.1-1.8-4.2-3.7-6.2-5.5C156.4,254.3,157.5,253.2,158.6,252z"/>
	<path class="st159" d="M150.1,306.1c5,4,2.3,9.6,2.9,14.5C148.7,316.4,150.3,311.1,150.1,306.1z"/>
	<path class="st160" d="M368.5,141.7c-3,8-12.1,8.5-17,14.2c-0.3,0.5-0.7,1.1-1,1.6c-3.8,3.3-8.7,5.3-12.2,9.1
		c-11.4,9.8-24.5,17.7-34.2,29.4c-6.4,8-6.8,17.9-8.9,27.3c-1.5,6.4,0.8,15.3-9.1,17.7c-2.3-49.5,28.7-74.6,68.2-93.6
		C359.2,145.8,361.6,138.1,368.5,141.7z"/>
	<path class="st161" d="M266.1,258c0.3-0.8,0.3-1.7,0-2.6c1.1-0.1,2.1-0.3,3.2-0.5c0.7,1.3-0.3,6.1,3.3,1.9c2.4-2.9,4.6-5.9,8.1-7.4
		c3.9,12.5-7.3,18.4-11.9,27.2c-5.2,6.5-8.6,14.5-15.3,19.8c-6.6,5.2-13.6,9.2-19.6-1C240.3,279.2,253.3,268.7,266.1,258z"/>
	<path class="st162" d="M286.1,241c7.2-9.9,4.8-22.3,8.4-33.2c1.9-5.8,2.8-11.8,8.8-15c3.6,4.9,0.5,10,0.5,15
		c-4.5,12.5-3.2,26.6-10.1,38.6c-1.7,1.7-3.8,2.4-6.2,2.3c-1.5-0.3-2.9-1-4-2.1C284.4,244.7,285.3,242.9,286.1,241z"/>
	<path class="st163" d="M283.6,246.6c0.9,0,1.8,0,2.8,0c2.1,2.3,2.6,5,1.8,8c-4.1,8.5-10.2,15.7-14.6,24.1c-1.4,2.6-3,6.3-7.5,4.2
		c-1.6-2.7-1.5-5.4,0.4-7.9c4.6-8.6,12.6-15.2,14.2-25.5C281.6,248.5,282.6,247.6,283.6,246.6z"/>
	<path class="st164" d="M368.5,141.7c-4.7,1.9-9.5,3.8-14.2,5.7c1.8-3.8,4.7-6.6,8.5-8.5c5.6-2.7,7-8.2,8.8-13.4
		C378.5,130.3,378,132.6,368.5,141.7z"/>
	<path class="st165" d="M300.5,206.9c0.9-4.7,1.9-9.4,2.8-14.2c9.3-11.9,21.9-19.8,34-28.4c4.4-3.4,9.9-4.8,14.2-8.5c0,0,0,0,0,0
		c3.1,0.1,6.5-0.5,8.5,2.8c-0.4,8.3-8.4,7.7-12.9,11.1c-15.3,8.2-29.4,17.9-38.9,33C306.5,205.5,304.6,208.5,300.5,206.9z"/>
	<path class="st81" d="M345.8,167.3c4.7-2.9,10.5-4,14.2-8.5c1.9-1,3.7-1.9,5.6-2.9c1,0,1.9,0.1,2.9,0.1c0,1.9,0,3.8,0,5.7
		c-10.8,4.9-19.6,13.5-31.2,17C336.2,171.9,342.5,170.7,345.8,167.3z"/>
	<path class="st166" d="M272.1,311.8c-0.9,0-1.9,0-2.8,0c0.5-11.6,9.9-18.6,14.7-27.9c7.3-14.1,15.6-27.6,19.3-43.4
		c1-4.3,1.1-10.8,8.5-10.8c1,0,1.9,0,2.9,0c3.3,2.8,3.4,6.7,3.7,10.5c-0.7,29.5-13.4,52.4-37.7,68.9
		C277.8,309.9,275,310.9,272.1,311.8z"/>
	<path class="st167" d="M311.8,229.6c-8.9,17.7-12.1,37.7-23.9,54.5c-6.4,9-11.9,18.8-18.6,27.7c-1,0-1.9,0-2.9,0c0-1.9,0-3.8,0-5.6
		c0,0,0,0,0,0c13-24.3,28.7-47.3,34.8-74.7c0.5-2.4,2.5-3.9,4.9-4.6c1.9-1.9,3.8-3.8,5.7-5.7C311.8,223.9,311.8,226.8,311.8,229.6z"
		/>
	<path class="st168" d="M314.7,240.9c0-3.8,0-7.5-0.1-11.3c7.4-24.8,26.4-38,48.5-48c-3.9,4.6-7.8,9.3-11.7,13.9
		c-1.8,5.8-6,9.2-11.4,11.4c-0.9,0-1.8,0.1-2.7,0.1c-7.8,5.8-11,14.4-14.7,22.9C320.8,233.8,322.2,240.8,314.7,240.9z"/>
	<path class="st80" d="M357.2,175.8c4.2-6,10-9.5,17-11.3C370.5,171.2,364.6,174.6,357.2,175.8z"/>
	<path class="st169" d="M314.7,240.9c3.6-7.8,6.8-15.9,11.1-23.4c2.6-4.4,4.3-10.8,11.5-10.5c-0.9,1.9-1.8,3.7-2.7,5.6
		c-8.4,10.8-12.9,23-11.3,36.7c1.2,9.5-3.9,17.2-5.8,25.7c-1.7,7.1-7.8,11.2-11.3,17l0,0c-4.7,5.3-6.6,12.8-13.3,16.5
		c-6.5,3.3-10.5,9.4-15.9,14c-2.9,2.5-5.2,7.6-10.5,3.6c4.7-5.7,9.4-11.4,14.1-17c9.1-11.7,20-22.1,26.6-35.8
		C312.1,262.8,315.7,252.5,314.7,240.9z"/>
	<path class="st170" d="M266.5,326c11.8-2.4,15.6-15,25.5-19.8c1.7,1.9,1.6,3.8,0,5.6c-2.7,1.1-4.6,3-5.7,5.7
		c-18.9,15.5-37.9,30.8-59.5,42.5c2.8-3.8,5.7-7.5,8.5-11.3C246.9,342.8,256.5,334.1,266.5,326z"/>
	<path class="st171" d="M345.8,167.3c-2.8,3.8-5.7,7.6-8.5,11.3c-8.1,7.7-16.7,15-24,23.4c-3.8,4.3-8.3,9.3-7.2,16.2
		c-4.6,10.4-4.6,22.3-9.6,32.6c-1.1,2.4-1,5.7-5.1,4.2c-2-3-1.6-5.8,0.6-8.5c2.8-13.2,5.7-26.5,8.5-39.7
		C312.2,189.8,326.5,175.6,345.8,167.3z"/>
	<path class="st172" d="M292,255.1c9-10.6,4.8-26.4,14.1-36.9c0,2.8,0,5.7,0,8.5c-7.1,26.4-17.1,51.5-33.9,73.5
		c-1.7,2.2-3.8,3.9-5.8,5.9c0-1.9,0-3.8,0-5.6C271.5,283.4,280.3,268.4,292,255.1z"/>
	<path class="st173" d="M292,311.8c0-1.9,0-3.8,0-5.6c6.4-3,7-11.9,14.2-14.2c0,1.9,0,3.8,0,5.7C301.4,302.3,298.5,308.9,292,311.8z
		"/>
	<path class="st173" d="M306.1,292c0.9-7.6,7.5-11.4,11.3-17C318.2,283.7,312.3,287.9,306.1,292z"/>
	<path class="st174" d="M377,181.4c4.5,6.6,4.5,13.2,0,19.9c-9.8,5.1-18,19.3-31.2,5.6c-0.9-6.7,5.3-6,8.6-8.4
		C361.9,192.8,369.5,187.1,377,181.4z"/>
	<path class="st175" d="M354.4,198.5c-2.9,2.8-5.7,5.6-8.6,8.4c-1.9,0.3-3.9,3.1-5.8,0c2.9-4.7,6.6-8.6,11.4-11.4
		C352.4,196.5,353.4,197.5,354.4,198.5z"/>
	<path class="st176" d="M257.9,306.1c-17,17.9-38.4,25.8-62.4,28c-1.2-4.2,2.6-6.1,4.1-9.1c2-2.1,4.1-4.1,6.1-6.2
		c2.1-2.1,4.2-4.3,6.3-6.4c2.8-2.6,5.7-5.1,10-4.5c10.8,5.4,20.7,2,30.4-3.3C254.5,304.2,256.4,304.5,257.9,306.1z"/>
	<path class="st176" d="M292,255.1c-7.2,15.9-15.4,31.2-25.5,45.4c-1.9,0.9-3.8,1.8-5.7,2.8c-1.6-1.6-2.2-3.5-2.1-5.7
		c0.6-4.3,2.7-7.8,6-10.6c11.3-7.9,13.5-21.9,21.7-31.9c0-2.8,0-5.7,0-8.5c1.9,0,3.7,0,5.6,0C292,249.5,292,252.3,292,255.1z"/>
	<path class="st78" d="M201.8,326.1c-2.1,2.7-4.2,5.3-6.3,8c-7.6,3.6-10.8,12.9-19.6,14.9c4.6-9.3,14.5-14.1,19.8-22.8
		c0.4-0.4,0.8-0.9,1.3-1.3C198.8,324.3,200.4,324.6,201.8,326.1z"/>
	<path class="st162" d="M260.8,297.6c0,1.9,0,3.7-0.1,5.6c-0.9,0.9-1.9,1.9-2.8,2.8c-1.9,0-3.7,0-5.6,0.1c-0.9-1-1.4-2.2-1.5-3.5
		c0.7-3.7,2.9-5.8,6.5-6.5C258.7,296.1,259.9,296.6,260.8,297.6z"/>
	<path class="st43" d="M204.2,261.1c1.8-0.1,3.7-0.2,5.5-0.3c11.4,11.1,7.7,24.6,3.9,36.6c-2.7,8.5-10,15.6-12,25
		c-0.5,2.3-4,2-6,3.1c0,0,0.1,0.7,0.1,0.7c-1.9-0.2-3.9-0.3-5.8-0.5c-3.3-9.9,3.9-16.3,8.9-22.3C210.1,290.1,208.3,276,204.2,261.1z
		"/>
	<path class="st177" d="M266.1,258c-8.5,13.8-20.3,24.7-30.9,36.7c-1,1.2-2.3,1.6-3.8,1.2c-2.2-1.1-3-2.8-2.7-5.2
		c3.5-10.5-4.1-22.4,3.7-32.4c3.5-0.3,6.9-0.5,10.4-0.8C250.6,257.6,258.3,257.8,266.1,258z"/>
	<path class="st178" d="M221,308.8c-2.6,2.1-5.2,4.1-7.8,6.2c-7.6-1.5-3.6-6.5-3.2-10.4c9.7-13.8,3.6-29.4,5.3-44.2
		c0.2-0.6,0.4-1.3,0.7-1.9c3.6,0,7.3,0,10.9,0c0.8,1.1,0.7,2.2-0.1,3.2c-3.2,1.2-4.2,3.3-2.6,6.5c1.3,9.4,0.9,18.9,0.4,28.3
		c-0.4,3.1-1.4,6.1-1.8,9.2C222.4,306.9,221.9,308,221,308.8z"/>
	<path class="st67" d="M226.7,260.8c0-0.8,0-1.6,0-2.3c1.9,0,3.8-0.1,5.7-0.1c0.6,8.7-1.4,17.6,1.7,26.2c1.4,3.9-1.5,5.9-4.5,7.5
		C223.2,282.1,225.6,271.4,226.7,260.8z"/>
	<path class="st179" d="M161.6,261c1,0,1.9,0,2.9,0c8.2,3.5,17.3-1,25.5,2.7c7.6,12,0.6,31.9-12.7,37.7c-6,2.6-8.8-0.6-11.5-4.4
		C157.7,285.7,156.9,273.6,161.6,261z"/>
	<path class="st180" d="M189.9,263.6c-8.5-1.2-17.5,2.7-25.5-2.7c2.8-0.2,5.7-0.3,8.5-0.5c6.6,0.3,13.3,0.5,19.9,0.8
		C191.9,262,190.9,262.8,189.9,263.6z"/>
	<path class="st181" d="M215.2,260.4c4.8,15.6,4.8,30.9-2.6,45.7c-3.5,4.2-6,8.7-5.3,14.4c-1.9,1.9-3.7,3.7-5.6,5.6
		c-2.1-0.2-4.2-0.4-6.2-0.6c8.1-20.8,25.8-39.5,14.2-64.6C211.6,260.7,213.4,260.6,215.2,260.4z"/>
	<path class="st114" d="M351.5,155.9c-3,5.7-8.3,7.5-14.2,8.5C340.3,158.7,345.6,156.9,351.5,155.9z"/>
	<path class="st182" d="M233.2,295.2c0.7-0.1,1.4-0.3,2-0.5c6,7.5,11.8,4.1,16.5-1c5.4-5.8,9.8-12.4,14.7-18.7c0,2.8,0,5.7,0,8.5
		c-0.2,0.6-0.3,1.2-0.5,1.8c-3.7,3.4-4.9,8.6-8.1,12.4c-1.9,1.9-3.8,3.8-5.7,5.7c-8.6,7.2-17.3,12.4-26.7,1.2
		C224.8,298.7,228.4,296.5,233.2,295.2z"/>
	<path class="st162" d="M286.3,255.1c-4.8,12.4-10.5,24.3-19.8,34c-1.8-1.9-1.6-3.8,0-5.7c0,0,0,0,0,0
		C274.4,274.9,276,262,286.3,255.1z"/>
	<path class="st163" d="M226.8,303.5c8.6,8.5,17,1.8,25.4-0.2c0,1,0,1.9,0,2.9c-9.7,9.5-20,12.5-31.3,2.7c0.1-0.9,0.2-1.7,0.4-2.5
		C222.5,303.9,223.6,301.6,226.8,303.5z"/>
	<path class="st183" d="M207.3,320.5c-6.9-8,0.5-10.7,5.3-14.4c0.9,2.9-3.6,6.2,0.6,8.9C211.2,316.9,209.3,318.7,207.3,320.5z"/>
	<path class="st163" d="M266.5,283.5c0,1.9,0,3.8,0,5.7c-1.9,2.8-3.8,5.7-5.7,8.5c-1,0-1.9,0-2.9,0
		C259,291.8,260.8,286.5,266.5,283.5z"/>
	<path class="st184" d="M226.8,303.5c-1.8,0.9-3.6,1.9-5.4,2.8c-3.5-1.8-0.7-3.9-0.3-5.8c4.9-12.3,4-24.6,0-36.8
		c-0.1-2.8-0.1-2.8,5.6-2.9c5.3,10,1.9,20.8,2.9,31.2c1.2,1.1,2.4,2.1,3.6,3.2C231.1,298,228.9,300.7,226.8,303.5z"/>
	<path class="st185" d="M221.1,263.6c8.1,12.5,8.1,27,0,36.8C221.1,288.2,221.1,275.9,221.1,263.6z"/>
	<path class="st186" d="M184.3,275.6c-0.3,5-0.6,9.9-6.3,9.6c-5.1-0.3-8.1-3.6-7.9-9.4c0.2-5.3,3.4-7.9,7.7-8.2
		C183.5,267.1,183.9,272,184.3,275.6z"/>
</g>
</svg>
