<?xml version="1.0" encoding="utf-8"?>
<!-- Generator: Adobe Illustrator 21.0.2, SVG Export Plug-In . SVG Version: 6.00 Build 0)  -->
<svg version="1.1" id="Laag_1" xmlns="http://www.w3.org/2000/svg" xmlns:xlink="http://www.w3.org/1999/xlink" x="0px" y="0px"
	 viewBox="0 0 566.9 566.9" style="enable-background:new 0 0 566.9 566.9;" xml:space="preserve">
<style type="text/css">
	.st0{fill:#E6E8E7;}
	.st1{fill:#B4D1D5;}
	.st2{fill:#A1C4D5;}
	.st3{fill:#ADBFC8;}
	.st4{fill:#A3B0B4;}
	.st5{fill:#579E96;}
	.st6{fill:#92ABB3;}
	.st7{fill:#99C7CE;}
	.st8{fill:#7DAFC5;}
	.st9{fill:#3C6C7D;}
	.st10{fill:#4C839A;}
	.st11{fill:#6CA5B6;}
	.st12{fill:#6D9DBD;}
	.st13{fill:#8BBAD3;}
	.st14{fill:#96B8CD;}
	.st15{fill:#5998C6;}
	.st16{fill:#6CA4B9;}
	.st17{fill:#62A1C9;}
	.st18{fill:#548BB6;}
	.st19{fill:#357DB3;}
	.st20{fill:#6AA1CB;}
	.st21{fill:#759EB0;}
	.st22{fill:#ADD1E1;}
	.st23{fill:#437890;}
	.st24{fill:#90A0A7;}
	.st25{fill:#288767;}
	.st26{fill:#247D70;}
	.st27{fill:#66A2A5;}
	.st28{fill:#3C7F75;}
	.st29{fill:#77A8C0;}
	.st30{fill:#21596C;}
	.st31{fill:#0D60A0;}
	.st32{fill:#145282;}
	.st33{fill:#345F6C;}
	.st34{fill:#0A62A5;}
	.st35{fill:#316D82;}
	.st36{fill:#297188;}
	.st37{fill:#F5902E;}
	.st38{fill:#F6AE63;}
	.st39{fill:#5896A3;}
	.st40{fill:#075897;}
	.st41{fill:#7FB7D1;}
	.st42{fill:#2E8394;}
	.st43{fill:#2E819C;}
	.st44{fill:#68A4B4;}
	.st45{fill:#6EA3B3;}
	.st46{fill:#3D758A;}
	.st47{fill:#10548A;}
	.st48{fill:#3D839E;}
	.st49{fill:#2477AB;}
	.st50{fill:#3A797F;}
	.st51{fill:#339575;}
	.st52{fill:#328E7A;}
	.st53{fill:#D6D2C5;}
	.st54{fill:#6B7B8D;}
	.st55{fill:#BAAEA6;}
	.st56{fill:#6D99A9;}
	.st57{fill:#3D8A8C;}
	.st58{fill:#76868D;}
	.st59{fill:#C3BFC3;}
	.st60{fill:#4F90B2;}
	.st61{fill:#FFFFFF;}
	.st62{fill:#F4862A;}
	.st63{fill:#F48529;}
	.st64{fill:#F49D4F;}
	.st65{fill:#E5D9D2;}
	.st66{fill:#2E8889;}
	.st67{fill:#3C5B5B;}
	.st68{fill:#27748C;}
	.st69{fill:#2C9164;}
	.st70{fill:#3B6455;}
	.st71{fill:#DFD4C7;}
	.st72{fill:#2A7F78;}
	.st73{fill:#F17027;}
	.st74{fill:#F37C28;}
	.st75{fill:#E9E9E0;}
	.st76{fill:#F28D4C;}
	.st77{fill:#F4A469;}
	.st78{fill:#E0C9B7;}
</style>
<g>
	<path class="st0" d="M44.9,162.7c-5.6-3.2-7.2-8.2-7.1-14.3c0.2-15.1-0.8-30.3,0.3-45.3c1.7-23.7,18.5-38.3,42.4-38.9
		c49.5-1.2,98.9-2.6,148.3-7.2c20.9-1.9,41.4,3.2,63,0.7c64.9-7.5,129.9-5.1,194,9.1c11.6,2.6,23.6,1.3,35.3,4.6
		c11,3.1,15.7,8.9,15.7,20c-0.1,128.4-0.1,256.8-0.1,385.3c0,9.6-3,18.1-12.9,20.7c-32.5,8.8-63.7,21.6-97,28.5
		c-33.6,7-66.2-0.1-99.1-1.9c-30.5-1.6-60.7-7.5-91.2-9.7c-34.4-2.4-68.3-7.9-102.3-12.8c-16.1-2.3-32.2-3.8-48.2-6.7
		c-31.3-5.5-47.9-25.5-48.1-57.4c-0.2-29,0-57.9-0.1-86.9c0-7.1-0.3-14,7-18.2c7.3,6.2,5.9,14.8,6,22.8c0.3,26.4,0,52.9,0.1,79.3
		c0.1,31.2,9.5,42.1,41.1,48.2c37,7.2,74.6,10.3,112,14.5c20.6,2.3,40.7,8.3,61.6,8.2c49.1,7.1,98.5,14.6,148,10.1
		c33.1-3,64.3-16.5,93.9-32c10.4-5.4,12.6-16.4,12.6-27.8c0.1-39,0-78,0-117c0-71.7,0.1-143.5-0.1-215.2c0-8.1,1.2-16.4-2.5-24.1
		c-5-7.6-6.4-18.9-19.1-18.5c-22-2.4-44.2-4.1-65.8-9.2c-7.3-2.8-14.9-2-22.4-2c-42.8-0.1-85.5-0.3-128.3,0
		c-59,0.5-117.9,4.7-177,4.6c-15.7,0-36.6-4.1-46.2,16.9c-8.5,8.4-7.3,19.2-8,29.9C49.7,135,55.3,150,44.9,162.7z"/>
	<path class="st1" d="M44.9,162.7c0.2-17.9,0.8-35.7,0.3-53.6c-0.3-9.3,2.5-15.4,11.4-18.5c0.8,0.9,1.6,1.7,2.5,2.6
		c6.3,29.2,1.1,58.8,3.2,88.2c0.2,84.7-0.5,169.4-0.3,254c0,13.4,2.8,23.2,15.7,28.5c1.5,1.6,2.5,3.6,2.9,5.7
		c1.6,1.7-4.3,3.9-0.5,4.3c55.9,4.7,110.7,17,166.3,24c6.2,0.8,12.2,2.6,17.3,6.5c1.7,1.7,2,3.6,0.8,5.7c-36-4.2-72-8.2-107.9-12.7
		c-22.3-2.8-44.5-6.4-66.7-9.8c-30.4-4.7-46.6-21.9-45-53.4c1.7-33.9,0-67.9-0.2-101.9C44.8,275.8,44.8,219.3,44.9,162.7z"/>
	<path class="st2" d="M502.8,76.1c11.7,1,15.2,8.4,14.8,18.9c3.8,4,3.8,9.1,3.8,14.1c-0.3,105.9,1,211.8-0.6,317.6
		c-2.5,5.5-5.7,6.5-8.9,0.8c-3.1-5.6-1-12.1-1.7-16.8c-1.3,22.6,6.3,46.7-2.3,70.4c-10.7,7.6-12.8,7.3-16.7-2
		c5.7-6.7,6.1-14.7,6.1-23c0.3-111.6-0.5-223.1-0.7-334.7c0-7.9,1.3-16.5-5.6-22.8c-12.4,0.2-15.5,10.9-21.3,18.7
		c-1.5,1-3.1,1.2-4.9,0.8c-5.7-5.3-3.6-13-5.8-19.3c-0.7-1.5-1.4-3-2.2-4.5c-3.6-5.7-7.7-8-13.2-2.2c-1.4,3.9-1.8,8.2-4.8,11.4
		c-7.9,2.8-10.8,12-19,14.5c-1.8-1.2-3.1-2.8-3.9-4.8c-4.2-27.6-4.2-27.6-32.9-27.8c-90.3-0.9-180.5,4.7-270.7,5.1
		c-9.6,2.3-19.3,1.7-29,1.6c-3.2-0.1-6.4-0.7-9.4-2c-2-0.9-3.6-2.4-4.8-4.2c-5.3-13.3,2.5-12.3,11.3-10.3
		c71.4-0.5,142.8-4.1,214.2-5.6c39.5-0.9,78.9-0.4,118.4-2.2c5-1.7,10.2-1.1,15.4-1.2c1.8,0.5,3.1,2,4.6,3
		C442.1,74.9,491.3,79.7,502.8,76.1z"/>
	<path class="st3" d="M517.8,430.8c0-111.9-0.1-223.9-0.1-335.8c10,0.7,7.6,8.5,7.6,14.2c0.1,116.5,0.1,232.9,0,349.4
		c0,17-8.4,26.7-24.1,34.2c-44.5,21.2-90.5,34-140.1,28.6c-32.2-3.5-64.8-4.2-96.7-11.2c0-1.2,0-2.5,0-3.7c12-8.9,25.2-4.4,38.1-3.5
		c19.3,1.3,38.1,8.2,57.8,4.2c18.6-2.4,36.6,6.8,55.3,2.6c3.5-0.7,7.1-1.3,10.5-2.3c6.5-1.1,12.8-4,19.4-2.2
		c-2.8-2.4-7.7-3.1-8.2-8.2c4.8-9.3,15.8-5,22.4-10.4c9.4,1.6,20.4,8.2,24.2-7.8c2.5-1.2,4.9-1,7.1,0.8c5.4,7.6,10.7,1.8,16-0.2
		C513.5,463.8,508.2,445.7,517.8,430.8z"/>
	<path class="st1" d="M430.9,68.3c-5.1-0.1-10.1-0.1-15.2-0.2c-1.7,0.7-3.3,1.7-5.3,1.7c-106.1-0.6-212.1,5-318.1,7.6
		c-5.5,0.1-11.3,1.4-16.6-1.7c-10.1,0.6-2.4,7.5-4,11.1c-4,4.7-8.9,6.4-14.8,4c0,0-0.2-0.2-0.2-0.2c-4-13.4,6.1-16.3,14.9-18.5
		c9.6-2.4,19.7-3.8,29.6-3.8c106.5,0,212.9-6.9,319.5-4.1c4.9,0.1,10.2-0.9,13.9,3.7C433.5,69.3,432.2,69.4,430.9,68.3z"/>
	<path class="st4" d="M430.9,68.3c1.2-0.1,2.5-0.2,3.7-0.3c22.7,2.7,45.5,5.4,68.2,8.1c-1.3,15.8-14.3,7.6-18.8,6.3
		c-13.1-3.5-25.5-6.4-39.2-3.3C437.2,80.8,431.7,76.9,430.9,68.3z"/>
	<path class="st5" d="M79.4,468.7c-17.8-3.6-23.4-14.3-23.2-32.4c1-84.7,0.7-169.4,0.9-254.1c1.6-3.2,3.3-6.3,6.6-8.1
		c2.6-1.3,5.3-2,8.2-1c1.6,1.3,2.7,2.9,3.4,4.8c2.3,8.1,1.7,16.3,0.7,24.6c-5.7,37.3-1.9,74.8-3.8,112.2c-2,37.5-3,74.8,0.9,112.3
		c1.7,16.3,3.8,29.6,21.4,35.1c3,0.9,5,3.7,4.1,7.4C91.8,474.3,85.5,473.4,79.4,468.7z"/>
	<path class="st6" d="M362.6,510.5c-18.5,10.1-36.8-0.8-55-1.6c-14.2-0.7-28.7-1.9-43-2.4c-58.5-8.9-117.1-17.7-175.6-26.8
		c-4.7-0.7-9.1-3.1-13.6-4.8c-0.1,0,0.1-1.3,0.4-1.5c1.1-0.5,2.3-0.8,3.5-1.2c33.5-5.4,65.7,4.8,98.4,8.3
		c11.7,1.3,23.7,1.8,35.2,5.3c44,3.8,87.3,12.7,131.1,17.4C350.3,503.9,357.9,504.3,362.6,510.5z"/>
	<path class="st7" d="M212,491c-44.2-6.3-88.5-12.5-132.7-18.8c0.1-1.2,0.1-2.4,0.1-3.5c6.3-0.1,12.6-0.1,19-0.2
		c9.2-3.9,18.9-2.3,27.9-1c31.1,4.7,62.6,6.6,93.4,13c2,0.9,3.4,2.3,4.4,4.3C223,492.7,215,487.1,212,491z"/>
	<path class="st2" d="M63.8,177.3c-2.3,1.6-4.5,3.2-6.8,4.8c0-30.4-0.1-60.9-0.1-91.3c4.6-2.8,9.4-4.4,14.8-4c0,0,0.4,0.4,0.4,0.4
		c-7.7,26.2-7.5,52.8-4.9,79.7C67.5,170.8,66.6,174.4,63.8,177.3z"/>
	<path class="st8" d="M109.5,86.7c3.9-4.3,9.2-3.5,14.1-3.4c86,2.4,171.8-5.6,257.8-4c38.1,0.7,38.1,0.1,38,37.8
		c-2.1,1.1-3.9,0.7-5.4-1.1c-3.6-12.9-12.3-16.9-25.4-16.6c-14.5,0.3-28.7,2.9-43,4.2c-33.7,2.9-67.6,1.1-101.3,3.6
		c-14.8,1.1-28.7,7.6-44.2,5.2c-6.5-1-12.8,4.5-16.9,10.5c-7.7,5.7-15.5,5.3-16.6-4.9c-2.2-20.3-15.5-19.4-29.6-17.5
		C124.4,102.3,113.2,102.3,109.5,86.7z"/>
	<path class="st9" d="M491.2,479.7c-2.4,0.1-4.9,0.3-7.3,0.4c-2.2,1.2-3.8,0.6-4.8-1.7c0.2-4.6,2.7-7.9,6.1-10.7
		c8.5-6.9,8-16.7,8-26c0.3-49.6-0.1-99.3,0.2-148.9c0.1-18-8.4-32.5-16.6-47.4c-5.1-29.7-1.1-59.6-2.5-89.3
		c-0.5-10.5,1.9-21.2-2.4-31.4c-1-2-1.4-4.2-1.1-6.5c6-13,6.6-13.3,14.5-10c0.2,39.6,2.1,79.3,0.6,107.4
		c-0.3-29.7,2.5-70.9-2.4-112.1c-2.3-4.1-2.4-8.1,0.1-12.2c14.4-2,18.5,5.2,18.5,18.7c-0.1,116.5,0.2,233,0.2,349.5
		C502.5,468.1,504,477.9,491.2,479.7z"/>
	<path class="st10" d="M437.8,101c0.3-4.5,0.7-9,1-13.5c8.4-1,15.7,1.7,22.2,7l0.1,0c8.8,58.8,5.7,117.9,3.6,177
		c-4.1,8.4-8.8,5-13.5,0.6c-6.3-10.1-12.8-20.2-17.1-31.5c-3.1-40.9-1.3-81.7-1.1-122.6C432.5,111.8,434.4,106.2,437.8,101z"/>
	<path class="st11" d="M109.5,86.7c11.4,14.9,27.1,7.8,41.1,7.5c13.4-0.3,22.1,1.7,19.7,18c-1.2,8.1,0.7,14.4,11.1,8.6
		c2.4-2.2,4.9-2.2,7.6-0.7c2.1,7.7-4.4,9.6-8.9,11.7c-11.8,5.6-21.9,13.5-32.1,21.3c-1.8,0.8-3.6,1.3-5.5,1.6c-5,0.4-10,0.7-14.9,2
		c-11.9,3.2-18.1-1.6-18.9-13.7c-0.5-7.5,0-15.1-0.3-22.6c-0.6-19.2-4.3-22.4-22.6-19c-4.3,0.8-8.4,2.6-13,1.6
		c-6.9-9,1.4-11.6,6.5-15.7C89.3,87.2,99.4,86.9,109.5,86.7z"/>
	<path class="st12" d="M460.6,276.1c0.2-60.5,0.3-121,0.5-181.6c6.6,6.6,2.7,15.1,3.8,22.6c6.6,8.1,5.2,17.8,5.2,27.1
		c0.1,58.5,0,116.9,0.1,175.4c0.9,31.4-2.3,62.9,1.9,94.2c2.4,10.4,1.9,21,1.7,31.5c2.7,11.1-7.9,24.7,6.2,33.7
		c1.3,0.3,2.5,0.6,3.8,1c-0.9,3.9,10.4,8.2,1.4,10.5c-7,1.8-18.1,15.9-23.4-2.8c-8.8-5.3-6-13.9-6.2-21.6c-0.7-55,0-110-0.1-165.1
		C455.5,292.5,453.9,283.4,460.6,276.1z"/>
	<path class="st13" d="M415.8,117.2c1.2,0,2.4,0,3.6-0.1c1.1,0,2.1,0,3.2,0.1c0.9,0.8,1.8,1.6,2.8,2.5c4.2,6.8,3.9,14.5,3.9,22
		c-0.1,66,0.7,131.9-0.4,197.9c0.7,31.1,0.8,62.2-0.1,93.3c0.3,20,0.5,40.1-0.2,60.1c-0.1,3-0.1,6-0.3,9.1c0,2.9-0.6,5.7-0.9,8.6
		c-2.6,1.1-5.2,2.2-7.8,3.3c-2.7-2.6-5.6-5.1-6.7-8.9c-0.9-2.9-1.2-5.9-1.1-8.9c0.1-3.2,0.8-6.3,1.7-9.4c0.3-38.7,1.2-77.3,0.4-116
		c-1.6-29.8,2.7-59.8-2.5-89.5c3.9-23.3,2.9-46.7-0.4-70c0.2-23.7-1.6-47.4-0.8-71.1C410.5,132.1,409.2,123.7,415.8,117.2z"/>
	<path class="st14" d="M75.7,75.7c50.1-1.1,100.3-2.1,150.2-4.9c63.4-3.6,126.6-1.1,189.9-2.6c-2.6,3.4-6.4,3.6-10.2,3.6
		c-41.4,0.2-82.7,1.2-124.1,3.3c-62,3.2-124.2,3.1-186.2,4.2C88.7,79.4,81.3,81.8,75.7,75.7z"/>
	<path class="st15" d="M512.5,116c0,66.2,0,132.4,0,198.7c-1.3,0-2.5,0-3.8,0.1c0-66.2,0-132.5,0-198.7
		C509.9,116,511.2,116,512.5,116z"/>
	<path class="st16" d="M79.2,87.4c-2.3,5-8,8.3-7.4,14.7c9.7,14.9,4.8,31,4.2,46.8c-2.3,8.4-1.9,17.7-7.9,25
		c-1.5,1.1-2.9,2.2-4.4,3.3c-4.3-17.8-2.7-35.9-3.6-53.9c-0.7-13.9,2.4-25.9,11.8-36.2C74.4,87.3,76.8,87.3,79.2,87.4z"/>
	<path class="st17" d="M465.2,321.5c-0.1-68.1-0.2-136.2-0.2-204.3c1.1,0,2.3-0.1,3.4-0.1c1.6-1.2,3.1-1.1,4.6,0.3
		c0,1.1,0.2,2.3,0.5,3.4c1.6,62.8,0.9,125.7,0.4,188.5c-0.2,3.6-0.9,7-2.7,10.1C469.7,321.7,467.7,322.4,465.2,321.5z"/>
	<path class="st18" d="M517.8,430.8c-0.8,16.8,0.7,34.2-10.6,48.7c0-30.4,0-60.9,0-96.6C520,400.8,508.9,417.8,517.8,430.8z"/>
	<path class="st19" d="M437.8,101c0,5.4-0.1,10.9-0.1,16.3c-4.6,7.9-9.2,8.1-13.7-0.1c0,0-1.5-0.1-1.5-0.1
		C422.1,106.6,427.1,101.1,437.8,101z"/>
	<path class="st20" d="M472.9,117.4c-1.5-0.1-3-0.2-4.6-0.3c-3.3-13.6,11.7-16.3,15.4-25.7c0,3.5-0.1,7.1-0.1,10.6
		c1.2,0.9,1.6,1.6,1,2.2c-0.5,0.6-1,0.9-1.4,0.9C479.9,109.2,478.7,115.2,472.9,117.4z"/>
	<path class="st21" d="M461,94.5c-8.6,1.6-15.5-2.4-22.2-7C449.4,79.8,457.2,81,461,94.5z"/>
	<path class="st22" d="M415.8,506.3c3.1,1.6,3.7,4.5,3.7,7.6c-19.5,7.1-38-3.2-57-3.4c-42.7-5.7-85.5-11.5-128.2-17.2
		c-7.4-1-14.9-1.5-22.4-2.3c3-4.3,7.8-3,11.9-4c17.1-10.1,33.9,1.1,50.9,0.4c10.2,3.8,21.1,1.7,31.5,4
		C342.7,497.2,379.5,499.7,415.8,506.3z"/>
	<path class="st23" d="M423.8,506c0-2.5,0.1-5.1,0.1-7.6c2.7-6.2,8.2-8.7,14-10.7c2.4-1.3,6.3-1.6,4.3-6c-4-9.2,1.1-12.1,9-13.1
		c3.9-0.1,7.1,1.3,9.8,3.9c-3.1,5.3-0.4,10.3,0.8,15.3c-3.3,13.1-18.4,1.8-23.4,11.3C437.1,508.7,430,506.4,423.8,506z"/>
	<path class="st24" d="M423.8,506c4.9-2.3,9.7-4.7,14.6-7c3.1,0.1,6.7,0.1,8.2,3.3c2,4.3-2.2,5.3-4.7,5.9c-4.7,1.2-9.7,1.6-14.6,2.3
		C426.2,509.1,425,507.6,423.8,506z"/>
	<path class="st25" d="M222.5,484.2c-41.4-5.2-82.8-10.5-124.2-15.7c-30-10.7-27.7-10.9-31-43.5c-4.5-43.6,0.5-86.9-0.2-130.2
		c-0.4-24.2,1.6-48.3,0.8-72.5c-0.2-7.5-0.3-15.1,3.9-21.9c10.4-4.8,20-15.6,32.6-4.5c-2.3,23.2-14.3,44.1-15.6,67.5
		c-0.2,16.1-2,32.2,1.3,48.2c2.2,17.4,7.1,34.1,15.1,49.8c4.1,10.2,10.6,19.3,12.7,30.4c1.3,11.2,0.8,22.4,0.9,33.6
		c0.4,23.5,4.4,27.9,28.2,30.2c32.8,3.3,65.3,8.8,97.9,13.4c4.3,1.7,8.1,3.9,9.8,8.6C246.6,493,233.6,483.7,222.5,484.2z"/>
	<path class="st26" d="M102,196.7c-10.8-4.8-19.4,8.5-30.2,3.8c0.1-8.8,0.1-17.6,0.2-26.4c5.7-12,17.5-15,28.5-18.2
		c12.9-3.6,17,6.5,21.1,15.8c2.1,6.4-1.8,10.6-5.3,15C111.6,190.2,110,198,102,196.7z"/>
	<path class="st27" d="M122.4,173.9c-16.9-23.7-33.6-9.2-50.4,0.2c-1.3,0-2.5,0-3.8,0c1-7.6-3.1-16.1,3.5-22.9
		c13.3-5.7,26.5-11.8,41.6-7.6c-0.1,8.2,2,14.2,11.7,9.1c5.9-3.1,11.5-3.4,17.6-1.4C143.7,165.8,133.7,170.4,122.4,173.9z"/>
	<path class="st28" d="M222.5,484.2c9.9-4,23.7,7.2,30.7-8c6.5-6.4,14.3-4.8,22.1-3.8c7,3,16,1.4,21.2,8.7
		c1.1,19.9-12.3,10.4-21.1,10.4c-17.2-1.5-34.4-3-51.6-4.5C223.4,486.1,222.9,485.2,222.5,484.2z"/>
	<path class="st29" d="M415.8,117.2c0,31.5,0,62.9,0,94.4c-9.3,6.5-14.5,0.1-17.3-6.9c-4.1-10.5-12.5-14.9-21.5-19.2
		c-19.1-19-36.7-39.5-60.1-53.8c-8.9-5.4-17.4-9.9-28-8.4c-10.4-1.2-20.2-6.2-30.9-4.5c-17.6,0-35.1-0.4-52.3,4.4
		c-5.4,1.5-11.1,2.5-16.1-1.8c-2.7-0.1-5.5-0.2-8.2-0.3c0.9-10.5,9.3-14.7,17-14.4c37.3,1.7,73.6-9.6,111.6-5.7
		c27.3,2.8,55.8-3.3,83.6-6.6C412,92.1,418.7,99.5,415.8,117.2z"/>
	<path class="st30" d="M481.4,245.6c11.4,14,18,29.2,17.7,48.1c-0.8,51.6-0.4,103.2-0.2,154.9c0,11.5-1,21.7-15.2,23.9
		c-7.4-7.7-4.8-17.3-5.2-26.3c-0.6-14.1,1.9-28.4-2.6-42.2c-2.9-27-1-54.1-1.2-81.2c-0.2-4.8,0-9.5,0-14.3
		c-0.3-14.3-0.3-28.5-0.1-42.8C474.6,258.4,473.8,250.5,481.4,245.6z"/>
	<path class="st31" d="M481.4,245.6c-0.5,21.5-0.9,43-1.4,64.5c-3.2,2.6-6.1,6-10.9,3.3c-0.2-58.4-0.3-116.7-0.5-175.1
		c0-6.5,0.6-12.5,4.9-17.6c10.2,2.3,6.7,10.7,6.8,16.8C480.9,173.6,481,209.6,481.4,245.6z"/>
	<path class="st32" d="M480.8,404c6.5,22.6,1.1,45.7,3,68.4c-1.2,2.2-2.4,4.4-3.6,6.7c-5.7,6.4-11.1,11.1-11.4-3
		c-0.2-8.7,0.1-17.5,0.2-26.2c11-12.3,2.7-28.2,7.9-41.6C477.6,406.5,478.9,405,480.8,404z"/>
	<path class="st33" d="M483.2,105c-0.1-1.1,0-2.1,0.4-3.1c9.7,19.3,6.2,41.3,5.7,60.5c-0.6,23.5,6.3,48.3-6.1,71.4
		C483.2,190.9,483.2,147.9,483.2,105z"/>
	<path class="st34" d="M424,117.3c4.6,3.4,9.1,3.5,13.7,0.1c0.2,42.7,0.5,85.3,0.7,128c8.6,29.6,8.5,59.2,0.3,88.9
		c-3.8,5.1-8.6,7.6-14.9,4.8C423.9,265.1,424,191.2,424,117.3z"/>
	<path class="st35" d="M434.8,335.9c7-30,1.3-60.5,3.7-90.6c8.8,5.2,10.3,15.2,14.9,23.1c3.4,48.8,3,97.6,0.3,146.4
		c-0.7,12.1,0.8,23.8,2.3,35.5c1.1,8.7,1.1,16.2-6.3,22.1c-2.7,0.8-8,2.5-5.4,4.7c16,13.2,4.8,13.4-6.2,14.2
		c-9-11.7-4.2-25.4-5.4-38.2c-0.7-7.5-0.1-15-1.1-22.5c1.3-26.8,1.8-53.6,0.3-80.4C431.7,345.2,431.2,340.2,434.8,335.9z"/>
	<path class="st36" d="M449.7,472.4c1.7-7.8,3.9-15,0.7-23.6c-8.4-23.2,0.6-46.9-0.4-70.4c-1.3-30.7-0.4-61.5-0.2-92.2
		c0-6-2-12.7,3.5-17.7c2.4,2.6,4.8,5.1,7.2,7.7c0.2,65.5,0.3,130.9,0.5,196.4C457.3,472.4,453.5,472.4,449.7,472.4z"/>
	<path class="st37" d="M122.4,173.9c6.7-7.5,13.5-15.1,20.2-22.6c1.3-0.4,2.6-0.8,3.9-1.2c22.8-11.5,46.6-8.3,70.2-3.8
		c30.1,5.8,61,9.3,86.9,28.2c4.2,11.1-2.8,16.2-11.3,19.5c-8.7,3.3-14.4,9.1-18.4,17c-17.9,3.7-28.2-10-40.4-18.4
		c-18.3-12.6-36.6-21.7-58.8-10.6c-6.8,6.7-7,16-10,24.2c-14.5,28.5-44.4,44-70.7,36.8c-5.2-15.3,4.4-27,9.7-39.7
		c2.6-6.3,5.8-12.3,9.5-18C116.3,181.4,119.3,177.6,122.4,173.9z"/>
	<path class="st38" d="M302.3,177.8c-46.5-21.8-94.6-34.4-146.5-27.1c-3,0.4-6.2-0.4-9.3-0.7c11.6-13.7,28.6-19.4,43.1-28.8
		c23.2-6.6,46.8-9.7,70.9-7.2c36.3,5.9,66.4,22.7,89.8,51.1c7.6,12.1,16.4,23.5,22.3,36.7c3,6.8,7.3,13.4,2.9,21.1
		c-2.6,2.2-6.2,3.3-8.6,1.3C346.5,207.2,322,195.8,302.3,177.8z"/>
	<path class="st39" d="M113.3,143.5c-13.7,3.6-26.8,9.9-41.6,7.6c0-16.3,0.1-32.7,0.1-49c5-2.3,9.9-5.5,15.1-6.9
		c19.2-5,26.2,0.5,26.4,20.4C113.4,125,113.3,134.2,113.3,143.5z"/>
	<path class="st40" d="M479.7,407.7c0,10.4-0.2,20.9,0.2,31.3c0.3,8-3.5,11.2-11,11c-0.3-11.5-0.6-23-0.9-34.6
		c-0.8-1.7-0.7-3.3,0.3-4.9C471.4,406.6,474.9,404.6,479.7,407.7z"/>
	<path class="st41" d="M469,412.1c-0.2,1.1-0.5,2.2-1,3.3c-6.6-31.1-1.5-62.6-2.9-93.9c1.1-0.1,2.2-0.2,3.2-0.1
		c1.9,1.6,3.3,3.5,4.1,5.8C473.8,355.6,478.9,384.2,469,412.1z"/>
	<path class="st42" d="M415.7,279.8c6.9,30.2,2.7,60.8,2.6,91.2c-2.8,28.2,0.5,57.8-22.4,80.8c-11.7,11.7-23.6,18.3-39.9,10.8
		c-4.2-6.4,1-10.4,4-14.8c19.1-28.6,31.3-59.5,32-94.3c6-26.2,10.7-52.7,13.8-79.5C414.2,267.1,412.5,277.6,415.7,279.8z"/>
	<path class="st43" d="M355.3,461.1c30.8,0.1,55.3-22.8,56.5-53.7c0.5-12.5,3-24.5,6.4-36.3c0.4,37.5,0.8,74.9,1,112.4
		c0,2.8-1.9,5.7-3,8.5c-0.8-0.5-1.6-1.1-2.4-1.6c-3.4-8.1-10.8-8.9-18.1-10.4c-16.2-3.5-33-3.9-48.7-9.9c-2.3-2.8-5.3-5.9-1.7-9.4
		C348.4,457.7,352.1,458.6,355.3,461.1z"/>
	<path class="st44" d="M415.7,279.8c-2.5-2.6-4.9-5.2-7.4-7.8c-5.7-1.9-7.3-6.6-8.3-11.7c-0.9-23-7.6-44.2-19.6-63.9
		c-2.8-4.6-7.3-9.2-2.2-15.1c11.3,4,22,8.3,24.5,22.5c1.1,6.5,6.8,8.4,13.1,7.7C419.8,234.3,422.4,257.1,415.7,279.8z"/>
	<path class="st45" d="M434.8,335.9c4.9,31.4,5.2,62.8,0.2,94.2c-2.1,5.5-5.4,8.2-11.3,4.7c0-31.9,0.1-63.8,0.1-95.8
		C427.5,338,431.1,337,434.8,335.9z"/>
	<path class="st46" d="M415.8,506.3c-10.8,6.9-21.9,1.7-32.7,0.3c-25.8-3.4-51.5-7.4-77.3-11.2c8.6-9.1,22.6-2.2,31.4-10.7
		c26.8,0.8,54-0.2,78.3,14.3C415.7,501.4,415.7,503.8,415.8,506.3z"/>
	<path class="st47" d="M423.7,434.8c3.8-1.6,7.5-3.1,11.3-4.7c7.5,20,1.8,40.8,3.2,61.1c-4.7,2.4-9.5,4.8-14.2,7.1
		C423.9,477.2,423.8,456,423.7,434.8z"/>
	<path class="st48" d="M415.6,498.9c-26.4-3.8-52.8-7.6-79.2-11.3c-5.6,3.4-10.4,3.7-12.8-3.8c0.3-3.8,2.8-5.9,6-7.3
		c29.5-0.9,58.7,0.8,85.8,14.2c0,0,0.8,1.2,0.8,1.2C416,494.3,415.8,496.6,415.6,498.9z"/>
	<path class="st49" d="M469,324.8c-0.1-1.2-0.3-2.3-0.6-3.4c0.2-2.6,0.5-5.3,0.7-7.9c3.6-1.1,7.3-2.2,10.9-3.3
		c-0.1,3.8-0.1,7.5-0.2,11.3C477.1,325.4,474.4,329.5,469,324.8z"/>
	<path class="st50" d="M324.8,483.9c2.9,4.1,7.4,3.5,11.6,3.7c-7,15.2-20.6,4-30.5,7.8c-10.2-0.6-20.7,0.7-30.4-3.8
		c7.7-1.8,20.1,4.4,19.3-11.5C305.5,475.8,315.4,477.4,324.8,483.9z"/>
	<path class="st51" d="M245.6,472.5c-36.8-0.8-72.5-10.1-109-13.1c-17.4-1.4-25.2-10.5-23.4-28.7c1.3-13.6,0.2-27.5,0.2-41.3
		c12.8,3.3,18.8,12.3,21.1,24.6c-1.5,30.8-0.6,31.5,30,37.3c20.8,3.9,42,4.7,62.8,8.4c6.7,1.2,13.8,0.9,18.5,7.1
		C246.8,468.7,246.8,470.6,245.6,472.5z"/>
	<path class="st52" d="M245.6,472.5c0-1.3,0.1-2.5,0.1-3.8c4.7-5.4,11.3-4.8,17.4-5.1c8.4-0.4,14.4-3.5,17.3-11.7
		c4.7-7.2,11.9-9.7,19.9-10.7c16.4-0.7,27.7-11.9,40.7-19.8c4.9-2.9,8.5-9.7,15.8-4.9c0.4,23.4-16.3,42.6-41.1,47.3
		c-8.2,1.1-15,5-21,10.5c-6.2,2-12.4,2.7-18.9,1.8c-7.5,0-15.1,0-22.6-0.1C250.1,476.2,247.3,475.4,245.6,472.5z"/>
	<path class="st53" d="M131.2,412.5c-6-7.7-11.9-15.4-17.9-23.1c-4.1-8.9-8.2-17.7-12.3-26.6c1.5-1.1,3.2-1.5,5.1-1.1
		c8.9,5.5,11.2,16,17.8,23.3c22.1,28.9,48.4,51.7,85,60.1c4.7,1.1,10.1,1.6,11.4,7.9c-0.8,2.9-2.6,4.9-5.4,6
		c-30.7-0.9-54.2-17.6-77.2-35.4C134,420.7,131.3,417.3,131.2,412.5z"/>
	<path class="st54" d="M113.3,185.2c-4.7,19.5-19.1,35.6-19.3,56.6c1.5,8.3,3.2,16.6-4.1,23.4c-3.6,0.9-4.9-1.4-5.9-4.2
		c3-22.3,9.8-43.5,18.1-64.3C105.8,192.9,109.5,189,113.3,185.2z"/>
	<path class="st55" d="M105.2,362.8c-1.4,0-2.7,0-4.1,0c-8.9-14.8-13.6-30.9-14.6-48.2c-2-5.2-1.6-10.4-0.5-15.6
		c15.6,2.5,6.6,16.8,11.7,24.3C97.8,336.9,110.3,348.2,105.2,362.8z"/>
	<path class="st56" d="M87.5,297.8c-0.4,5.6-0.7,11.2-1.1,16.8c-6.8-17.6-2.8-35.7-2.5-53.7c1.2,1.5,2.5,2.9,3.7,4.4
		C94.1,276.2,94.2,287,87.5,297.8z"/>
	<path class="st57" d="M275.8,476.3c5.9-3.6,12.3-4.1,19-3.7c11.3-3.2,22.3-2.4,33.1,2c1.8,1.5,2.2,3.4,1.1,5.5
		c-1.4,1.3-2.8,2.6-4.2,3.9c-10.3,0.7-20.2-0.9-30-3.8C288.4,479,281.2,482.3,275.8,476.3z"/>
	<path class="st58" d="M378.2,181.4c7.6,16.8,19.1,31.7,22.8,50.4c2,9.9,4,19.5,3,29.5c-10.4,0.1-12.3-9.6-17.5-15.4
		c-9.2-27.3-17.7-54.8-36.5-77.6c-15.1-21.4-37.5-33.9-58.7-47.9c10-6.3,17.6,0.9,25,5.4C340.3,140.5,360.5,159.6,378.2,181.4z"/>
	<path class="st59" d="M291.3,120.4c24.9,8.9,44.4,24.9,59.8,46c-1.7,1.8-3.4,1.9-5.1,0.1c-23.6-25.6-52.3-42.9-85.6-52.6
		C271.6,111.7,281.1,117.8,291.3,120.4z"/>
	<path class="st60" d="M469,324.8c3.6-1.1,7.2-2.2,10.8-3.3c0.3,27.5,0.6,55.1,0.9,82.6c-0.3,1.2-0.7,2.4-1.1,3.6
		c-3.6,1.5-7.1,3-10.7,4.4C469,383,469,353.9,469,324.8z"/>
	<path class="st61" d="M162.5,204.1c1.1-9,1.8-18.2,7.8-25.7c17.5-7.5,32.4-1.1,46.7,8.8c32.4,22.5,65.2,44.4,98.1,66.3
		c11.1,8.4,25.4,13.8,28.5,29.9c1.2,10.9-2.8,20.7-11.5,26.3c-45.6,29.5-89.5,61.8-137.9,86.8c-15.9,2-28.3-1.8-32.7-19.3
		c-0.3-2.3-0.5-4.6-0.5-6.9c-0.9-38.2,1.7-76.4-3.8-114.5C154.8,238.6,155.5,220.8,162.5,204.1z"/>
	<path class="st62" d="M162.5,204.1c1,56.6,2,113.2,3,169.9c-10.1-2.9-7.5-11.7-7.8-18.4c-0.7-17.4,0-34.9-0.4-54.8
		c-17.9,20.2-42.6,16.1-63,24.6c-6.7-8.1-1-19.2-6.9-27.5c0.1-10.8,0.1-21.6,0.2-32.4c4.6-7.2,0.7-16.7,6.3-23.6
		C123,240.3,147.9,231.5,162.5,204.1z"/>
	<path class="st63" d="M302.3,177.8c27.2,9.7,47.5,30.5,71.5,45.3c11.8,7.9,11.8,21.5,16.1,33c0.2,3.9-0.4,7.7-1.8,11.4
		c-11,13.2-20.3,28.2-37.2,35.2c-7.1-7.5,0.6-16.9-3.2-24.8c-5.7-13.1-18.1-18.9-28.9-26.3c-13-8.6-25.7-17.6-37.7-27.4
		c-4-3.3-10.5-5.1-9.1-12.5c-1.5-11.6,2.9-18.5,14.9-21C293.9,189.3,302.3,188,302.3,177.8z"/>
	<path class="st64" d="M272.1,211.7c16.4,12.5,32.8,25.1,49.2,37.6c1.1,6.2-1.2,9.2-7.8,7.8C277,232.9,240.2,209,204,184.4
		c-10.8-7.3-21.4-9.8-33.6-6c23-13.6,44-5.9,62.7,8.2C245.6,196,258.9,203.7,272.1,211.7z"/>
	<path class="st65" d="M386.2,257c-3.4-11.5-4.7-23.9-12.3-33.9c-1.9-22.5-17.8-38-27.8-56.5c1.7,0,3.4-0.1,5.1-0.1
		c19.6,23.3,30.7,50.8,38.7,79.8c1.8,3.2,2.9,6.4,0.9,10C389.4,257.7,387.9,257.9,386.2,257z"/>
	<path class="st66" d="M313.7,461.3c26-3.9,34.3-24.2,41.7-45.3c-2.9-6.8,2.4-10.6,6.1-14.3c11.3-11.3,18.9-24.7,25.3-39.1
		c2.4-3.7,4-8.6,10.1-7.4c-1.8,40-14.8,75.7-41.5,105.9c-4.6,0.5-11.9-1.8-7.4,7.6c-2.2,2.5-5.1,3.5-8.3,3.8
		C330.6,469.5,318.3,474.3,313.7,461.3z"/>
	<path class="st67" d="M396.8,355.1c-2.4,2.8-4.8,5.6-7.2,8.4c-4.7-1.9-7.9-5.2-9.7-9.9c-0.4-2-0.4-4,0-5.9
		c9.4-29.7,8.2-60.4,9-90.9c0.3-3.5,0.6-7.1,0.9-10.6c4.7,5,9.4,10,14.2,15c1.4,3.6,2.8,7.2,4.3,10.8
		C410.7,300.6,402.8,327.7,396.8,355.1z"/>
	<path class="st68" d="M339.9,468.6c2.6,0,5.3,0,7.9,0c20.6-1,40.1,6.4,60.4,7.9c9.5,0.7,6.9,8.4,7.1,14.3
		c-28.9-3-57.2-10.7-86.4-10.8c-0.1-1.2-0.2-2.5-0.3-3.8C330.9,471.4,337,472.3,339.9,468.6z"/>
	<path class="st69" d="M131.2,412.5c24.5,21.6,50.8,39.8,84.4,43.8c13.7-6.3,28.3-3.5,42.6-4.2c8.3,1.3,16.9-5.1,25.1,0.9
		c1.2,11.6-6.2,14.9-15.6,15.6c-7.3,0.5-14.7,0.2-22,0.3c-23.8-8.2-49.3-5.4-73.5-11.3c-5.4-1.3-11-2-16.5-3.1
		C126.5,448.4,123.5,443.4,131.2,412.5z"/>
	<path class="st70" d="M382.5,355.4c5.2,0.3,6.7,3.7,7,8.2c-4.3,22.1-21.4,35.9-34.2,52.4c-17.1,11.6-31,28.8-54,29.4
		c0.2-5.2,4.3-7.3,8-9.6c28.7-17.4,49.5-41.8,64.3-71.7C375.5,360.1,377.3,355.9,382.5,355.4z"/>
	<path class="st71" d="M382.5,355.4c-16.6,39.4-42.8,70.2-81.2,90c-6.6,1.1-12.7,3.3-18,7.5c-7.5,1.2-15.1,2.4-22.6,3.6
		c-2.8-0.9-5.2-2.2-4.3-5.8c2.6-4.1,7-4.7,11.3-5.8c45.5-11.7,79.1-38,99.1-81c2.8-6.1,5.1-12.9,11.2-16.9c3.3,0.1,5.5,1,4.2,4.9
		C382.3,353,382.4,354.2,382.5,355.4z"/>
	<path class="st72" d="M339.9,468.6c-1.9,5.3-5.8,7.6-11.2,7.6c-11.3-1-23.1,2.4-33.9-3.7c1-12.6,10.2-11.4,18.9-11.3
		C321.5,467.1,331.6,464.7,339.9,468.6z"/>
	<path class="st73" d="M378.5,347.9c-21.2,57.7-61.7,93-122.1,105.2c-12.2,3.8-24.5,3.5-36.8,0.2c-37.7-9-70.1-26.9-94.2-57.9
		c-2.2-2.9-3.6-6.4-5.3-9.6c15.8,0.2,29.2-13.7,46-7.8c4.4,16.4,17.3,15.5,30.1,14.9c21.2-3.7,37.5-17.2,54.8-28.1
		c33.4-21,68.5-39.3,100.6-62.3c10.2-12.3,20.6-24.5,33.7-34C392.3,295.7,392.5,322.4,378.5,347.9z"/>
	<path class="st74" d="M166,378c-4.6,1.1-10.5,0.9-13.7,3.7c-10.2,9.1-20.9,7.5-32.3,4.1c-7.5-6-9.3-15.6-14.9-22.9
		c-2.8-12.7-11.3-23.8-10.8-37.5c0.8-7.2,3.8-11.4,12.1-10.9c21.5,1.2,41-2.8,53.2-27.5c4.7,18.3,1.5,33.5,2.8,48.4
		c1.1,12.9-3.3,26.2,3.1,38.7C165.7,375.3,165.8,376.6,166,378z"/>
	<path class="st75" d="M219.6,453.3c12.3-0.1,24.5-0.1,36.8-0.2c1.4,1.1,2.9,2.2,4.3,3.3c-15,2-30,2.2-45.1-0.2
		C217,455.3,218.3,454.3,219.6,453.3z"/>
	<path class="st76" d="M351.6,302.4c-5.6,18.3-24.2,20.7-37.3,29.4c-27.4,18.4-56.2,34.7-84.5,51.9c-10.4,6.3-21,11.3-33.7,9.1
		c41.4-26.7,82.8-53.5,124.4-79.9c11.2-7.1,19.9-15.1,19.7-29.5c3-3.7,6.1-7.2,11.3-7.5C359.8,284.7,347.9,293.6,351.6,302.4z"/>
	<path class="st77" d="M351.5,275.9c-2.1,5-5.9,7.6-11.3,7.5c-4-13.7-17.8-17.5-26.6-26.3c3.6-1.6,6.4-4,7.8-7.8
		C334.1,255.1,345.7,262.2,351.5,275.9z"/>
	<path class="st78" d="M378.5,347.9c9.3-25.9,7.8-52.7,6.8-79.4c0.3-3.8,0.6-7.6,1-11.4c0.9,0,1.8-0.1,2.7-0.1
		c9.5,32.5,5.1,64-6.8,95C380.9,350.5,379.7,349.2,378.5,347.9z"/>
</g>
</svg>
